<?xml version="1.0" encoding="UTF-8"?><svg id="Layer_2" xmlns="http://www.w3.org/2000/svg" viewBox="0 0 100 100"><defs><style>.cls-1{fill:red;}</style></defs><g id="Layer_1-2"><polygon class="cls-1" points="3.33 65.62 3.33 65.63 3.33 68.75 6.67 68.75 6.67 71.87 6.67 75 10 75 10 78.12 10 81.25 13.33 81.25 13.33 84.37 13.33 87.5 16.67 87.5 16.67 90.62 20 90.62 20 93.75 23.33 93.75 23.33 96.87 26.67 96.87 26.67 100 30 100 33.33 100 33.33 100 36.67 100 36.67 100 40 100 40 96.87 43.33 96.87 46.67 96.87 46.67 93.75 50 93.75 53.33 93.75 53.33 93.75 56.67 93.75 56.67 93.75 60 93.75 60 96.87 63.33 96.87 66.67 96.87 66.67 100 70 100 73.33 100 73.33 100 76.67 100 80 100 80 96.87 83.33 96.87 83.33 93.75 86.67 93.75 86.67 90.62 90 90.62 90 87.5 93.33 87.5 93.33 84.37 93.33 81.25 96.67 81.25 96.67 78.12 96.67 75 100 75 100 71.87 96.67 71.87 96.67 68.75 93.33 68.75 93.33 65.62 90 65.62 90 62.5 86.67 62.5 86.67 59.37 86.67 56.25 83.33 56.25 83.33 53.12 83.33 50 83.33 46.88 86.67 46.88 86.67 46.87 86.67 43.75 86.67 43.75 86.67 40.63 90 40.63 90 37.5 93.33 37.5 93.33 34.37 96.67 34.37 96.67 31.25 93.33 31.25 93.33 28.12 90 28.12 90 25 86.67 25 86.67 25 86.67 21.88 83.33 21.88 83.33 18.75 80 18.75 76.67 18.75 73.33 18.75 73.33 18.75 70 18.75 66.67 18.75 63.33 18.75 63.33 21.88 60 21.88 60 25 56.67 25 56.67 28.12 53.33 28.12 53.33 28.12 50 28.12 50 25 46.67 25 46.67 21.88 43.33 21.88 43.33 18.75 40 18.75 36.67 18.75 36.67 18.75 33.33 18.75 33.33 18.75 30 18.75 26.67 18.75 23.33 18.75 23.33 21.88 20 21.88 20 25 20 25 16.67 25 16.67 28.12 13.33 28.12 13.33 31.25 10 31.25 10 34.37 6.67 34.37 6.67 37.5 6.67 40.63 3.33 40.63 3.33 43.75 3.33 43.75 3.33 46.87 0 46.87 0 50 0 53.12 0 56.25 0 59.37 0 62.5 3.33 62.5 3.33 65.62"/><polygon class="cls-1" points="54.97 25 54.97 21.88 58.3 21.88 58.3 18.75 61.64 18.75 61.64 15.62 64.97 15.62 64.97 12.5 64.97 12.5 64.97 9.38 68.3 9.38 68.3 6.25 71.64 6.25 71.64 3.13 71.64 0 68.3 0 64.97 0 64.97 3.13 61.64 3.13 58.3 3.13 58.3 6.25 54.97 6.25 54.97 9.37 51.64 9.37 51.64 12.5 48.3 12.5 48.3 15.62 48.3 18.75 48.3 21.88 51.64 21.88 51.64 25 54.97 25"/></g></svg>