<?xml version="1.0" encoding="UTF-8"?><svg id="Layer_2" xmlns="http://www.w3.org/2000/svg" xmlns:xlink="http://www.w3.org/1999/xlink" viewBox="0 0 112 112"><defs><style>.cls-1{fill:#b3b369;}.cls-2{fill:#ff96ff;}.cls-3{fill:#6969b3;}.cls-4{fill:#9696ff;}.cls-5{fill:#69b3b3;}.cls-6{fill:#b36969;}.cls-7{fill:#b369b3;}.cls-8{fill:#96ff96;}.cls-9{fill:#ff9696;}.cls-10{fill:#96ffff;}.cls-11{fill:#ffff96;}.cls-12{fill:none;stroke:#fff;stroke-linecap:round;stroke-miterlimit:10;stroke-width:2px;}.cls-13{fill:url(#linear-gradient);}.cls-14{fill:#69b369;}</style><linearGradient id="linear-gradient" x1="0" y1="56" x2="112" y2="56" gradientUnits="userSpaceOnUse"><stop offset="0" stop-color="#9696ff"/><stop offset=".2" stop-color="#96ffff"/><stop offset=".4" stop-color="#ff9696"/><stop offset=".6" stop-color="#ff96ff"/><stop offset=".8" stop-color="#96ff96"/><stop offset="1" stop-color="#ffff96"/></linearGradient></defs><g id="Layer_1-2"><rect class="cls-13" width="112" height="112"/><path class="cls-5" d="m63.25,23.53c1.58,1.99,2.53,4.51,2.53,7.25,0,6.44-5.22,11.67-11.67,11.67-2.74,0-5.26-.94-7.25-2.53,2.14,2.69,5.44,4.42,9.14,4.42,6.44,0,11.67-5.22,11.67-11.67,0-3.7-1.73-7-4.42-9.14Z"/><path class="cls-10" d="m65.77,30.77c0-2.74-.94-5.26-2.53-7.25-1.99-1.58-4.51-2.53-7.25-2.53-6.44,0-11.67,5.22-11.67,11.67,0,2.74.94,5.26,2.53,7.25,1.99,1.58,4.51,2.53,7.25,2.53,6.44,0,11.67-5.22,11.67-11.67Z"/><path class="cls-12" d="m46.09,32.67c0-2.65,1.03-5.14,2.9-7.01s4.36-2.9,7.01-2.9"/><path class="cls-3" d="m39.92,23.53c1.58,1.99,2.53,4.51,2.53,7.25,0,6.44-5.22,11.67-11.67,11.67-2.74,0-5.26-.94-7.25-2.53,2.14,2.69,5.44,4.42,9.14,4.42,6.44,0,11.67-5.22,11.67-11.67,0-3.7-1.73-7-4.42-9.14Z"/><path class="cls-4" d="m42.44,30.77c0-2.74-.94-5.26-2.53-7.25-1.99-1.58-4.51-2.53-7.25-2.53-6.44,0-11.67,5.22-11.67,11.67,0,2.74.94,5.26,2.53,7.25,1.99,1.58,4.51,2.53,7.25,2.53,6.44,0,11.67-5.22,11.67-11.67Z"/><path class="cls-12" d="m22.75,32.67c0-2.65,1.03-5.14,2.9-7.01,1.87-1.87,4.36-2.9,7.01-2.9"/><path class="cls-6" d="m86.58,23.53c1.58,1.99,2.53,4.51,2.53,7.25,0,6.44-5.22,11.67-11.67,11.67-2.74,0-5.26-.94-7.25-2.53,2.14,2.69,5.44,4.42,9.14,4.42,6.44,0,11.67-5.22,11.67-11.67,0-3.7-1.73-7-4.42-9.14Z"/><path class="cls-9" d="m89.11,30.77c0-2.74-.94-5.26-2.53-7.25-1.99-1.58-4.51-2.53-7.25-2.53-6.44,0-11.67,5.22-11.67,11.67,0,2.74.94,5.26,2.53,7.25,1.99,1.58,4.51,2.53,7.25,2.53,6.44,0,11.67-5.22,11.67-11.67Z"/><path class="cls-12" d="m69.42,32.67c0-2.65,1.03-5.14,2.9-7.01,1.87-1.87,4.36-2.9,7.01-2.9"/><path class="cls-7" d="m39.92,46.93c1.58,1.99,2.53,4.51,2.53,7.25,0,6.44-5.22,11.67-11.67,11.67-2.74,0-5.26-.94-7.25-2.53,2.14,2.69,5.44,4.42,9.14,4.42,6.44,0,11.67-5.22,11.67-11.67,0-3.7-1.73-7-4.42-9.14Z"/><path class="cls-2" d="m42.44,54.18c0-2.74-.94-5.26-2.53-7.25-1.99-1.58-4.51-2.53-7.25-2.53-6.44,0-11.67,5.22-11.67,11.67,0,2.74.94,5.26,2.53,7.25,1.99,1.58,4.51,2.53,7.25,2.53,6.44,0,11.67-5.22,11.67-11.67Z"/><path class="cls-12" d="m22.75,56.07c0-2.65,1.03-5.14,2.9-7.01,1.87-1.87,4.36-2.9,7.01-2.9"/><path class="cls-14" d="m86.58,46.79c1.58,1.99,2.53,4.51,2.53,7.25,0,6.44-5.22,11.67-11.67,11.67-2.74,0-5.26-.94-7.25-2.53,2.14,2.69,5.44,4.42,9.14,4.42,6.44,0,11.67-5.22,11.67-11.67,0-3.7-1.73-7-4.42-9.14Z"/><path class="cls-8" d="m89.11,54.04c0-2.74-.94-5.26-2.53-7.25-1.99-1.58-4.51-2.53-7.25-2.53-6.44,0-11.67,5.22-11.67,11.67,0,2.74.94,5.26,2.53,7.25,1.99,1.58,4.51,2.53,7.25,2.53,6.44,0,11.67-5.22,11.67-11.67Z"/><path class="cls-12" d="m69.42,55.93c0-2.65,1.03-5.14,2.9-7.01,1.87-1.87,4.36-2.9,7.01-2.9"/><path class="cls-1" d="m63.25,46.93c1.58,1.99,2.53,4.51,2.53,7.25,0,6.44-5.22,11.67-11.67,11.67-2.74,0-5.26-.94-7.25-2.53,2.14,2.69,5.44,4.42,9.14,4.42,6.44,0,11.67-5.22,11.67-11.67,0-3.7-1.73-7-4.42-9.14Z"/><path class="cls-11" d="m65.77,54.18c0-2.74-.94-5.26-2.53-7.25-1.99-1.58-4.51-2.53-7.25-2.53-6.44,0-11.67,5.22-11.67,11.67,0,2.74.94,5.26,2.53,7.25,1.99,1.58,4.51,2.53,7.25,2.53,6.44,0,11.67-5.22,11.67-11.67Z"/><path class="cls-12" d="m46.09,56.07c0-2.65,1.03-5.14,2.9-7.01,1.87-1.87,4.36-2.9,7.01-2.9"/><path class="cls-5" d="m63.25,70.19c1.58,1.99,2.53,4.51,2.53,7.25,0,6.44-5.22,11.67-11.67,11.67-2.74,0-5.26-.94-7.25-2.53,2.14,2.69,5.44,4.42,9.14,4.42,6.44,0,11.67-5.22,11.67-11.67,0-3.7-1.73-7-4.42-9.14Z"/><path class="cls-10" d="m65.77,77.44c0-2.74-.94-5.26-2.53-7.25-1.99-1.58-4.51-2.53-7.25-2.53-6.44,0-11.67,5.22-11.67,11.67,0,2.74.94,5.26,2.53,7.25,1.99,1.58,4.51,2.53,7.25,2.53,6.44,0,11.67-5.22,11.67-11.67Z"/><path class="cls-12" d="m46.09,79.33c0-2.65,1.03-5.14,2.9-7.01s4.36-2.9,7.01-2.9"/><path class="cls-3" d="m39.92,70.19c1.58,1.99,2.53,4.51,2.53,7.25,0,6.44-5.22,11.67-11.67,11.67-2.74,0-5.26-.94-7.25-2.53,2.14,2.69,5.44,4.42,9.14,4.42,6.44,0,11.67-5.22,11.67-11.67,0-3.7-1.73-7-4.42-9.14Z"/><path class="cls-4" d="m42.44,77.44c0-2.74-.94-5.26-2.53-7.25-1.99-1.58-4.51-2.53-7.25-2.53-6.44,0-11.67,5.22-11.67,11.67,0,2.74.94,5.26,2.53,7.25,1.99,1.58,4.51,2.53,7.25,2.53,6.44,0,11.67-5.22,11.67-11.67Z"/><path class="cls-12" d="m22.75,79.33c0-2.65,1.03-5.14,2.9-7.01,1.87-1.87,4.36-2.9,7.01-2.9"/><path class="cls-6" d="m86.58,70.19c1.58,1.99,2.53,4.51,2.53,7.25,0,6.44-5.22,11.67-11.67,11.67-2.74,0-5.26-.94-7.25-2.53,2.14,2.69,5.44,4.42,9.14,4.42,6.44,0,11.67-5.22,11.67-11.67,0-3.7-1.73-7-4.42-9.14Z"/><path class="cls-9" d="m89.11,77.44c0-2.74-.94-5.26-2.53-7.25-1.99-1.58-4.51-2.53-7.25-2.53-6.44,0-11.67,5.22-11.67,11.67,0,2.74.94,5.26,2.53,7.25,1.99,1.58,4.51,2.53,7.25,2.53,6.44,0,11.67-5.22,11.67-11.67Z"/><path class="cls-12" d="m69.42,79.33c0-2.65,1.03-5.14,2.9-7.01,1.87-1.87,4.36-2.9,7.01-2.9"/></g></svg>