<?xml version="1.0" encoding="UTF-8"?><svg id="Layer_2" xmlns="http://www.w3.org/2000/svg" viewBox="0 0 800 700"><defs><style>.cls-1{fill:#070600;}</style></defs><g id="Layer_1-2"><path class="cls-1" d="m28.41,700l92.7-41.53h572.68l97.19,41.53,8.97-207.63-37.38-72.67s34.39-72.67,37.38-86.02S657.91,50.42,657.91,50.42c0,0-40.37,23.73-49.34,31.14-8.97,7.42-44.86-74.15-44.86-74.15l-64.3,26.69L410.45,0l-88.97,32.63S251.2,1.48,242.23,10.38c-8.97,8.9-43.36,80.08-43.36,80.08l-46.35-26.69L0,329.24l35.89,87.5-20.93,78.6,14.95,75.64-13.46,23.73,14.95,23.73-2.99,81.57Z"/></g></svg>