<?xml version="1.0" encoding="UTF-8"?><svg id="Layer_2" xmlns="http://www.w3.org/2000/svg" xmlns:xlink="http://www.w3.org/1999/xlink" viewBox="0 0 112 112"><defs><style>.cls-1{fill:#3f230e;}.cls-2{fill:#fff;filter:url(#outer-glow-1);}.cls-3{clip-path:url(#clippath-1);}.cls-4{clip-path:url(#clippath);}.cls-5{fill:none;}.cls-6{fill:#76431f;}</style><clipPath id="clippath"><rect class="cls-5" width="112" height="112"/></clipPath><clipPath id="clippath-1"><rect class="cls-5" x="-43.08" y="0" width="198.15" height="112"/></clipPath><filter id="outer-glow-1" filterUnits="userSpaceOnUse"><feOffset dx="0" dy="0"/><feGaussianBlur result="blur" stdDeviation="6"/><feFlood flood-color="#fff" flood-opacity=".8"/><feComposite in2="blur" operator="in"/><feComposite in="SourceGraphic"/></filter></defs><g id="Layer_1-2"><g class="cls-4"><g class="cls-3"><rect class="cls-1" x="8.04" y="0" width="11.99" height="112"/><path class="cls-6" d="m15.29,99.78c-.36-.7,2.36-5.02,2.95-7.41s-.74-5.42-.74-5.42c.66,1.01,0,3.63,0,3.63,0,0-1.33,7.12-3.39,6.89s-2.87-6.06-2.87-6.06c0,0-.11-3.06.48-4.76.25-.72.62-1.19,1.17-1.11,1.88.28,2.54,4.82,2.54,4.82,0,0-.66,1.65-1.25,1.84s-.88-.64-.88-.64c0,0-.29,1.42,1.36,1.42s1.43-3.12,1.43-3.12c0,0-.44-3.67-1.43-3.99s-.92-2.48-.92-2.48l-.29-9.69-1.33,7.12s-.74,1.93-1.33,2.34c-.59.41-1.12,9.41-1.12,9.41,0,0,1.27,5.14,1.86,5.69,0,0,4.72,8.49,3.13,10.47,0,0,2.54-5.2.62-8.94Z"/><path class="cls-6" d="m15.29,29.37c-.36-.7,2.36-5.02,2.95-7.41s-.74-5.42-.74-5.42c.66,1.01,0,3.63,0,3.63,0,0-1.33,7.12-3.39,6.89s-2.87-6.06-2.87-6.06c0,0-.11-3.06.48-4.76.25-.72.62-1.19,1.17-1.11,1.88.28,2.54,4.82,2.54,4.82,0,0-.66,1.65-1.25,1.84s-.88-.64-.88-.64c0,0-.29,1.42,1.36,1.42s1.43-3.12,1.43-3.12c0,0-.44-3.67-1.43-3.99s-.92-2.48-.92-2.48l-.29-9.69-1.33,7.12s-.74,1.93-1.33,2.34c-.59.41-1.12,9.41-1.12,9.41,0,0,1.27,5.14,1.86,5.69,0,0,4.72,8.49,3.13,10.47,0,0,2.54-5.2.62-8.94Z"/><path class="cls-6" d="m15.29,64.58c-.36-.7,2.36-5.02,2.95-7.41s-.74-5.42-.74-5.42c.66,1.01,0,3.63,0,3.63,0,0-1.33,7.12-3.39,6.89s-2.87-6.06-2.87-6.06c0,0-.11-3.06.48-4.76.25-.72.62-1.19,1.17-1.11,1.88.28,2.54,4.82,2.54,4.82,0,0-.66,1.65-1.25,1.84s-.88-.64-.88-.64c0,0-.29,1.42,1.36,1.42s1.43-3.12,1.43-3.12c0,0-.44-3.67-1.43-3.99s-.92-2.48-.92-2.48l-.29-9.69-1.33,7.12s-.74,1.93-1.33,2.34c-.59.41-1.12,9.41-1.12,9.41,0,0,1.27,5.14,1.86,5.69,0,0,4.72,8.49,3.13,10.47,0,0,2.54-5.2.62-8.94Z"/><rect class="cls-6" x="-3.95" y="0" width="11.99" height="112"/><path class="cls-1" d="m3.3,99.78c-.36-.7,2.36-5.02,2.95-7.41s-.74-5.42-.74-5.42c.66,1.01,0,3.63,0,3.63,0,0-1.33,7.12-3.39,6.89s-2.87-6.06-2.87-6.06c0,0-.11-3.06.48-4.76.25-.72.62-1.19,1.17-1.11,1.88.28,2.54,4.82,2.54,4.82,0,0-.66,1.65-1.25,1.84s-.88-.64-.88-.64c0,0-.29,1.42,1.36,1.42s1.43-3.12,1.43-3.12c0,0-.44-3.67-1.43-3.99s-.92-2.48-.92-2.48l-.29-9.69-1.33,7.12s-.74,1.93-1.33,2.34c-.59.41-1.12,9.41-1.12,9.41,0,0,1.27,5.14,1.86,5.69,0,0,4.72,8.49,3.13,10.47,0,0,2.54-5.2.62-8.94Z"/><path class="cls-1" d="m3.3,29.37c-.36-.7,2.36-5.02,2.95-7.41s-.74-5.42-.74-5.42c.66,1.01,0,3.63,0,3.63,0,0-1.33,7.12-3.39,6.89s-2.87-6.06-2.87-6.06c0,0-.11-3.06.48-4.76.25-.72.62-1.19,1.17-1.11,1.88.28,2.54,4.82,2.54,4.82,0,0-.66,1.65-1.25,1.84s-.88-.64-.88-.64c0,0-.29,1.42,1.36,1.42s1.43-3.12,1.43-3.12c0,0-.44-3.67-1.43-3.99s-.92-2.48-.92-2.48l-.29-9.69L.13,10.4s-.74,1.93-1.33,2.34c-.59.41-1.12,9.41-1.12,9.41,0,0,1.27,5.14,1.86,5.69,0,0,4.72,8.49,3.13,10.47,0,0,2.54-5.2.62-8.94Z"/><path class="cls-1" d="m3.3,64.58c-.36-.7,2.36-5.02,2.95-7.41s-.74-5.42-.74-5.42c.66,1.01,0,3.63,0,3.63,0,0-1.33,7.12-3.39,6.89s-2.87-6.06-2.87-6.06c0,0-.11-3.06.48-4.76.25-.72.62-1.19,1.17-1.11,1.88.28,2.54,4.82,2.54,4.82,0,0-.66,1.65-1.25,1.84s-.88-.64-.88-.64c0,0-.29,1.42,1.36,1.42s1.43-3.12,1.43-3.12c0,0-.44-3.67-1.43-3.99s-.92-2.48-.92-2.48l-.29-9.69-1.33,7.12s-.74,1.93-1.33,2.34c-.59.41-1.12,9.41-1.12,9.41,0,0,1.27,5.14,1.86,5.69,0,0,4.72,8.49,3.13,10.47,0,0,2.54-5.2.62-8.94Z"/><rect class="cls-1" x="32.02" y="0" width="11.99" height="112"/><path class="cls-6" d="m39.27,99.78c-.36-.7,2.36-5.02,2.95-7.41s-.74-5.42-.74-5.42c.66,1.01,0,3.63,0,3.63,0,0-1.33,7.12-3.39,6.89s-2.87-6.06-2.87-6.06c0,0-.11-3.06.48-4.76.25-.72.62-1.19,1.17-1.11,1.88.28,2.54,4.82,2.54,4.82,0,0-.66,1.65-1.25,1.84s-.88-.64-.88-.64c0,0-.29,1.42,1.36,1.42s1.43-3.12,1.43-3.12c0,0-.44-3.67-1.43-3.99s-.92-2.48-.92-2.48l-.29-9.69-1.33,7.12s-.74,1.93-1.33,2.34c-.59.41-1.12,9.41-1.12,9.41,0,0,1.27,5.14,1.86,5.69,0,0,4.72,8.49,3.13,10.47,0,0,2.54-5.2.62-8.94Z"/><path class="cls-6" d="m39.27,29.37c-.36-.7,2.36-5.02,2.95-7.41s-.74-5.42-.74-5.42c.66,1.01,0,3.63,0,3.63,0,0-1.33,7.12-3.39,6.89s-2.87-6.06-2.87-6.06c0,0-.11-3.06.48-4.76.25-.72.62-1.19,1.17-1.11,1.88.28,2.54,4.82,2.54,4.82,0,0-.66,1.65-1.25,1.84s-.88-.64-.88-.64c0,0-.29,1.42,1.36,1.42s1.43-3.12,1.43-3.12c0,0-.44-3.67-1.43-3.99s-.92-2.48-.92-2.48l-.29-9.69-1.33,7.12s-.74,1.93-1.33,2.34c-.59.41-1.12,9.41-1.12,9.41,0,0,1.27,5.14,1.86,5.69,0,0,4.72,8.49,3.13,10.47,0,0,2.54-5.2.62-8.94Z"/><path class="cls-6" d="m39.27,64.58c-.36-.7,2.36-5.02,2.95-7.41s-.74-5.42-.74-5.42c.66,1.01,0,3.63,0,3.63,0,0-1.33,7.12-3.39,6.89s-2.87-6.06-2.87-6.06c0,0-.11-3.06.48-4.76.25-.72.62-1.19,1.17-1.11,1.88.28,2.54,4.82,2.54,4.82,0,0-.66,1.65-1.25,1.84s-.88-.64-.88-.64c0,0-.29,1.42,1.36,1.42s1.43-3.12,1.43-3.12c0,0-.44-3.67-1.43-3.99s-.92-2.48-.92-2.48l-.29-9.69-1.33,7.12s-.74,1.93-1.33,2.34c-.59.41-1.12,9.41-1.12,9.41,0,0,1.27,5.14,1.86,5.69,0,0,4.72,8.49,3.13,10.47,0,0,2.54-5.2.62-8.94Z"/><rect class="cls-6" x="20.03" y="0" width="11.99" height="112"/><path class="cls-1" d="m27.28,99.78c-.36-.7,2.36-5.02,2.95-7.41s-.74-5.42-.74-5.42c.66,1.01,0,3.63,0,3.63,0,0-1.33,7.12-3.39,6.89s-2.87-6.06-2.87-6.06c0,0-.11-3.06.48-4.76.25-.72.62-1.19,1.17-1.11,1.88.28,2.54,4.82,2.54,4.82,0,0-.66,1.65-1.25,1.84s-.88-.64-.88-.64c0,0-.29,1.42,1.36,1.42s1.43-3.12,1.43-3.12c0,0-.44-3.67-1.43-3.99s-.92-2.48-.92-2.48l-.29-9.69-1.33,7.12s-.74,1.93-1.33,2.34c-.59.41-1.12,9.41-1.12,9.41,0,0,1.27,5.14,1.86,5.69,0,0,4.72,8.49,3.13,10.47,0,0,2.54-5.2.62-8.94Z"/><path class="cls-1" d="m27.28,29.37c-.36-.7,2.36-5.02,2.95-7.41s-.74-5.42-.74-5.42c.66,1.01,0,3.63,0,3.63,0,0-1.33,7.12-3.39,6.89s-2.87-6.06-2.87-6.06c0,0-.11-3.06.48-4.76.25-.72.62-1.19,1.17-1.11,1.88.28,2.54,4.82,2.54,4.82,0,0-.66,1.65-1.25,1.84s-.88-.64-.88-.64c0,0-.29,1.42,1.36,1.42s1.43-3.12,1.43-3.12c0,0-.44-3.67-1.43-3.99s-.92-2.48-.92-2.48l-.29-9.69-1.33,7.12s-.74,1.93-1.33,2.34c-.59.41-1.12,9.41-1.12,9.41,0,0,1.27,5.14,1.86,5.69,0,0,4.72,8.49,3.13,10.47,0,0,2.54-5.2.62-8.94Z"/><path class="cls-1" d="m27.28,64.58c-.36-.7,2.36-5.02,2.95-7.41s-.74-5.42-.74-5.42c.66,1.01,0,3.63,0,3.63,0,0-1.33,7.12-3.39,6.89s-2.87-6.06-2.87-6.06c0,0-.11-3.06.48-4.76.25-.72.62-1.19,1.17-1.11,1.88.28,2.54,4.82,2.54,4.82,0,0-.66,1.65-1.25,1.84s-.88-.64-.88-.64c0,0-.29,1.42,1.36,1.42s1.43-3.12,1.43-3.12c0,0-.44-3.67-1.43-3.99s-.92-2.48-.92-2.48l-.29-9.69-1.33,7.12s-.74,1.93-1.33,2.34c-.59.41-1.12,9.41-1.12,9.41,0,0,1.27,5.14,1.86,5.69,0,0,4.72,8.49,3.13,10.47,0,0,2.54-5.2.62-8.94Z"/><rect class="cls-1" x="56" y="0" width="11.99" height="112"/><path class="cls-6" d="m63.25,99.78c-.36-.7,2.36-5.02,2.95-7.41s-.74-5.42-.74-5.42c.66,1.01,0,3.63,0,3.63,0,0-1.33,7.12-3.39,6.89s-2.87-6.06-2.87-6.06c0,0-.11-3.06.48-4.76.25-.72.62-1.19,1.17-1.11,1.88.28,2.54,4.82,2.54,4.82,0,0-.66,1.65-1.25,1.84s-.88-.64-.88-.64c0,0-.29,1.42,1.36,1.42s1.43-3.12,1.43-3.12c0,0-.44-3.67-1.43-3.99s-.92-2.48-.92-2.48l-.29-9.69-1.33,7.12s-.74,1.93-1.33,2.34c-.59.41-1.12,9.41-1.12,9.41,0,0,1.27,5.14,1.86,5.69,0,0,4.72,8.49,3.13,10.47,0,0,2.54-5.2.62-8.94Z"/><path class="cls-6" d="m63.25,29.37c-.36-.7,2.36-5.02,2.95-7.41s-.74-5.42-.74-5.42c.66,1.01,0,3.63,0,3.63,0,0-1.33,7.12-3.39,6.89s-2.87-6.06-2.87-6.06c0,0-.11-3.06.48-4.76.25-.72.62-1.19,1.17-1.11,1.88.28,2.54,4.82,2.54,4.82,0,0-.66,1.65-1.25,1.84s-.88-.64-.88-.64c0,0-.29,1.42,1.36,1.42s1.43-3.12,1.43-3.12c0,0-.44-3.67-1.43-3.99s-.92-2.48-.92-2.48l-.29-9.69-1.33,7.12s-.74,1.93-1.33,2.34c-.59.41-1.12,9.41-1.12,9.41,0,0,1.27,5.14,1.86,5.69,0,0,4.72,8.49,3.13,10.47,0,0,2.54-5.2.62-8.94Z"/><path class="cls-6" d="m63.25,64.58c-.36-.7,2.36-5.02,2.95-7.41s-.74-5.42-.74-5.42c.66,1.01,0,3.63,0,3.63,0,0-1.33,7.12-3.39,6.89s-2.87-6.06-2.87-6.06c0,0-.11-3.06.48-4.76.25-.72.62-1.19,1.17-1.11,1.88.28,2.54,4.82,2.54,4.82,0,0-.66,1.65-1.25,1.84s-.88-.64-.88-.64c0,0-.29,1.42,1.36,1.42s1.43-3.12,1.43-3.12c0,0-.44-3.67-1.43-3.99s-.92-2.48-.92-2.48l-.29-9.69-1.33,7.12s-.74,1.93-1.33,2.34c-.59.41-1.12,9.41-1.12,9.41,0,0,1.27,5.14,1.86,5.69,0,0,4.72,8.49,3.13,10.47,0,0,2.54-5.2.62-8.94Z"/><rect class="cls-6" x="44.01" y="0" width="11.99" height="112"/><path class="cls-1" d="m51.26,99.78c-.36-.7,2.36-5.02,2.95-7.41s-.74-5.42-.74-5.42c.66,1.01,0,3.63,0,3.63,0,0-1.33,7.12-3.39,6.89s-2.87-6.06-2.87-6.06c0,0-.11-3.06.48-4.76.25-.72.62-1.19,1.17-1.11,1.88.28,2.54,4.82,2.54,4.82,0,0-.66,1.65-1.25,1.84s-.88-.64-.88-.64c0,0-.29,1.42,1.36,1.42s1.43-3.12,1.43-3.12c0,0-.44-3.67-1.43-3.99s-.92-2.48-.92-2.48l-.29-9.69-1.33,7.12s-.74,1.93-1.33,2.34c-.59.41-1.12,9.41-1.12,9.41,0,0,1.27,5.14,1.86,5.69,0,0,4.72,8.49,3.13,10.47,0,0,2.54-5.2.62-8.94Z"/><path class="cls-1" d="m51.26,29.37c-.36-.7,2.36-5.02,2.95-7.41s-.74-5.42-.74-5.42c.66,1.01,0,3.63,0,3.63,0,0-1.33,7.12-3.39,6.89s-2.87-6.06-2.87-6.06c0,0-.11-3.06.48-4.76.25-.72.62-1.19,1.17-1.11,1.88.28,2.54,4.82,2.54,4.82,0,0-.66,1.65-1.25,1.84s-.88-.64-.88-.64c0,0-.29,1.42,1.36,1.42s1.43-3.12,1.43-3.12c0,0-.44-3.67-1.43-3.99s-.92-2.48-.92-2.48l-.29-9.69-1.33,7.12s-.74,1.93-1.33,2.34c-.59.41-1.12,9.41-1.12,9.41,0,0,1.27,5.14,1.86,5.69,0,0,4.72,8.49,3.13,10.47,0,0,2.54-5.2.62-8.94Z"/><path class="cls-1" d="m51.26,64.58c-.36-.7,2.36-5.02,2.95-7.41s-.74-5.42-.74-5.42c.66,1.01,0,3.63,0,3.63,0,0-1.33,7.12-3.39,6.89s-2.87-6.06-2.87-6.06c0,0-.11-3.06.48-4.76.25-.72.62-1.19,1.17-1.11,1.88.28,2.54,4.82,2.54,4.82,0,0-.66,1.65-1.25,1.84s-.88-.64-.88-.64c0,0-.29,1.42,1.36,1.42s1.43-3.12,1.43-3.12c0,0-.44-3.67-1.43-3.99s-.92-2.48-.92-2.48l-.29-9.69-1.33,7.12s-.74,1.93-1.33,2.34c-.59.41-1.12,9.41-1.12,9.41,0,0,1.27,5.14,1.86,5.69,0,0,4.72,8.49,3.13,10.47,0,0,2.54-5.2.62-8.94Z"/><rect class="cls-1" x="79.98" y="0" width="11.99" height="112"/><path class="cls-6" d="m87.24,99.78c-.36-.7,2.36-5.02,2.95-7.41s-.74-5.42-.74-5.42c.66,1.01,0,3.63,0,3.63,0,0-1.33,7.12-3.39,6.89s-2.87-6.06-2.87-6.06c0,0-.11-3.06.48-4.76.25-.72.62-1.19,1.17-1.11,1.88.28,2.54,4.82,2.54,4.82,0,0-.66,1.65-1.25,1.84s-.88-.64-.88-.64c0,0-.29,1.42,1.36,1.42s1.43-3.12,1.43-3.12c0,0-.44-3.67-1.43-3.99s-.92-2.48-.92-2.48l-.29-9.69-1.33,7.12s-.74,1.93-1.33,2.34c-.59.41-1.12,9.41-1.12,9.41,0,0,1.27,5.14,1.86,5.69,0,0,4.72,8.49,3.13,10.47,0,0,2.54-5.2.62-8.94Z"/><path class="cls-6" d="m87.24,29.37c-.36-.7,2.36-5.02,2.95-7.41s-.74-5.42-.74-5.42c.66,1.01,0,3.63,0,3.63,0,0-1.33,7.12-3.39,6.89s-2.87-6.06-2.87-6.06c0,0-.11-3.06.48-4.76.25-.72.62-1.19,1.17-1.11,1.88.28,2.54,4.82,2.54,4.82,0,0-.66,1.65-1.25,1.84s-.88-.64-.88-.64c0,0-.29,1.42,1.36,1.42s1.43-3.12,1.43-3.12c0,0-.44-3.67-1.43-3.99s-.92-2.48-.92-2.48l-.29-9.69-1.33,7.12s-.74,1.93-1.33,2.34c-.59.41-1.12,9.41-1.12,9.41,0,0,1.27,5.14,1.86,5.69,0,0,4.72,8.49,3.13,10.47,0,0,2.54-5.2.62-8.94Z"/><path class="cls-6" d="m87.24,64.58c-.36-.7,2.36-5.02,2.95-7.41s-.74-5.42-.74-5.42c.66,1.01,0,3.63,0,3.63,0,0-1.33,7.12-3.39,6.89s-2.87-6.06-2.87-6.06c0,0-.11-3.06.48-4.76.25-.72.62-1.19,1.17-1.11,1.88.28,2.54,4.82,2.54,4.82,0,0-.66,1.65-1.25,1.84s-.88-.64-.88-.64c0,0-.29,1.42,1.36,1.42s1.43-3.12,1.43-3.12c0,0-.44-3.67-1.43-3.99s-.92-2.48-.92-2.48l-.29-9.69-1.33,7.12s-.74,1.93-1.33,2.34c-.59.41-1.12,9.41-1.12,9.41,0,0,1.27,5.14,1.86,5.69,0,0,4.72,8.49,3.13,10.47,0,0,2.54-5.2.62-8.94Z"/><rect class="cls-6" x="67.99" y="0" width="11.99" height="112"/><path class="cls-1" d="m75.24,99.78c-.36-.7,2.36-5.02,2.95-7.41s-.74-5.42-.74-5.42c.66,1.01,0,3.63,0,3.63,0,0-1.33,7.12-3.39,6.89s-2.87-6.06-2.87-6.06c0,0-.11-3.06.48-4.76.25-.72.62-1.19,1.17-1.11,1.88.28,2.54,4.82,2.54,4.82,0,0-.66,1.65-1.25,1.84s-.88-.64-.88-.64c0,0-.29,1.42,1.36,1.42s1.43-3.12,1.43-3.12c0,0-.44-3.67-1.43-3.99s-.92-2.48-.92-2.48l-.29-9.69-1.33,7.12s-.74,1.93-1.33,2.34c-.59.41-1.12,9.41-1.12,9.41,0,0,1.27,5.14,1.86,5.69,0,0,4.72,8.49,3.13,10.47,0,0,2.54-5.2.62-8.94Z"/><path class="cls-1" d="m75.24,29.37c-.36-.7,2.36-5.02,2.95-7.41s-.74-5.42-.74-5.42c.66,1.01,0,3.63,0,3.63,0,0-1.33,7.12-3.39,6.89s-2.87-6.06-2.87-6.06c0,0-.11-3.06.48-4.76.25-.72.62-1.19,1.17-1.11,1.88.28,2.54,4.82,2.54,4.82,0,0-.66,1.65-1.25,1.84s-.88-.64-.88-.64c0,0-.29,1.42,1.36,1.42s1.43-3.12,1.43-3.12c0,0-.44-3.67-1.43-3.99s-.92-2.48-.92-2.48l-.29-9.69-1.33,7.12s-.74,1.93-1.33,2.34c-.59.41-1.12,9.41-1.12,9.41,0,0,1.27,5.14,1.86,5.69,0,0,4.72,8.49,3.13,10.47,0,0,2.54-5.2.62-8.94Z"/><path class="cls-1" d="m75.24,64.58c-.36-.7,2.36-5.02,2.95-7.41s-.74-5.42-.74-5.42c.66,1.01,0,3.63,0,3.63,0,0-1.33,7.12-3.39,6.89s-2.87-6.06-2.87-6.06c0,0-.11-3.06.48-4.76.25-.72.62-1.19,1.17-1.11,1.88.28,2.54,4.82,2.54,4.82,0,0-.66,1.65-1.25,1.84s-.88-.64-.88-.64c0,0-.29,1.42,1.36,1.42s1.43-3.12,1.43-3.12c0,0-.44-3.67-1.43-3.99s-.92-2.48-.92-2.48l-.29-9.69-1.33,7.12s-.74,1.93-1.33,2.34c-.59.41-1.12,9.41-1.12,9.41,0,0,1.27,5.14,1.86,5.69,0,0,4.72,8.49,3.13,10.47,0,0,2.54-5.2.62-8.94Z"/><rect class="cls-1" x="103.96" y="0" width="11.99" height="112"/><path class="cls-6" d="m111.22,99.78c-.36-.7,2.36-5.02,2.95-7.41s-.74-5.42-.74-5.42c.66,1.01,0,3.63,0,3.63,0,0-1.33,7.12-3.39,6.89s-2.87-6.06-2.87-6.06c0,0-.11-3.06.48-4.76.25-.72.62-1.19,1.17-1.11,1.88.28,2.54,4.82,2.54,4.82,0,0-.66,1.65-1.25,1.84s-.88-.64-.88-.64c0,0-.29,1.42,1.36,1.42s1.43-3.12,1.43-3.12c0,0-.44-3.67-1.43-3.99s-.92-2.48-.92-2.48l-.29-9.69-1.33,7.12s-.74,1.93-1.33,2.34c-.59.41-1.12,9.41-1.12,9.41,0,0,1.27,5.14,1.86,5.69,0,0,4.72,8.49,3.13,10.47,0,0,2.54-5.2.62-8.94Z"/><path class="cls-6" d="m111.22,29.37c-.36-.7,2.36-5.02,2.95-7.41s-.74-5.42-.74-5.42c.66,1.01,0,3.63,0,3.63,0,0-1.33,7.12-3.39,6.89s-2.87-6.06-2.87-6.06c0,0-.11-3.06.48-4.76.25-.72.62-1.19,1.17-1.11,1.88.28,2.54,4.82,2.54,4.82,0,0-.66,1.65-1.25,1.84s-.88-.64-.88-.64c0,0-.29,1.42,1.36,1.42s1.43-3.12,1.43-3.12c0,0-.44-3.67-1.43-3.99s-.92-2.48-.92-2.48l-.29-9.69-1.33,7.12s-.74,1.93-1.33,2.34c-.59.41-1.12,9.41-1.12,9.41,0,0,1.27,5.14,1.86,5.69,0,0,4.72,8.49,3.13,10.47,0,0,2.54-5.2.62-8.94Z"/><path class="cls-6" d="m111.22,64.58c-.36-.7,2.36-5.02,2.95-7.41s-.74-5.42-.74-5.42c.66,1.01,0,3.63,0,3.63,0,0-1.33,7.12-3.39,6.89s-2.87-6.06-2.87-6.06c0,0-.11-3.06.48-4.76.25-.72.62-1.19,1.17-1.11,1.88.28,2.54,4.82,2.54,4.82,0,0-.66,1.65-1.25,1.84s-.88-.64-.88-.64c0,0-.29,1.42,1.36,1.42s1.43-3.12,1.43-3.12c0,0-.44-3.67-1.43-3.99s-.92-2.48-.92-2.48l-.29-9.69-1.33,7.12s-.74,1.93-1.33,2.34c-.59.41-1.12,9.41-1.12,9.41,0,0,1.27,5.14,1.86,5.69,0,0,4.72,8.49,3.13,10.47,0,0,2.54-5.2.62-8.94Z"/><rect class="cls-6" x="91.97" y="0" width="11.99" height="112"/><path class="cls-1" d="m99.23,99.78c-.36-.7,2.36-5.02,2.95-7.41s-.74-5.42-.74-5.42c.66,1.01,0,3.63,0,3.63,0,0-1.33,7.12-3.39,6.89s-2.87-6.06-2.87-6.06c0,0-.11-3.06.48-4.76.25-.72.62-1.19,1.17-1.11,1.88.28,2.54,4.82,2.54,4.82,0,0-.66,1.65-1.25,1.84s-.88-.64-.88-.64c0,0-.29,1.42,1.36,1.42s1.43-3.12,1.43-3.12c0,0-.44-3.67-1.43-3.99s-.92-2.48-.92-2.48l-.29-9.69-1.33,7.12s-.74,1.93-1.33,2.34c-.59.41-1.12,9.41-1.12,9.41,0,0,1.27,5.14,1.86,5.69,0,0,4.72,8.49,3.13,10.47,0,0,2.54-5.2.62-8.94Z"/><path class="cls-1" d="m99.23,29.37c-.36-.7,2.36-5.02,2.95-7.41s-.74-5.42-.74-5.42c.66,1.01,0,3.63,0,3.63,0,0-1.33,7.12-3.39,6.89s-2.87-6.06-2.87-6.06c0,0-.11-3.06.48-4.76.25-.72.62-1.19,1.17-1.11,1.88.28,2.54,4.82,2.54,4.82,0,0-.66,1.65-1.25,1.84s-.88-.64-.88-.64c0,0-.29,1.42,1.36,1.42s1.43-3.12,1.43-3.12c0,0-.44-3.67-1.43-3.99s-.92-2.48-.92-2.48l-.29-9.69-1.33,7.12s-.74,1.93-1.33,2.34c-.59.41-1.12,9.41-1.12,9.41,0,0,1.27,5.14,1.86,5.69,0,0,4.72,8.49,3.13,10.47,0,0,2.54-5.2.62-8.94Z"/><path class="cls-1" d="m99.23,64.58c-.36-.7,2.36-5.02,2.95-7.41s-.74-5.42-.74-5.42c.66,1.01,0,3.63,0,3.63,0,0-1.33,7.12-3.39,6.89s-2.87-6.06-2.87-6.06c0,0-.11-3.06.48-4.76.25-.72.62-1.19,1.17-1.11,1.88.28,2.54,4.82,2.54,4.82,0,0-.66,1.65-1.25,1.84s-.88-.64-.88-.64c0,0-.29,1.42,1.36,1.42s1.43-3.12,1.43-3.12c0,0-.44-3.67-1.43-3.99s-.92-2.48-.92-2.48l-.29-9.69-1.33,7.12s-.74,1.93-1.33,2.34c-.59.41-1.12,9.41-1.12,9.41,0,0,1.27,5.14,1.86,5.69,0,0,4.72,8.49,3.13,10.47,0,0,2.54-5.2.62-8.94Z"/></g></g><path class="cls-2" d="m73.58,21h17.42v15.09s-56.3,30.29-70,54.91c0,0,34.97-54.41,52.58-70Z"/></g></svg>