<?xml version="1.0" encoding="UTF-8"?><svg id="Layer_2" xmlns="http://www.w3.org/2000/svg" xmlns:xlink="http://www.w3.org/1999/xlink" viewBox="0 0 1932 1092"><defs><style>.cls-1{fill:#3f230e;}.cls-2{clip-path:url(#clippath);}.cls-3{fill:none;}.cls-4{fill:#76431f;}</style><clipPath id="clippath"><rect class="cls-3" width="1932" height="1092"/></clipPath></defs><g id="Layer_1-2"><g class="cls-2"><rect class="cls-1" x="30.71" width="116.91" height="1092"/><path class="cls-4" d="m101.43,972.86c-3.49-6.81,22.98-48.93,28.72-72.21,5.74-23.27-7.18-52.82-7.18-52.82,6.46,9.85,0,35.36,0,35.36,0,0-12.93,69.38-33.03,67.14-20.11-2.24-28.01-59.08-28.01-59.08,0,0-1.07-29.8,4.7-46.44,2.42-6.97,6.03-11.64,11.43-10.85,18.28,2.69,24.8,47,24.8,47,0,0-6.46,16.11-12.21,17.9-5.74,1.79-8.62-6.27-8.62-6.27,0,0-2.87,13.88,13.3,13.88s13.99-30.44,13.99-30.44c0,0-4.31-35.81-13.99-38.94-9.68-3.13-8.99-24.17-8.99-24.17l-2.87-94.44-12.93,69.38s-7.18,18.8-12.93,22.83c-5.74,4.03-10.92,91.77-10.92,91.77,0,0,12.36,50.11,18.11,55.49,0,0,45.99,82.8,30.53,102.05,0,0,24.76-50.74,6.09-87.14Z"/><path class="cls-4" d="m101.43,286.37c-3.49-6.81,22.98-48.93,28.72-72.21,5.74-23.27-7.18-52.82-7.18-52.82,6.46,9.85,0,35.36,0,35.36,0,0-12.93,69.38-33.03,67.14-20.11-2.24-28.01-59.08-28.01-59.08,0,0-1.07-29.8,4.7-46.44,2.42-6.97,6.03-11.64,11.43-10.85,18.28,2.69,24.8,47,24.8,47,0,0-6.46,16.11-12.21,17.9-5.74,1.79-8.62-6.27-8.62-6.27,0,0-2.87,13.88,13.3,13.88s13.99-30.44,13.99-30.44c0,0-4.31-35.81-13.99-38.94-9.68-3.13-8.99-24.17-8.99-24.17l-2.87-94.44-12.93,69.38s-7.18,18.8-12.93,22.83c-5.74,4.03-10.92,91.77-10.92,91.77,0,0,12.36,50.11,18.11,55.49,0,0,45.99,82.8,30.53,102.05,0,0,24.76-50.74,6.09-87.14Z"/><path class="cls-4" d="m101.43,629.62c-3.49-6.81,22.98-48.93,28.72-72.21,5.74-23.27-7.18-52.82-7.18-52.82,6.46,9.85,0,35.36,0,35.36,0,0-12.93,69.38-33.03,67.14-20.11-2.24-28.01-59.08-28.01-59.08,0,0-1.07-29.8,4.7-46.44,2.42-6.97,6.03-11.64,11.43-10.85,18.28,2.69,24.8,47,24.8,47,0,0-6.46,16.11-12.21,17.9-5.74,1.79-8.62-6.27-8.62-6.27,0,0-2.87,13.88,13.3,13.88s13.99-30.44,13.99-30.44c0,0-4.31-35.81-13.99-38.94-9.68-3.13-8.99-24.17-8.99-24.17l-2.87-94.44-12.93,69.38s-7.18,18.8-12.93,22.83c-5.74,4.03-10.92,91.77-10.92,91.77,0,0,12.36,50.11,18.11,55.49,0,0,45.99,82.8,30.53,102.05,0,0,24.76-50.74,6.09-87.14Z"/><rect class="cls-4" x="-86.2" width="116.91" height="1092"/><path class="cls-1" d="m-15.48,972.86c-3.49-6.81,22.98-48.93,28.72-72.21,5.74-23.27-7.18-52.82-7.18-52.82,6.46,9.85,0,35.36,0,35.36,0,0-12.93,69.38-33.03,67.14-20.11-2.24-28.01-59.08-28.01-59.08,0,0-1.07-29.8,4.7-46.44,2.42-6.97,6.03-11.64,11.43-10.85,18.28,2.69,24.8,47,24.8,47,0,0-6.46,16.11-12.21,17.9-5.74,1.79-8.62-6.27-8.62-6.27,0,0-2.87,13.88,13.3,13.88s13.99-30.44,13.99-30.44c0,0-4.31-35.81-13.99-38.94-9.68-3.13-8.99-24.17-8.99-24.17l-2.87-94.44-12.93,69.38s-7.18,18.8-12.93,22.83c-5.74,4.03-10.92,91.77-10.92,91.77,0,0,12.36,50.11,18.11,55.49,0,0,45.99,82.8,30.53,102.05,0,0,24.76-50.74,6.09-87.14Z"/><path class="cls-1" d="m-15.48,286.37c-3.49-6.81,22.98-48.93,28.72-72.21,5.74-23.27-7.18-52.82-7.18-52.82,6.46,9.85,0,35.36,0,35.36,0,0-12.93,69.38-33.03,67.14-20.11-2.24-28.01-59.08-28.01-59.08,0,0-1.07-29.8,4.7-46.44,2.42-6.97,6.03-11.64,11.43-10.85,18.28,2.69,24.8,47,24.8,47,0,0-6.46,16.11-12.21,17.9s-8.62-6.27-8.62-6.27c0,0-2.87,13.88,13.3,13.88s13.99-30.44,13.99-30.44c0,0-4.31-35.81-13.99-38.94-9.68-3.13-8.99-24.17-8.99-24.17l-2.87-94.44-12.93,69.38s-7.18,18.8-12.93,22.83c-5.74,4.03-10.92,91.77-10.92,91.77,0,0,12.36,50.11,18.11,55.49,0,0,45.99,82.8,30.53,102.05,0,0,24.76-50.74,6.09-87.14Z"/><path class="cls-1" d="m-15.48,629.62c-3.49-6.81,22.98-48.93,28.72-72.21,5.74-23.27-7.18-52.82-7.18-52.82,6.46,9.85,0,35.36,0,35.36,0,0-12.93,69.38-33.03,67.14-20.11-2.24-28.01-59.08-28.01-59.08,0,0-1.07-29.8,4.7-46.44,2.42-6.97,6.03-11.64,11.43-10.85,18.28,2.69,24.8,47,24.8,47,0,0-6.46,16.11-12.21,17.9s-8.62-6.27-8.62-6.27c0,0-2.87,13.88,13.3,13.88s13.99-30.44,13.99-30.44c0,0-4.31-35.81-13.99-38.94-9.68-3.13-8.99-24.17-8.99-24.17l-2.87-94.44-12.93,69.38s-7.18,18.8-12.93,22.83c-5.74,4.03-10.92,91.77-10.92,91.77,0,0,12.36,50.11,18.11,55.49,0,0,45.99,82.8,30.53,102.05,0,0,24.76-50.74,6.09-87.14Z"/><rect class="cls-1" x="264.53" width="116.91" height="1092"/><path class="cls-4" d="m335.25,972.86c-3.49-6.81,22.98-48.93,28.72-72.21,5.74-23.27-7.18-52.82-7.18-52.82,6.46,9.85,0,35.36,0,35.36,0,0-12.93,69.38-33.03,67.14-20.11-2.24-28.01-59.08-28.01-59.08,0,0-1.07-29.8,4.7-46.44,2.42-6.97,6.03-11.64,11.43-10.85,18.28,2.69,24.8,47,24.8,47,0,0-6.46,16.11-12.21,17.9-5.74,1.79-8.62-6.27-8.62-6.27,0,0-2.87,13.88,13.3,13.88s13.99-30.44,13.99-30.44c0,0-4.31-35.81-13.99-38.94-9.68-3.13-8.99-24.17-8.99-24.17l-2.87-94.44-12.93,69.38s-7.18,18.8-12.93,22.83c-5.74,4.03-10.92,91.77-10.92,91.77,0,0,12.36,50.11,18.11,55.49,0,0,45.99,82.8,30.53,102.05,0,0,24.76-50.74,6.09-87.14Z"/><path class="cls-4" d="m335.25,286.37c-3.49-6.81,22.98-48.93,28.72-72.21,5.74-23.27-7.18-52.82-7.18-52.82,6.46,9.85,0,35.36,0,35.36,0,0-12.93,69.38-33.03,67.14-20.11-2.24-28.01-59.08-28.01-59.08,0,0-1.07-29.8,4.7-46.44,2.42-6.97,6.03-11.64,11.43-10.85,18.28,2.69,24.8,47,24.8,47,0,0-6.46,16.11-12.21,17.9-5.74,1.79-8.62-6.27-8.62-6.27,0,0-2.87,13.88,13.3,13.88s13.99-30.44,13.99-30.44c0,0-4.31-35.81-13.99-38.94-9.68-3.13-8.99-24.17-8.99-24.17l-2.87-94.44-12.93,69.38s-7.18,18.8-12.93,22.83c-5.74,4.03-10.92,91.77-10.92,91.77,0,0,12.36,50.11,18.11,55.49,0,0,45.99,82.8,30.53,102.05,0,0,24.76-50.74,6.09-87.14Z"/><path class="cls-4" d="m335.25,629.62c-3.49-6.81,22.98-48.93,28.72-72.21,5.74-23.27-7.18-52.82-7.18-52.82,6.46,9.85,0,35.36,0,35.36,0,0-12.93,69.38-33.03,67.14-20.11-2.24-28.01-59.08-28.01-59.08,0,0-1.07-29.8,4.7-46.44,2.42-6.97,6.03-11.64,11.43-10.85,18.28,2.69,24.8,47,24.8,47,0,0-6.46,16.11-12.21,17.9-5.74,1.79-8.62-6.27-8.62-6.27,0,0-2.87,13.88,13.3,13.88s13.99-30.44,13.99-30.44c0,0-4.31-35.81-13.99-38.94-9.68-3.13-8.99-24.17-8.99-24.17l-2.87-94.44-12.93,69.38s-7.18,18.8-12.93,22.83c-5.74,4.03-10.92,91.77-10.92,91.77,0,0,12.36,50.11,18.11,55.49,0,0,45.99,82.8,30.53,102.05,0,0,24.76-50.74,6.09-87.14Z"/><rect class="cls-4" x="147.62" width="116.91" height="1092"/><path class="cls-1" d="m218.34,972.86c-3.49-6.81,22.98-48.93,28.72-72.21,5.74-23.27-7.18-52.82-7.18-52.82,6.46,9.85,0,35.36,0,35.36,0,0-12.93,69.38-33.03,67.14-20.11-2.24-28.01-59.08-28.01-59.08,0,0-1.07-29.8,4.7-46.44,2.42-6.97,6.03-11.64,11.43-10.85,18.28,2.69,24.8,47,24.8,47,0,0-6.46,16.11-12.21,17.9-5.74,1.79-8.62-6.27-8.62-6.27,0,0-2.87,13.88,13.3,13.88s13.99-30.44,13.99-30.44c0,0-4.31-35.81-13.99-38.94-9.68-3.13-8.99-24.17-8.99-24.17l-2.87-94.44-12.93,69.38s-7.18,18.8-12.93,22.83c-5.74,4.03-10.92,91.77-10.92,91.77,0,0,12.36,50.11,18.11,55.49,0,0,45.99,82.8,30.53,102.05,0,0,24.76-50.74,6.09-87.14Z"/><path class="cls-1" d="m218.34,286.37c-3.49-6.81,22.98-48.93,28.72-72.21,5.74-23.27-7.18-52.82-7.18-52.82,6.46,9.85,0,35.36,0,35.36,0,0-12.93,69.38-33.03,67.14-20.11-2.24-28.01-59.08-28.01-59.08,0,0-1.07-29.8,4.7-46.44,2.42-6.97,6.03-11.64,11.43-10.85,18.28,2.69,24.8,47,24.8,47,0,0-6.46,16.11-12.21,17.9s-8.62-6.27-8.62-6.27c0,0-2.87,13.88,13.3,13.88s13.99-30.44,13.99-30.44c0,0-4.31-35.81-13.99-38.94-9.68-3.13-8.99-24.17-8.99-24.17l-2.87-94.44-12.93,69.38s-7.18,18.8-12.93,22.83c-5.74,4.03-10.92,91.77-10.92,91.77,0,0,12.36,50.11,18.11,55.49,0,0,45.99,82.8,30.53,102.05,0,0,24.76-50.74,6.09-87.14Z"/><path class="cls-1" d="m218.34,629.62c-3.49-6.81,22.98-48.93,28.72-72.21,5.74-23.27-7.18-52.82-7.18-52.82,6.46,9.85,0,35.36,0,35.36,0,0-12.93,69.38-33.03,67.14-20.11-2.24-28.01-59.08-28.01-59.08,0,0-1.07-29.8,4.7-46.44,2.42-6.97,6.03-11.64,11.43-10.85,18.28,2.69,24.8,47,24.8,47,0,0-6.46,16.11-12.21,17.9s-8.62-6.27-8.62-6.27c0,0-2.87,13.88,13.3,13.88s13.99-30.44,13.99-30.44c0,0-4.31-35.81-13.99-38.94-9.68-3.13-8.99-24.17-8.99-24.17l-2.87-94.44-12.93,69.38s-7.18,18.8-12.93,22.83c-5.74,4.03-10.92,91.77-10.92,91.77,0,0,12.36,50.11,18.11,55.49,0,0,45.99,82.8,30.53,102.05,0,0,24.76-50.74,6.09-87.14Z"/><rect class="cls-1" x="498.35" width="116.91" height="1092"/><path class="cls-4" d="m569.08,972.86c-3.49-6.81,22.98-48.93,28.72-72.21,5.74-23.27-7.18-52.82-7.18-52.82,6.46,9.85,0,35.36,0,35.36,0,0-12.93,69.38-33.03,67.14-20.11-2.24-28.01-59.08-28.01-59.08,0,0-1.07-29.8,4.7-46.44,2.42-6.97,6.03-11.64,11.43-10.85,18.28,2.69,24.8,47,24.8,47,0,0-6.46,16.11-12.21,17.9-5.74,1.79-8.62-6.27-8.62-6.27,0,0-2.87,13.88,13.3,13.88s13.99-30.44,13.99-30.44c0,0-4.31-35.81-13.99-38.94-9.68-3.13-8.99-24.17-8.99-24.17l-2.87-94.44-12.93,69.38s-7.18,18.8-12.93,22.83c-5.74,4.03-10.92,91.77-10.92,91.77,0,0,12.36,50.11,18.11,55.49,0,0,45.99,82.8,30.53,102.05,0,0,24.76-50.74,6.09-87.14Z"/><path class="cls-4" d="m569.08,286.37c-3.49-6.81,22.98-48.93,28.72-72.21,5.74-23.27-7.18-52.82-7.18-52.82,6.46,9.85,0,35.36,0,35.36,0,0-12.93,69.38-33.03,67.14-20.11-2.24-28.01-59.08-28.01-59.08,0,0-1.07-29.8,4.7-46.44,2.42-6.97,6.03-11.64,11.43-10.85,18.28,2.69,24.8,47,24.8,47,0,0-6.46,16.11-12.21,17.9-5.74,1.79-8.62-6.27-8.62-6.27,0,0-2.87,13.88,13.3,13.88s13.99-30.44,13.99-30.44c0,0-4.31-35.81-13.99-38.94-9.68-3.13-8.99-24.17-8.99-24.17l-2.87-94.44-12.93,69.38s-7.18,18.8-12.93,22.83c-5.74,4.03-10.92,91.77-10.92,91.77,0,0,12.36,50.11,18.11,55.49,0,0,45.99,82.8,30.53,102.05,0,0,24.76-50.74,6.09-87.14Z"/><path class="cls-4" d="m569.08,629.62c-3.49-6.81,22.98-48.93,28.72-72.21,5.74-23.27-7.18-52.82-7.18-52.82,6.46,9.85,0,35.36,0,35.36,0,0-12.93,69.38-33.03,67.14-20.11-2.24-28.01-59.08-28.01-59.08,0,0-1.07-29.8,4.7-46.44,2.42-6.97,6.03-11.64,11.43-10.85,18.28,2.69,24.8,47,24.8,47,0,0-6.46,16.11-12.21,17.9-5.74,1.79-8.62-6.27-8.62-6.27,0,0-2.87,13.88,13.3,13.88s13.99-30.44,13.99-30.44c0,0-4.31-35.81-13.99-38.94-9.68-3.13-8.99-24.17-8.99-24.17l-2.87-94.44-12.93,69.38s-7.18,18.8-12.93,22.83c-5.74,4.03-10.92,91.77-10.92,91.77,0,0,12.36,50.11,18.11,55.49,0,0,45.99,82.8,30.53,102.05,0,0,24.76-50.74,6.09-87.14Z"/><rect class="cls-4" x="381.44" width="116.91" height="1092"/><path class="cls-1" d="m452.17,972.86c-3.49-6.81,22.98-48.93,28.72-72.21,5.74-23.27-7.18-52.82-7.18-52.82,6.46,9.85,0,35.36,0,35.36,0,0-12.93,69.38-33.03,67.14-20.11-2.24-28.01-59.08-28.01-59.08,0,0-1.07-29.8,4.7-46.44,2.42-6.97,6.03-11.64,11.43-10.85,18.28,2.69,24.8,47,24.8,47,0,0-6.46,16.11-12.21,17.9-5.74,1.79-8.62-6.27-8.62-6.27,0,0-2.87,13.88,13.3,13.88s13.99-30.44,13.99-30.44c0,0-4.31-35.81-13.99-38.94-9.68-3.13-8.99-24.17-8.99-24.17l-2.87-94.44-12.93,69.38s-7.18,18.8-12.93,22.83c-5.74,4.03-10.92,91.77-10.92,91.77,0,0,12.36,50.11,18.11,55.49,0,0,45.99,82.8,30.53,102.05,0,0,24.76-50.74,6.09-87.14Z"/><path class="cls-1" d="m452.17,286.37c-3.49-6.81,22.98-48.93,28.72-72.21,5.74-23.27-7.18-52.82-7.18-52.82,6.46,9.85,0,35.36,0,35.36,0,0-12.93,69.38-33.03,67.14-20.11-2.24-28.01-59.08-28.01-59.08,0,0-1.07-29.8,4.7-46.44,2.42-6.97,6.03-11.64,11.43-10.85,18.28,2.69,24.8,47,24.8,47,0,0-6.46,16.11-12.21,17.9s-8.62-6.27-8.62-6.27c0,0-2.87,13.88,13.3,13.88s13.99-30.44,13.99-30.44c0,0-4.31-35.81-13.99-38.94-9.68-3.13-8.99-24.17-8.99-24.17l-2.87-94.44-12.93,69.38s-7.18,18.8-12.93,22.83c-5.74,4.03-10.92,91.77-10.92,91.77,0,0,12.36,50.11,18.11,55.49,0,0,45.99,82.8,30.53,102.05,0,0,24.76-50.74,6.09-87.14Z"/><path class="cls-1" d="m452.17,629.62c-3.49-6.81,22.98-48.93,28.72-72.21,5.74-23.27-7.18-52.82-7.18-52.82,6.46,9.85,0,35.36,0,35.36,0,0-12.93,69.38-33.03,67.14-20.11-2.24-28.01-59.08-28.01-59.08,0,0-1.07-29.8,4.7-46.44,2.42-6.97,6.03-11.64,11.43-10.85,18.28,2.69,24.8,47,24.8,47,0,0-6.46,16.11-12.21,17.9s-8.62-6.27-8.62-6.27c0,0-2.87,13.88,13.3,13.88s13.99-30.44,13.99-30.44c0,0-4.31-35.81-13.99-38.94-9.68-3.13-8.99-24.17-8.99-24.17l-2.87-94.44-12.93,69.38s-7.18,18.8-12.93,22.83c-5.74,4.03-10.92,91.77-10.92,91.77,0,0,12.36,50.11,18.11,55.49,0,0,45.99,82.8,30.53,102.05,0,0,24.76-50.74,6.09-87.14Z"/><rect class="cls-1" x="732.18" width="116.91" height="1092"/><path class="cls-4" d="m802.9,972.86c-3.49-6.81,22.98-48.93,28.72-72.21,5.74-23.27-7.18-52.82-7.18-52.82,6.46,9.85,0,35.36,0,35.36,0,0-12.93,69.38-33.03,67.14-20.11-2.24-28.01-59.08-28.01-59.08,0,0-1.07-29.8,4.7-46.44,2.42-6.97,6.03-11.64,11.43-10.85,18.28,2.69,24.8,47,24.8,47,0,0-6.46,16.11-12.21,17.9-5.74,1.79-8.62-6.27-8.62-6.27,0,0-2.87,13.88,13.3,13.88s13.99-30.44,13.99-30.44c0,0-4.31-35.81-13.99-38.94-9.68-3.13-8.99-24.17-8.99-24.17l-2.87-94.44-12.93,69.38s-7.18,18.8-12.93,22.83c-5.74,4.03-10.92,91.77-10.92,91.77,0,0,12.36,50.11,18.11,55.49,0,0,45.99,82.8,30.53,102.05,0,0,24.76-50.74,6.09-87.14Z"/><path class="cls-4" d="m802.9,286.37c-3.49-6.81,22.98-48.93,28.72-72.21,5.74-23.27-7.18-52.82-7.18-52.82,6.46,9.85,0,35.36,0,35.36,0,0-12.93,69.38-33.03,67.14-20.11-2.24-28.01-59.08-28.01-59.08,0,0-1.07-29.8,4.7-46.44,2.42-6.97,6.03-11.64,11.43-10.85,18.28,2.69,24.8,47,24.8,47,0,0-6.46,16.11-12.21,17.9-5.74,1.79-8.62-6.27-8.62-6.27,0,0-2.87,13.88,13.3,13.88s13.99-30.44,13.99-30.44c0,0-4.31-35.81-13.99-38.94-9.68-3.13-8.99-24.17-8.99-24.17l-2.87-94.44-12.93,69.38s-7.18,18.8-12.93,22.83c-5.74,4.03-10.92,91.77-10.92,91.77,0,0,12.36,50.11,18.11,55.49,0,0,45.99,82.8,30.53,102.05,0,0,24.76-50.74,6.09-87.14Z"/><path class="cls-4" d="m802.9,629.62c-3.49-6.81,22.98-48.93,28.72-72.21,5.74-23.27-7.18-52.82-7.18-52.82,6.46,9.85,0,35.36,0,35.36,0,0-12.93,69.38-33.03,67.14-20.11-2.24-28.01-59.08-28.01-59.08,0,0-1.07-29.8,4.7-46.44,2.42-6.97,6.03-11.64,11.43-10.85,18.28,2.69,24.8,47,24.8,47,0,0-6.46,16.11-12.21,17.9-5.74,1.79-8.62-6.27-8.62-6.27,0,0-2.87,13.88,13.3,13.88s13.99-30.44,13.99-30.44c0,0-4.31-35.81-13.99-38.94-9.68-3.13-8.99-24.17-8.99-24.17l-2.87-94.44-12.93,69.38s-7.18,18.8-12.93,22.83c-5.74,4.03-10.92,91.77-10.92,91.77,0,0,12.36,50.11,18.11,55.49,0,0,45.99,82.8,30.53,102.05,0,0,24.76-50.74,6.09-87.14Z"/><rect class="cls-4" x="615.27" width="116.91" height="1092"/><path class="cls-1" d="m685.99,972.86c-3.49-6.81,22.98-48.93,28.72-72.21,5.74-23.27-7.18-52.82-7.18-52.82,6.46,9.85,0,35.36,0,35.36,0,0-12.93,69.38-33.03,67.14-20.11-2.24-28.01-59.08-28.01-59.08,0,0-1.07-29.8,4.7-46.44,2.42-6.97,6.03-11.64,11.43-10.85,18.28,2.69,24.8,47,24.8,47,0,0-6.46,16.11-12.21,17.9-5.74,1.79-8.62-6.27-8.62-6.27,0,0-2.87,13.88,13.3,13.88s13.99-30.44,13.99-30.44c0,0-4.31-35.81-13.99-38.94-9.68-3.13-8.99-24.17-8.99-24.17l-2.87-94.44-12.93,69.38s-7.18,18.8-12.93,22.83c-5.74,4.03-10.92,91.77-10.92,91.77,0,0,12.36,50.11,18.11,55.49,0,0,45.99,82.8,30.53,102.05,0,0,24.76-50.74,6.09-87.14Z"/><path class="cls-1" d="m685.99,286.37c-3.49-6.81,22.98-48.93,28.72-72.21,5.74-23.27-7.18-52.82-7.18-52.82,6.46,9.85,0,35.36,0,35.36,0,0-12.93,69.38-33.03,67.14-20.11-2.24-28.01-59.08-28.01-59.08,0,0-1.07-29.8,4.7-46.44,2.42-6.97,6.03-11.64,11.43-10.85,18.28,2.69,24.8,47,24.8,47,0,0-6.46,16.11-12.21,17.9-5.74,1.79-8.62-6.27-8.62-6.27,0,0-2.87,13.88,13.3,13.88s13.99-30.44,13.99-30.44c0,0-4.31-35.81-13.99-38.94-9.68-3.13-8.99-24.17-8.99-24.17l-2.87-94.44-12.93,69.38s-7.18,18.8-12.93,22.83c-5.74,4.03-10.92,91.77-10.92,91.77,0,0,12.36,50.11,18.11,55.49,0,0,45.99,82.8,30.53,102.05,0,0,24.76-50.74,6.09-87.14Z"/><path class="cls-1" d="m685.99,629.62c-3.49-6.81,22.98-48.93,28.72-72.21,5.74-23.27-7.18-52.82-7.18-52.82,6.46,9.85,0,35.36,0,35.36,0,0-12.93,69.38-33.03,67.14-20.11-2.24-28.01-59.08-28.01-59.08,0,0-1.07-29.8,4.7-46.44,2.42-6.97,6.03-11.64,11.43-10.85,18.28,2.69,24.8,47,24.8,47,0,0-6.46,16.11-12.21,17.9-5.74,1.79-8.62-6.27-8.62-6.27,0,0-2.87,13.88,13.3,13.88s13.99-30.44,13.99-30.44c0,0-4.31-35.81-13.99-38.94-9.68-3.13-8.99-24.17-8.99-24.17l-2.87-94.44-12.93,69.38s-7.18,18.8-12.93,22.83c-5.74,4.03-10.92,91.77-10.92,91.77,0,0,12.36,50.11,18.11,55.49,0,0,45.99,82.8,30.53,102.05,0,0,24.76-50.74,6.09-87.14Z"/><rect class="cls-1" x="966" width="116.91" height="1092"/><path class="cls-4" d="m1036.72,972.86c-3.49-6.81,22.98-48.93,28.72-72.21,5.74-23.27-7.18-52.82-7.18-52.82,6.46,9.85,0,35.36,0,35.36,0,0-12.93,69.38-33.03,67.14-20.11-2.24-28.01-59.08-28.01-59.08,0,0-1.07-29.8,4.7-46.44,2.42-6.97,6.03-11.64,11.43-10.85,18.28,2.69,24.8,47,24.8,47,0,0-6.46,16.11-12.21,17.9-5.74,1.79-8.62-6.27-8.62-6.27,0,0-2.87,13.88,13.3,13.88s13.99-30.44,13.99-30.44c0,0-4.31-35.81-13.99-38.94-9.68-3.13-8.99-24.17-8.99-24.17l-2.87-94.44-12.93,69.38s-7.18,18.8-12.93,22.83c-5.74,4.03-10.92,91.77-10.92,91.77,0,0,12.36,50.11,18.11,55.49,0,0,45.99,82.8,30.53,102.05,0,0,24.76-50.74,6.09-87.14Z"/><path class="cls-4" d="m1036.72,286.37c-3.49-6.81,22.98-48.93,28.72-72.21,5.74-23.27-7.18-52.82-7.18-52.82,6.46,9.85,0,35.36,0,35.36,0,0-12.93,69.38-33.03,67.14-20.11-2.24-28.01-59.08-28.01-59.08,0,0-1.07-29.8,4.7-46.44,2.42-6.97,6.03-11.64,11.43-10.85,18.28,2.69,24.8,47,24.8,47,0,0-6.46,16.11-12.21,17.9-5.74,1.79-8.62-6.27-8.62-6.27,0,0-2.87,13.88,13.3,13.88s13.99-30.44,13.99-30.44c0,0-4.31-35.81-13.99-38.94-9.68-3.13-8.99-24.17-8.99-24.17l-2.87-94.44-12.93,69.38s-7.18,18.8-12.93,22.83c-5.74,4.03-10.92,91.77-10.92,91.77,0,0,12.36,50.11,18.11,55.49,0,0,45.99,82.8,30.53,102.05,0,0,24.76-50.74,6.09-87.14Z"/><path class="cls-4" d="m1036.72,629.62c-3.49-6.81,22.98-48.93,28.72-72.21,5.74-23.27-7.18-52.82-7.18-52.82,6.46,9.85,0,35.36,0,35.36,0,0-12.93,69.38-33.03,67.14-20.11-2.24-28.01-59.08-28.01-59.08,0,0-1.07-29.8,4.7-46.44,2.42-6.97,6.03-11.64,11.43-10.85,18.28,2.69,24.8,47,24.8,47,0,0-6.46,16.11-12.21,17.9-5.74,1.79-8.62-6.27-8.62-6.27,0,0-2.87,13.88,13.3,13.88s13.99-30.44,13.99-30.44c0,0-4.31-35.81-13.99-38.94-9.68-3.13-8.99-24.17-8.99-24.17l-2.87-94.44-12.93,69.38s-7.18,18.8-12.93,22.83c-5.74,4.03-10.92,91.77-10.92,91.77,0,0,12.36,50.11,18.11,55.49,0,0,45.99,82.8,30.53,102.05,0,0,24.76-50.74,6.09-87.14Z"/><rect class="cls-4" x="849.09" width="116.91" height="1092"/><path class="cls-1" d="m919.81,972.86c-3.49-6.81,22.98-48.93,28.72-72.21,5.74-23.27-7.18-52.82-7.18-52.82,6.46,9.85,0,35.36,0,35.36,0,0-12.93,69.38-33.03,67.14-20.11-2.24-28.01-59.08-28.01-59.08,0,0-1.07-29.8,4.7-46.44,2.42-6.97,6.03-11.64,11.43-10.85,18.28,2.69,24.8,47,24.8,47,0,0-6.46,16.11-12.21,17.9-5.74,1.79-8.62-6.27-8.62-6.27,0,0-2.87,13.88,13.3,13.88s13.99-30.44,13.99-30.44c0,0-4.31-35.81-13.99-38.94-9.68-3.13-8.99-24.17-8.99-24.17l-2.87-94.44-12.93,69.38s-7.18,18.8-12.93,22.83c-5.74,4.03-10.92,91.77-10.92,91.77,0,0,12.36,50.11,18.11,55.49,0,0,45.99,82.8,30.53,102.05,0,0,24.76-50.74,6.09-87.14Z"/><path class="cls-1" d="m919.81,286.37c-3.49-6.81,22.98-48.93,28.72-72.21,5.74-23.27-7.18-52.82-7.18-52.82,6.46,9.85,0,35.36,0,35.36,0,0-12.93,69.38-33.03,67.14-20.11-2.24-28.01-59.08-28.01-59.08,0,0-1.07-29.8,4.7-46.44,2.42-6.97,6.03-11.64,11.43-10.85,18.28,2.69,24.8,47,24.8,47,0,0-6.46,16.11-12.21,17.9s-8.62-6.27-8.62-6.27c0,0-2.87,13.88,13.3,13.88s13.99-30.44,13.99-30.44c0,0-4.31-35.81-13.99-38.94-9.68-3.13-8.99-24.17-8.99-24.17l-2.87-94.44-12.93,69.38s-7.18,18.8-12.93,22.83c-5.74,4.03-10.92,91.77-10.92,91.77,0,0,12.36,50.11,18.11,55.49,0,0,45.99,82.8,30.53,102.05,0,0,24.76-50.74,6.09-87.14Z"/><path class="cls-1" d="m919.81,629.62c-3.49-6.81,22.98-48.93,28.72-72.21,5.74-23.27-7.18-52.82-7.18-52.82,6.46,9.85,0,35.36,0,35.36,0,0-12.93,69.38-33.03,67.14-20.11-2.24-28.01-59.08-28.01-59.08,0,0-1.07-29.8,4.7-46.44,2.42-6.97,6.03-11.64,11.43-10.85,18.28,2.69,24.8,47,24.8,47,0,0-6.46,16.11-12.21,17.9s-8.62-6.27-8.62-6.27c0,0-2.87,13.88,13.3,13.88s13.99-30.44,13.99-30.44c0,0-4.31-35.81-13.99-38.94-9.68-3.13-8.99-24.17-8.99-24.17l-2.87-94.44-12.93,69.38s-7.18,18.8-12.93,22.83c-5.74,4.03-10.92,91.77-10.92,91.77,0,0,12.36,50.11,18.11,55.49,0,0,45.99,82.8,30.53,102.05,0,0,24.76-50.74,6.09-87.14Z"/><rect class="cls-1" x="1199.82" width="116.91" height="1092"/><path class="cls-4" d="m1270.54,972.86c-3.49-6.81,22.98-48.93,28.72-72.21,5.74-23.27-7.18-52.82-7.18-52.82,6.46,9.85,0,35.36,0,35.36,0,0-12.93,69.38-33.03,67.14-20.11-2.24-28.01-59.08-28.01-59.08,0,0-1.07-29.8,4.7-46.44,2.42-6.97,6.03-11.64,11.43-10.85,18.28,2.69,24.8,47,24.8,47,0,0-6.46,16.11-12.21,17.9-5.74,1.79-8.62-6.27-8.62-6.27,0,0-2.87,13.88,13.3,13.88s13.99-30.44,13.99-30.44c0,0-4.31-35.81-13.99-38.94-9.68-3.13-8.99-24.17-8.99-24.17l-2.87-94.44-12.93,69.38s-7.18,18.8-12.93,22.83c-5.74,4.03-10.92,91.77-10.92,91.77,0,0,12.36,50.11,18.11,55.49,0,0,45.99,82.8,30.53,102.05,0,0,24.76-50.74,6.09-87.14Z"/><path class="cls-4" d="m1270.54,286.37c-3.49-6.81,22.98-48.93,28.72-72.21,5.74-23.27-7.18-52.82-7.18-52.82,6.46,9.85,0,35.36,0,35.36,0,0-12.93,69.38-33.03,67.14-20.11-2.24-28.01-59.08-28.01-59.08,0,0-1.07-29.8,4.7-46.44,2.42-6.97,6.03-11.64,11.43-10.85,18.28,2.69,24.8,47,24.8,47,0,0-6.46,16.11-12.21,17.9-5.74,1.79-8.62-6.27-8.62-6.27,0,0-2.87,13.88,13.3,13.88s13.99-30.44,13.99-30.44c0,0-4.31-35.81-13.99-38.94-9.68-3.13-8.99-24.17-8.99-24.17l-2.87-94.44-12.93,69.38s-7.18,18.8-12.93,22.83c-5.74,4.03-10.92,91.77-10.92,91.77,0,0,12.36,50.11,18.11,55.49,0,0,45.99,82.8,30.53,102.05,0,0,24.76-50.74,6.09-87.14Z"/><path class="cls-4" d="m1270.54,629.62c-3.49-6.81,22.98-48.93,28.72-72.21,5.74-23.27-7.18-52.82-7.18-52.82,6.46,9.85,0,35.36,0,35.36,0,0-12.93,69.38-33.03,67.14-20.11-2.24-28.01-59.08-28.01-59.08,0,0-1.07-29.8,4.7-46.44,2.42-6.97,6.03-11.64,11.43-10.85,18.28,2.69,24.8,47,24.8,47,0,0-6.46,16.11-12.21,17.9-5.74,1.79-8.62-6.27-8.62-6.27,0,0-2.87,13.88,13.3,13.88s13.99-30.44,13.99-30.44c0,0-4.31-35.81-13.99-38.94-9.68-3.13-8.99-24.17-8.99-24.17l-2.87-94.44-12.93,69.38s-7.18,18.8-12.93,22.83c-5.74,4.03-10.92,91.77-10.92,91.77,0,0,12.36,50.11,18.11,55.49,0,0,45.99,82.8,30.53,102.05,0,0,24.76-50.74,6.09-87.14Z"/><rect class="cls-4" x="1082.91" width="116.91" height="1092"/><path class="cls-1" d="m1153.63,972.86c-3.49-6.81,22.98-48.93,28.72-72.21,5.74-23.27-7.18-52.82-7.18-52.82,6.46,9.85,0,35.36,0,35.36,0,0-12.93,69.38-33.03,67.14-20.11-2.24-28.01-59.08-28.01-59.08,0,0-1.07-29.8,4.7-46.44,2.42-6.97,6.03-11.64,11.43-10.85,18.28,2.69,24.8,47,24.8,47,0,0-6.46,16.11-12.21,17.9-5.74,1.79-8.62-6.27-8.62-6.27,0,0-2.87,13.88,13.3,13.88s13.99-30.44,13.99-30.44c0,0-4.31-35.81-13.99-38.94-9.68-3.13-8.99-24.17-8.99-24.17l-2.87-94.44-12.93,69.38s-7.18,18.8-12.93,22.83c-5.74,4.03-10.92,91.77-10.92,91.77,0,0,12.36,50.11,18.11,55.49,0,0,45.99,82.8,30.53,102.05,0,0,24.76-50.74,6.09-87.14Z"/><path class="cls-1" d="m1153.63,286.37c-3.49-6.81,22.98-48.93,28.72-72.21,5.74-23.27-7.18-52.82-7.18-52.82,6.46,9.85,0,35.36,0,35.36,0,0-12.93,69.38-33.03,67.14-20.11-2.24-28.01-59.08-28.01-59.08,0,0-1.07-29.8,4.7-46.44,2.42-6.97,6.03-11.64,11.43-10.85,18.28,2.69,24.8,47,24.8,47,0,0-6.46,16.11-12.21,17.9s-8.62-6.27-8.62-6.27c0,0-2.87,13.88,13.3,13.88s13.99-30.44,13.99-30.44c0,0-4.31-35.81-13.99-38.94-9.68-3.13-8.99-24.17-8.99-24.17l-2.87-94.44-12.93,69.38s-7.18,18.8-12.93,22.83c-5.74,4.03-10.92,91.77-10.92,91.77,0,0,12.36,50.11,18.11,55.49,0,0,45.99,82.8,30.53,102.05,0,0,24.76-50.74,6.09-87.14Z"/><path class="cls-1" d="m1153.63,629.62c-3.49-6.81,22.98-48.93,28.72-72.21,5.74-23.27-7.18-52.82-7.18-52.82,6.46,9.85,0,35.36,0,35.36,0,0-12.93,69.38-33.03,67.14-20.11-2.24-28.01-59.08-28.01-59.08,0,0-1.07-29.8,4.7-46.44,2.42-6.97,6.03-11.64,11.43-10.85,18.28,2.69,24.8,47,24.8,47,0,0-6.46,16.11-12.21,17.9s-8.62-6.27-8.62-6.27c0,0-2.87,13.88,13.3,13.88s13.99-30.44,13.99-30.44c0,0-4.31-35.81-13.99-38.94-9.68-3.13-8.99-24.17-8.99-24.17l-2.87-94.44-12.93,69.38s-7.18,18.8-12.93,22.83c-5.74,4.03-10.92,91.77-10.92,91.77,0,0,12.36,50.11,18.11,55.49,0,0,45.99,82.8,30.53,102.05,0,0,24.76-50.74,6.09-87.14Z"/><rect class="cls-1" x="1433.65" width="116.91" height="1092"/><path class="cls-4" d="m1504.37,972.86c-3.49-6.81,22.98-48.93,28.72-72.21,5.74-23.27-7.18-52.82-7.18-52.82,6.46,9.85,0,35.36,0,35.36,0,0-12.93,69.38-33.03,67.14-20.11-2.24-28.01-59.08-28.01-59.08,0,0-1.07-29.8,4.7-46.44,2.42-6.97,6.03-11.64,11.43-10.85,18.28,2.69,24.8,47,24.8,47,0,0-6.46,16.11-12.21,17.9-5.74,1.79-8.62-6.27-8.62-6.27,0,0-2.87,13.88,13.3,13.88s13.99-30.44,13.99-30.44c0,0-4.31-35.81-13.99-38.94-9.68-3.13-8.99-24.17-8.99-24.17l-2.87-94.44-12.93,69.38s-7.18,18.8-12.93,22.83c-5.74,4.03-10.92,91.77-10.92,91.77,0,0,12.36,50.11,18.11,55.49,0,0,45.99,82.8,30.53,102.05,0,0,24.76-50.74,6.09-87.14Z"/><path class="cls-4" d="m1504.37,286.37c-3.49-6.81,22.98-48.93,28.72-72.21,5.74-23.27-7.18-52.82-7.18-52.82,6.46,9.85,0,35.36,0,35.36,0,0-12.93,69.38-33.03,67.14-20.11-2.24-28.01-59.08-28.01-59.08,0,0-1.07-29.8,4.7-46.44,2.42-6.97,6.03-11.64,11.43-10.85,18.28,2.69,24.8,47,24.8,47,0,0-6.46,16.11-12.21,17.9-5.74,1.79-8.62-6.27-8.62-6.27,0,0-2.87,13.88,13.3,13.88s13.99-30.44,13.99-30.44c0,0-4.31-35.81-13.99-38.94-9.68-3.13-8.99-24.17-8.99-24.17l-2.87-94.44-12.93,69.38s-7.18,18.8-12.93,22.83c-5.74,4.03-10.92,91.77-10.92,91.77,0,0,12.36,50.11,18.11,55.49,0,0,45.99,82.8,30.53,102.05,0,0,24.76-50.74,6.09-87.14Z"/><path class="cls-4" d="m1504.37,629.62c-3.49-6.81,22.98-48.93,28.72-72.21,5.74-23.27-7.18-52.82-7.18-52.82,6.46,9.85,0,35.36,0,35.36,0,0-12.93,69.38-33.03,67.14-20.11-2.24-28.01-59.08-28.01-59.08,0,0-1.07-29.8,4.7-46.44,2.42-6.97,6.03-11.64,11.43-10.85,18.28,2.69,24.8,47,24.8,47,0,0-6.46,16.11-12.21,17.9-5.74,1.79-8.62-6.27-8.62-6.27,0,0-2.87,13.88,13.3,13.88s13.99-30.44,13.99-30.44c0,0-4.31-35.81-13.99-38.94-9.68-3.13-8.99-24.17-8.99-24.17l-2.87-94.44-12.93,69.38s-7.18,18.8-12.93,22.83c-5.74,4.03-10.92,91.77-10.92,91.77,0,0,12.36,50.11,18.11,55.49,0,0,45.99,82.8,30.53,102.05,0,0,24.76-50.74,6.09-87.14Z"/><rect class="cls-4" x="1316.73" width="116.91" height="1092"/><path class="cls-1" d="m1387.46,972.86c-3.49-6.81,22.98-48.93,28.72-72.21,5.74-23.27-7.18-52.82-7.18-52.82,6.46,9.85,0,35.36,0,35.36,0,0-12.93,69.38-33.03,67.14-20.11-2.24-28.01-59.08-28.01-59.08,0,0-1.07-29.8,4.7-46.44,2.42-6.97,6.03-11.64,11.43-10.85,18.28,2.69,24.8,47,24.8,47,0,0-6.46,16.11-12.21,17.9-5.74,1.79-8.62-6.27-8.62-6.27,0,0-2.87,13.88,13.3,13.88s13.99-30.44,13.99-30.44c0,0-4.31-35.81-13.99-38.94-9.68-3.13-8.99-24.17-8.99-24.17l-2.87-94.44-12.93,69.38s-7.18,18.8-12.93,22.83c-5.74,4.03-10.92,91.77-10.92,91.77,0,0,12.36,50.11,18.11,55.49,0,0,45.99,82.8,30.53,102.05,0,0,24.76-50.74,6.09-87.14Z"/><path class="cls-1" d="m1387.46,286.37c-3.49-6.81,22.98-48.93,28.72-72.21,5.74-23.27-7.18-52.82-7.18-52.82,6.46,9.85,0,35.36,0,35.36,0,0-12.93,69.38-33.03,67.14-20.11-2.24-28.01-59.08-28.01-59.08,0,0-1.07-29.8,4.7-46.44,2.42-6.97,6.03-11.64,11.43-10.85,18.28,2.69,24.8,47,24.8,47,0,0-6.46,16.11-12.21,17.9-5.74,1.79-8.62-6.27-8.62-6.27,0,0-2.87,13.88,13.3,13.88s13.99-30.44,13.99-30.44c0,0-4.31-35.81-13.99-38.94-9.68-3.13-8.99-24.17-8.99-24.17l-2.87-94.44-12.93,69.38s-7.18,18.8-12.93,22.83c-5.74,4.03-10.92,91.77-10.92,91.77,0,0,12.36,50.11,18.11,55.49,0,0,45.99,82.8,30.53,102.05,0,0,24.76-50.74,6.09-87.14Z"/><path class="cls-1" d="m1387.46,629.62c-3.49-6.81,22.98-48.93,28.72-72.21,5.74-23.27-7.18-52.82-7.18-52.82,6.46,9.85,0,35.36,0,35.36,0,0-12.93,69.38-33.03,67.14-20.11-2.24-28.01-59.08-28.01-59.08,0,0-1.07-29.8,4.7-46.44,2.42-6.97,6.03-11.64,11.43-10.85,18.28,2.69,24.8,47,24.8,47,0,0-6.46,16.11-12.21,17.9-5.74,1.79-8.62-6.27-8.62-6.27,0,0-2.87,13.88,13.3,13.88s13.99-30.44,13.99-30.44c0,0-4.31-35.81-13.99-38.94-9.68-3.13-8.99-24.17-8.99-24.17l-2.87-94.44-12.93,69.38s-7.18,18.8-12.93,22.83c-5.74,4.03-10.92,91.77-10.92,91.77,0,0,12.36,50.11,18.11,55.49,0,0,45.99,82.8,30.53,102.05,0,0,24.76-50.74,6.09-87.14Z"/><rect class="cls-1" x="1667.47" width="116.91" height="1092"/><path class="cls-4" d="m1738.19,972.86c-3.49-6.81,22.98-48.93,28.72-72.21,5.74-23.27-7.18-52.82-7.18-52.82,6.46,9.85,0,35.36,0,35.36,0,0-12.93,69.38-33.03,67.14-20.11-2.24-28.01-59.08-28.01-59.08,0,0-1.07-29.8,4.7-46.44,2.42-6.97,6.03-11.64,11.43-10.85,18.28,2.69,24.8,47,24.8,47,0,0-6.46,16.11-12.21,17.9-5.74,1.79-8.62-6.27-8.62-6.27,0,0-2.87,13.88,13.3,13.88s13.99-30.44,13.99-30.44c0,0-4.31-35.81-13.99-38.94-9.68-3.13-8.99-24.17-8.99-24.17l-2.87-94.44-12.93,69.38s-7.18,18.8-12.93,22.83c-5.74,4.03-10.92,91.77-10.92,91.77,0,0,12.36,50.11,18.11,55.49,0,0,45.99,82.8,30.53,102.05,0,0,24.76-50.74,6.09-87.14Z"/><path class="cls-4" d="m1738.19,286.37c-3.49-6.81,22.98-48.93,28.72-72.21,5.74-23.27-7.18-52.82-7.18-52.82,6.46,9.85,0,35.36,0,35.36,0,0-12.93,69.38-33.03,67.14-20.11-2.24-28.01-59.08-28.01-59.08,0,0-1.07-29.8,4.7-46.44,2.42-6.97,6.03-11.64,11.43-10.85,18.28,2.69,24.8,47,24.8,47,0,0-6.46,16.11-12.21,17.9-5.74,1.79-8.62-6.27-8.62-6.27,0,0-2.87,13.88,13.3,13.88s13.99-30.44,13.99-30.44c0,0-4.31-35.81-13.99-38.94-9.68-3.13-8.99-24.17-8.99-24.17l-2.87-94.44-12.93,69.38s-7.18,18.8-12.93,22.83c-5.74,4.03-10.92,91.77-10.92,91.77,0,0,12.36,50.11,18.11,55.49,0,0,45.99,82.8,30.53,102.05,0,0,24.76-50.74,6.09-87.14Z"/><path class="cls-4" d="m1738.19,629.62c-3.49-6.81,22.98-48.93,28.72-72.21,5.74-23.27-7.18-52.82-7.18-52.82,6.46,9.85,0,35.36,0,35.36,0,0-12.93,69.38-33.03,67.14-20.11-2.24-28.01-59.08-28.01-59.08,0,0-1.07-29.8,4.7-46.44,2.42-6.97,6.03-11.64,11.43-10.85,18.28,2.69,24.8,47,24.8,47,0,0-6.46,16.11-12.21,17.9-5.74,1.79-8.62-6.27-8.62-6.27,0,0-2.87,13.88,13.3,13.88s13.99-30.44,13.99-30.44c0,0-4.31-35.81-13.99-38.94-9.68-3.13-8.99-24.17-8.99-24.17l-2.87-94.44-12.93,69.38s-7.18,18.8-12.93,22.83c-5.74,4.03-10.92,91.77-10.92,91.77,0,0,12.36,50.11,18.11,55.49,0,0,45.99,82.8,30.53,102.05,0,0,24.76-50.74,6.09-87.14Z"/><rect class="cls-4" x="1550.56" width="116.91" height="1092"/><path class="cls-1" d="m1621.28,972.86c-3.49-6.81,22.98-48.93,28.72-72.21,5.74-23.27-7.18-52.82-7.18-52.82,6.46,9.85,0,35.36,0,35.36,0,0-12.93,69.38-33.03,67.14-20.11-2.24-28.01-59.08-28.01-59.08,0,0-1.07-29.8,4.7-46.44,2.42-6.97,6.03-11.64,11.43-10.85,18.28,2.69,24.8,47,24.8,47,0,0-6.46,16.11-12.21,17.9-5.74,1.79-8.62-6.27-8.62-6.27,0,0-2.87,13.88,13.3,13.88s13.99-30.44,13.99-30.44c0,0-4.31-35.81-13.99-38.94-9.68-3.13-8.99-24.17-8.99-24.17l-2.87-94.44-12.93,69.38s-7.18,18.8-12.93,22.83c-5.74,4.03-10.92,91.77-10.92,91.77,0,0,12.36,50.11,18.11,55.49,0,0,45.99,82.8,30.53,102.05,0,0,24.76-50.74,6.09-87.14Z"/><path class="cls-1" d="m1621.28,286.37c-3.49-6.81,22.98-48.93,28.72-72.21,5.74-23.27-7.18-52.82-7.18-52.82,6.46,9.85,0,35.36,0,35.36,0,0-12.93,69.38-33.03,67.14-20.11-2.24-28.01-59.08-28.01-59.08,0,0-1.07-29.8,4.7-46.44,2.42-6.97,6.03-11.64,11.43-10.85,18.28,2.69,24.8,47,24.8,47,0,0-6.46,16.11-12.21,17.9-5.74,1.79-8.62-6.27-8.62-6.27,0,0-2.87,13.88,13.3,13.88s13.99-30.44,13.99-30.44c0,0-4.31-35.81-13.99-38.94-9.68-3.13-8.99-24.17-8.99-24.17l-2.87-94.44-12.93,69.38s-7.18,18.8-12.93,22.83c-5.74,4.03-10.92,91.77-10.92,91.77,0,0,12.36,50.11,18.11,55.49,0,0,45.99,82.8,30.53,102.05,0,0,24.76-50.74,6.09-87.14Z"/><path class="cls-1" d="m1621.28,629.62c-3.49-6.81,22.98-48.93,28.72-72.21,5.74-23.27-7.18-52.82-7.18-52.82,6.46,9.85,0,35.36,0,35.36,0,0-12.93,69.38-33.03,67.14-20.11-2.24-28.01-59.08-28.01-59.08,0,0-1.07-29.8,4.7-46.44,2.42-6.97,6.03-11.64,11.43-10.85,18.28,2.69,24.8,47,24.8,47,0,0-6.46,16.11-12.21,17.9-5.74,1.79-8.62-6.27-8.62-6.27,0,0-2.87,13.88,13.3,13.88s13.99-30.44,13.99-30.44c0,0-4.31-35.81-13.99-38.94-9.68-3.13-8.99-24.17-8.99-24.17l-2.87-94.44-12.93,69.38s-7.18,18.8-12.93,22.83c-5.74,4.03-10.92,91.77-10.92,91.77,0,0,12.36,50.11,18.11,55.49,0,0,45.99,82.8,30.53,102.05,0,0,24.76-50.74,6.09-87.14Z"/><rect class="cls-1" x="1901.29" width="116.91" height="1092"/><path class="cls-4" d="m1972.01,972.86c-3.49-6.81,22.98-48.93,28.72-72.21,5.74-23.27-7.18-52.82-7.18-52.82,6.46,9.85,0,35.36,0,35.36,0,0-12.93,69.38-33.03,67.14-20.11-2.24-28.01-59.08-28.01-59.08,0,0-1.07-29.8,4.7-46.44,2.42-6.97,6.03-11.64,11.43-10.85,18.28,2.69,24.8,47,24.8,47,0,0-6.46,16.11-12.21,17.9-5.74,1.79-8.62-6.27-8.62-6.27,0,0-2.87,13.88,13.3,13.88s13.99-30.44,13.99-30.44c0,0-4.31-35.81-13.99-38.94-9.68-3.13-8.99-24.17-8.99-24.17l-2.87-94.44-12.93,69.38s-7.18,18.8-12.93,22.83c-5.74,4.03-10.92,91.77-10.92,91.77,0,0,12.36,50.11,18.11,55.49,0,0,45.99,82.8,30.53,102.05,0,0,24.76-50.74,6.09-87.14Z"/><path class="cls-4" d="m1972.01,286.37c-3.49-6.81,22.98-48.93,28.72-72.21,5.74-23.27-7.18-52.82-7.18-52.82,6.46,9.85,0,35.36,0,35.36,0,0-12.93,69.38-33.03,67.14-20.11-2.24-28.01-59.08-28.01-59.08,0,0-1.07-29.8,4.7-46.44,2.42-6.97,6.03-11.64,11.43-10.85,18.28,2.69,24.8,47,24.8,47,0,0-6.46,16.11-12.21,17.9-5.74,1.79-8.62-6.27-8.62-6.27,0,0-2.87,13.88,13.3,13.88s13.99-30.44,13.99-30.44c0,0-4.31-35.81-13.99-38.94-9.68-3.13-8.99-24.17-8.99-24.17l-2.87-94.44-12.93,69.38s-7.18,18.8-12.93,22.83c-5.74,4.03-10.92,91.77-10.92,91.77,0,0,12.36,50.11,18.11,55.49,0,0,45.99,82.8,30.53,102.05,0,0,24.76-50.74,6.09-87.14Z"/><path class="cls-4" d="m1972.01,629.62c-3.49-6.81,22.98-48.93,28.72-72.21,5.74-23.27-7.18-52.82-7.18-52.82,6.46,9.85,0,35.36,0,35.36,0,0-12.93,69.38-33.03,67.14-20.11-2.24-28.01-59.08-28.01-59.08,0,0-1.07-29.8,4.7-46.44,2.42-6.97,6.03-11.64,11.43-10.85,18.28,2.69,24.8,47,24.8,47,0,0-6.46,16.11-12.21,17.9-5.74,1.79-8.62-6.27-8.62-6.27,0,0-2.87,13.88,13.3,13.88s13.99-30.44,13.99-30.44c0,0-4.31-35.81-13.99-38.94-9.68-3.13-8.99-24.17-8.99-24.17l-2.87-94.44-12.93,69.38s-7.18,18.8-12.93,22.83c-5.74,4.03-10.92,91.77-10.92,91.77,0,0,12.36,50.11,18.11,55.49,0,0,45.99,82.8,30.53,102.05,0,0,24.76-50.74,6.09-87.14Z"/><rect class="cls-4" x="1784.38" width="116.91" height="1092"/><path class="cls-1" d="m1855.1,972.86c-3.49-6.81,22.98-48.93,28.72-72.21,5.74-23.27-7.18-52.82-7.18-52.82,6.46,9.85,0,35.36,0,35.36,0,0-12.93,69.38-33.03,67.14-20.11-2.24-28.01-59.08-28.01-59.08,0,0-1.07-29.8,4.7-46.44,2.42-6.97,6.03-11.64,11.43-10.85,18.28,2.69,24.8,47,24.8,47,0,0-6.46,16.11-12.21,17.9-5.74,1.79-8.62-6.27-8.62-6.27,0,0-2.87,13.88,13.3,13.88s13.99-30.44,13.99-30.44c0,0-4.31-35.81-13.99-38.94-9.68-3.13-8.99-24.17-8.99-24.17l-2.87-94.44-12.93,69.38s-7.18,18.8-12.93,22.83c-5.74,4.03-10.92,91.77-10.92,91.77,0,0,12.36,50.11,18.11,55.49,0,0,45.99,82.8,30.53,102.05,0,0,24.76-50.74,6.09-87.14Z"/><path class="cls-1" d="m1855.1,286.37c-3.49-6.81,22.98-48.93,28.72-72.21,5.74-23.27-7.18-52.82-7.18-52.82,6.46,9.85,0,35.36,0,35.36,0,0-12.93,69.38-33.03,67.14-20.11-2.24-28.01-59.08-28.01-59.08,0,0-1.07-29.8,4.7-46.44,2.42-6.97,6.03-11.64,11.43-10.85,18.28,2.69,24.8,47,24.8,47,0,0-6.46,16.11-12.21,17.9-5.74,1.79-8.62-6.27-8.62-6.27,0,0-2.87,13.88,13.3,13.88s13.99-30.44,13.99-30.44c0,0-4.31-35.81-13.99-38.94-9.68-3.13-8.99-24.17-8.99-24.17l-2.87-94.44-12.93,69.38s-7.18,18.8-12.93,22.83c-5.74,4.03-10.92,91.77-10.92,91.77,0,0,12.36,50.11,18.11,55.49,0,0,45.99,82.8,30.53,102.05,0,0,24.76-50.74,6.09-87.14Z"/><path class="cls-1" d="m1855.1,629.62c-3.49-6.81,22.98-48.93,28.72-72.21,5.74-23.27-7.18-52.82-7.18-52.82,6.46,9.85,0,35.36,0,35.36,0,0-12.93,69.38-33.03,67.14-20.11-2.24-28.01-59.08-28.01-59.08,0,0-1.07-29.8,4.7-46.44,2.42-6.97,6.03-11.64,11.43-10.85,18.28,2.69,24.8,47,24.8,47,0,0-6.46,16.11-12.21,17.9-5.74,1.79-8.62-6.27-8.62-6.27,0,0-2.87,13.88,13.3,13.88s13.99-30.44,13.99-30.44c0,0-4.31-35.81-13.99-38.94-9.68-3.13-8.99-24.17-8.99-24.17l-2.87-94.44-12.93,69.38s-7.18,18.8-12.93,22.83c-5.74,4.03-10.92,91.77-10.92,91.77,0,0,12.36,50.11,18.11,55.49,0,0,45.99,82.8,30.53,102.05,0,0,24.76-50.74,6.09-87.14Z"/></g></g></svg>