<?xml version="1.0" encoding="UTF-8"?><svg id="Layer_2" xmlns="http://www.w3.org/2000/svg" viewBox="0 0 600 900"><defs><style>.cls-1{fill:#bda9a2;}.cls-2{fill:#cfc5bb;}.cls-3{fill:#a00734;}.cls-4{fill:#180301;}.cls-5{fill:red;}</style></defs><g id="Layer_1-2"><path class="cls-3" d="m242.21,757.35c-1.31,7.16-8.5,67.26-8.5,67.26l-16.34,75.39,47.72-34.53,56.22,21.49-28.77-58.29,45.76-110.4-37.92-194.74-74.53-19.54,41.19,113.33-24.84,140.03Z"/><polygon class="cls-1" points="132.04 530.8 143.73 636.47 171.59 690.19 198.56 628.41 198.56 511.1 132.04 530.8"/><polygon class="cls-1" points="198.56 511.1 280.34 488.54 272.98 667.45 250.88 742.68 214.96 654.6 198.56 511.1"/><polygon class="cls-1" points="280.34 488.54 378.47 511.1 354.06 629.39 321.24 695.62 300.2 615.61 280.34 488.54"/><polygon class="cls-1" points="378.47 511.1 459.26 544.71 427.28 625.2 386.88 673.83 378.47 607.59 378.47 511.1"/><polygon class="cls-2" points="117.87 500.7 132.04 521.9 198.56 500.7 188.55 442.34 203.82 501.52 280.34 481.13 287.57 380.65 286.49 483.57 374.9 503.15 390.67 446.02 381.45 506.41 459.26 538.21 482.13 463.19 560.71 485.21 600 315.59 499.32 110.45 303.68 0 122.78 83.99 0 237.3 29.47 425.68 93.32 416.71 117.87 500.7"/><path class="cls-4" d="m248.54,257.27s14.31,10.19,15.03,48.73c.72,38.53-1.68,47.52-1.68,47.52,0,0-11.99,28.86-28.52,26.26-16.54-2.59,3.6-28.51,3.6-28.51,0,0,14.62-21.08,17.49-49.42,2.88-28.34-5.93-44.58-5.93-44.58Z"/><path class="cls-4" d="m318.64,257.27s-14.31,10.19-15.03,48.73c-.72,38.53,1.68,47.52,1.68,47.52,0,0,11.99,28.86,28.52,26.26,16.54-2.59-3.6-28.51-3.6-28.51,0,0-14.62-21.08-17.49-49.42-2.88-28.34,5.93-44.58,5.93-44.58Z"/><polygon points="59.04 255.9 44.27 354.98 68.89 392.26 171.32 343.21 193.97 261.78 279.36 46 186.09 181.34 172.3 270.01 149.65 150.93 167.38 166.63 170.33 222.54 179.2 167.61 212.68 121.5 175.26 154.85 155.56 134.25 88.59 167.61 140.79 160.74 142.76 179.38 90.56 191.15 56.09 218.62 25.56 301.02 25.56 332.42 43.28 284.35 59.04 255.9"/><polygon points="536.32 255.9 551.09 354.98 526.47 392.26 424.04 343.21 401.39 261.78 316 46 409.27 181.34 423.05 270.01 445.71 150.93 427.98 166.63 425.02 222.54 416.16 167.61 382.67 121.5 420.1 154.85 439.8 134.25 506.77 167.61 454.57 160.74 452.6 179.38 504.8 191.15 539.27 218.62 569.8 301.02 569.8 332.42 552.07 284.35 536.32 255.9"/><path d="m263.88,181.91c-.21-.63-.23-1.83-.11-3.42.67-8.8,5.59-29.38,5.59-29.38l17.15-28.02"/><path d="m344.53,181.91c.21-.63.23-1.83.11-3.42-.67-8.8-5.59-29.38-5.59-29.38l-17.15-28.02"/><polygon class="cls-5" points="460.33 301.85 442.27 334.96 435.9 297.92 457.56 258.71 460.33 301.85"/><polygon class="cls-5" points="134.54 301.85 152.61 334.96 158.97 297.92 137.32 258.71 134.54 301.85"/></g></svg>