<?xml version="1.0" encoding="UTF-8"?><svg id="Layer_2" xmlns="http://www.w3.org/2000/svg" viewBox="0 0 80 100"><defs><style>.cls-1{fill:#bda9a2;}.cls-2{fill:#cfc5bb;}.cls-3{fill:#a00734;}.cls-4{fill:#180301;}.cls-5{fill:red;}</style></defs><g id="Layer_1-2"><path class="cls-3" d="m32.3,84.15c-.17.8-1.13,7.47-1.13,7.47l-2.18,8.38,6.36-3.84,7.5,2.39-3.84-6.48,6.1-12.27-5.06-21.64-9.94-2.17,5.49,12.59-3.31,15.56Z"/><polygon class="cls-1" points="17.61 58.98 19.16 70.72 22.88 76.69 26.47 69.82 26.47 56.79 17.61 58.98"/><polygon class="cls-1" points="26.47 56.79 37.38 54.28 36.4 74.16 33.45 82.52 28.66 72.73 26.47 56.79"/><polygon class="cls-1" points="37.38 54.28 50.46 56.79 47.21 69.93 42.83 77.29 40.03 68.4 37.38 54.28"/><polygon class="cls-1" points="50.46 56.79 61.23 60.52 56.97 69.47 51.58 74.87 50.46 67.51 50.46 56.79"/><polygon class="cls-2" points="15.72 55.63 17.61 57.99 26.47 55.63 25.14 49.15 27.18 55.72 37.38 53.46 38.34 42.29 38.2 53.73 49.99 55.91 52.09 49.56 50.86 56.27 61.23 59.8 64.28 51.47 74.76 53.91 80 35.07 66.58 12.27 40.49 0 16.37 9.33 0 26.37 3.93 47.3 12.44 46.3 15.72 55.63"/><path class="cls-4" d="m33.14,28.59s1.91,1.13,2,5.41c.1,4.28-.22,5.28-.22,5.28,0,0-1.6,3.21-3.8,2.92s.48-3.17.48-3.17c0,0,1.95-2.34,2.33-5.49s-.79-4.95-.79-4.95Z"/><path class="cls-4" d="m42.48,28.59s-1.91,1.13-2,5.41c-.1,4.28.22,5.28.22,5.28,0,0,1.6,3.21,3.8,2.92s-.48-3.17-.48-3.17c0,0-1.95-2.34-2.33-5.49s.79-4.95.79-4.95Z"/><polygon points="7.87 28.43 5.9 39.44 9.19 43.58 22.84 38.13 25.86 29.09 37.25 5.11 24.81 20.15 22.97 30 19.95 16.77 22.32 18.51 22.71 24.73 23.89 18.62 28.36 13.5 23.37 17.21 20.74 14.92 11.81 18.62 18.77 17.86 19.03 19.93 12.07 21.24 7.48 24.29 3.41 33.45 3.41 36.94 5.77 31.59 7.87 28.43"/><polygon points="71.51 28.43 73.48 39.44 70.2 43.58 56.54 38.13 53.52 29.09 42.13 5.11 54.57 20.15 56.41 30 59.43 16.77 57.06 18.51 56.67 24.73 55.49 18.62 51.02 13.5 56.01 17.21 58.64 14.92 67.57 18.62 60.61 17.86 60.35 19.93 67.31 21.24 71.9 24.29 75.97 33.45 75.97 36.94 73.61 31.59 71.51 28.43"/><path d="m35.18,20.21c-.03-.07-.03-.2-.01-.38.09-.98.75-3.26.75-3.26l2.29-3.11"/><path d="m45.94,20.21c.03-.07.03-.2.01-.38-.09-.98-.75-3.26-.75-3.26l-2.29-3.11"/><polygon class="cls-5" points="61.38 33.54 58.97 37.22 58.12 33.1 61.01 28.75 61.38 33.54"/><polygon class="cls-5" points="17.94 33.54 20.35 37.22 21.2 33.1 18.31 28.75 17.94 33.54"/></g></svg>