<?xml version="1.0" encoding="UTF-8"?><svg id="Layer_2" xmlns="http://www.w3.org/2000/svg" viewBox="0 0 100 100"><defs><style>.cls-1{fill:#cf9370;}.cls-2{fill:#fce1b2;}</style></defs><g id="Layer_1-2"><circle class="cls-2" cx="50" cy="50" r="50"/><path class="cls-1" d="m96.65,50c0,4.71-6.6,8.32-7.98,12.57-1.43,4.4,1.74,11.19-.93,14.86s-10.15,2.77-13.85,5.47-5.07,10.06-9.47,11.49-9.71-3.73-14.42-3.73-10.17,5.11-14.42,3.73c-4.4-1.43-5.81-8.82-9.47-11.49s-11.15-1.77-13.85-5.47.5-10.45-.93-14.86-7.98-7.86-7.98-12.56,6.6-8.32,7.98-12.57-1.74-11.19.93-14.86,10.15-2.77,13.85-5.47,5.07-10.06,9.47-11.49,9.71,3.73,14.42,3.73,10.17-5.11,14.42-3.73,5.81,8.82,9.47,11.49,11.15,1.77,13.85,5.47-.5,10.45.93,14.86c1.38,4.25,7.98,7.86,7.98,12.56Z"/><rect class="cls-2" x="37.5" y="42.85" width="25" height="14.3" rx="2" ry="2" transform="translate(-14.72 78.48) rotate(-68.75)"/></g></svg>