<?xml version="1.0" encoding="UTF-8"?><svg id="Layer_2" xmlns="http://www.w3.org/2000/svg" xmlns:xlink="http://www.w3.org/1999/xlink" viewBox="0 0 54.84 100"><defs><style>.cls-1{fill:#f7a3be;}.cls-2{fill:#7f5845;}.cls-3{fill:#389963;}.cls-4{fill:#7fdeff;}.cls-5{fill:#b1c981;}.cls-6{clip-path:url(#clippath);}.cls-7{fill:none;}.cls-8{fill:#b9a7f5;}.cls-9{fill:#e9e97d;}.cls-10{fill:#dba783;}</style><clipPath id="clippath"><polygon class="cls-7" points="11.92 50.66 42.92 50.66 27.42 100 11.92 50.66"/></clipPath></defs><g id="Layer_1-2"><polygon class="cls-10" points="11.92 50.66 42.92 50.66 27.42 100 11.92 50.66"/><g class="cls-6"><line class="cls-2" x1="46.15" y1="81.86" x2="8.69" y2="119.31"/><line class="cls-2" x1="46.15" y1="76.02" x2="8.69" y2="113.47"/><line class="cls-2" x1="46.15" y1="70.18" x2="8.69" y2="107.63"/><line class="cls-2" x1="46.15" y1="64.34" x2="8.69" y2="101.8"/><line class="cls-2" x1="46.15" y1="58.51" x2="8.69" y2="95.96"/><line class="cls-2" x1="46.15" y1="52.67" x2="8.69" y2="90.12"/><line class="cls-2" x1="46.15" y1="46.83" x2="8.69" y2="84.28"/><line class="cls-2" x1="46.15" y1="40.99" x2="8.69" y2="78.44"/><line class="cls-2" x1="46.15" y1="76.02" x2="8.69" y2="113.47"/><line class="cls-2" x1="46.15" y1="70.18" x2="8.69" y2="107.63"/><line class="cls-2" x1="46.15" y1="64.34" x2="8.69" y2="101.8"/><line class="cls-2" x1="46.15" y1="58.51" x2="8.69" y2="95.96"/><line class="cls-2" x1="46.15" y1="52.67" x2="8.69" y2="90.12"/><line class="cls-2" x1="46.15" y1="46.83" x2="8.69" y2="84.28"/><line class="cls-2" x1="46.15" y1="40.99" x2="8.69" y2="78.44"/><line class="cls-2" x1="46.15" y1="35.15" x2="8.69" y2="72.61"/><line class="cls-2" x1="46.15" y1="70.18" x2="8.69" y2="107.63"/><line class="cls-2" x1="46.15" y1="64.34" x2="8.69" y2="101.8"/><line class="cls-2" x1="46.15" y1="58.51" x2="8.69" y2="95.96"/><line class="cls-2" x1="46.15" y1="52.67" x2="8.69" y2="90.12"/><line class="cls-2" x1="46.15" y1="46.83" x2="8.69" y2="84.28"/><line class="cls-2" x1="46.15" y1="40.99" x2="8.69" y2="78.44"/><line class="cls-2" x1="46.15" y1="35.15" x2="8.69" y2="72.61"/><line class="cls-2" x1="46.15" y1="29.32" x2="8.69" y2="66.77"/><line class="cls-2" x1="46.15" y1="64.34" x2="8.69" y2="101.8"/><line class="cls-2" x1="46.15" y1="58.51" x2="8.69" y2="95.96"/><line class="cls-2" x1="46.15" y1="52.67" x2="8.69" y2="90.12"/><line class="cls-2" x1="46.15" y1="46.83" x2="8.69" y2="84.28"/><line class="cls-2" x1="46.15" y1="40.99" x2="8.69" y2="78.44"/><line class="cls-2" x1="46.15" y1="35.15" x2="8.69" y2="72.61"/><line class="cls-2" x1="46.15" y1="29.32" x2="8.69" y2="66.77"/><line class="cls-2" x1="46.15" y1="23.48" x2="8.69" y2="60.93"/><line class="cls-2" x1="46.15" y1="58.51" x2="8.69" y2="95.96"/><line class="cls-2" x1="46.15" y1="52.67" x2="8.69" y2="90.12"/><line class="cls-2" x1="46.15" y1="46.83" x2="8.69" y2="84.28"/><line class="cls-2" x1="46.15" y1="40.99" x2="8.69" y2="78.44"/><line class="cls-2" x1="46.15" y1="35.15" x2="8.69" y2="72.61"/><line class="cls-2" x1="46.15" y1="29.32" x2="8.69" y2="66.77"/><line class="cls-2" x1="46.15" y1="23.48" x2="8.69" y2="60.93"/><line class="cls-2" x1="46.15" y1="17.64" x2="8.69" y2="55.09"/><line class="cls-2" x1="46.15" y1="52.67" x2="8.69" y2="90.12"/><line class="cls-2" x1="46.15" y1="46.83" x2="8.69" y2="84.28"/><line class="cls-2" x1="46.15" y1="40.99" x2="8.69" y2="78.44"/><line class="cls-2" x1="46.15" y1="35.15" x2="8.69" y2="72.61"/><line class="cls-2" x1="46.15" y1="29.32" x2="8.69" y2="66.77"/><line class="cls-2" x1="46.15" y1="23.48" x2="8.69" y2="60.93"/><line class="cls-2" x1="46.15" y1="17.64" x2="8.69" y2="55.09"/><line class="cls-2" x1="46.15" y1="11.8" x2="8.69" y2="49.25"/><line class="cls-2" x1="46.15" y1="46.83" x2="8.69" y2="84.28"/><line class="cls-2" x1="46.15" y1="40.99" x2="8.69" y2="78.44"/><line class="cls-2" x1="46.15" y1="35.15" x2="8.69" y2="72.61"/><line class="cls-2" x1="46.15" y1="29.32" x2="8.69" y2="66.77"/><line class="cls-2" x1="46.15" y1="23.48" x2="8.69" y2="60.93"/><line class="cls-2" x1="46.15" y1="17.64" x2="8.69" y2="55.09"/><line class="cls-2" x1="46.15" y1="11.8" x2="8.69" y2="49.25"/><line class="cls-2" x1="46.15" y1="5.97" x2="8.69" y2="43.42"/><line class="cls-2" x1="46.15" y1="40.99" x2="8.69" y2="78.44"/><line class="cls-2" x1="46.15" y1="35.15" x2="8.69" y2="72.61"/><line class="cls-2" x1="46.15" y1="29.32" x2="8.69" y2="66.77"/><line class="cls-2" x1="46.15" y1="23.48" x2="8.69" y2="60.93"/><line class="cls-2" x1="46.15" y1="17.64" x2="8.69" y2="55.09"/><line class="cls-2" x1="46.15" y1="11.8" x2="8.69" y2="49.25"/><line class="cls-2" x1="46.15" y1="5.97" x2="8.69" y2="43.42"/><line class="cls-2" x1="46.15" y1=".13" x2="8.69" y2="37.58"/><line class="cls-2" x1="46.15" y1="35.15" x2="8.69" y2="72.61"/><line class="cls-2" x1="46.15" y1="29.32" x2="8.69" y2="66.77"/><line class="cls-2" x1="46.15" y1="23.48" x2="8.69" y2="60.93"/><line class="cls-2" x1="46.15" y1="17.64" x2="8.69" y2="55.09"/><line class="cls-2" x1="46.15" y1="11.8" x2="8.69" y2="49.25"/><line class="cls-2" x1="46.15" y1="5.97" x2="8.69" y2="43.42"/><line class="cls-2" x1="46.15" y1=".13" x2="8.69" y2="37.58"/><line class="cls-2" x1="46.15" y1="-5.71" x2="8.69" y2="31.74"/><line class="cls-2" x1="8.69" y1="81.86" x2="46.15" y2="119.31"/><line class="cls-2" x1="8.69" y1="76.02" x2="46.15" y2="113.47"/><line class="cls-2" x1="8.69" y1="70.18" x2="46.15" y2="107.63"/><line class="cls-2" x1="8.69" y1="64.34" x2="46.15" y2="101.8"/><line class="cls-2" x1="8.69" y1="58.51" x2="46.15" y2="95.96"/><line class="cls-2" x1="8.69" y1="52.67" x2="46.15" y2="90.12"/><line class="cls-2" x1="8.69" y1="46.83" x2="46.15" y2="84.28"/><line class="cls-2" x1="8.69" y1="40.99" x2="46.15" y2="78.44"/><line class="cls-2" x1="8.69" y1="76.02" x2="46.15" y2="113.47"/><line class="cls-2" x1="8.69" y1="70.18" x2="46.15" y2="107.63"/><line class="cls-2" x1="8.69" y1="64.34" x2="46.15" y2="101.8"/><line class="cls-2" x1="8.69" y1="58.51" x2="46.15" y2="95.96"/><line class="cls-2" x1="8.69" y1="52.67" x2="46.15" y2="90.12"/><line class="cls-2" x1="8.69" y1="46.83" x2="46.15" y2="84.28"/><line class="cls-2" x1="8.69" y1="40.99" x2="46.15" y2="78.44"/><line class="cls-2" x1="8.69" y1="35.15" x2="46.15" y2="72.61"/><line class="cls-2" x1="8.69" y1="70.18" x2="46.15" y2="107.63"/><line class="cls-2" x1="8.69" y1="64.34" x2="46.15" y2="101.8"/><line class="cls-2" x1="8.69" y1="58.51" x2="46.15" y2="95.96"/><line class="cls-2" x1="8.69" y1="52.67" x2="46.15" y2="90.12"/><line class="cls-2" x1="8.69" y1="46.83" x2="46.15" y2="84.28"/><line class="cls-2" x1="8.69" y1="40.99" x2="46.15" y2="78.44"/><line class="cls-2" x1="8.69" y1="35.15" x2="46.15" y2="72.61"/><line class="cls-2" x1="8.69" y1="29.32" x2="46.15" y2="66.77"/><line class="cls-2" x1="8.69" y1="64.34" x2="46.15" y2="101.8"/><line class="cls-2" x1="8.69" y1="58.51" x2="46.15" y2="95.96"/><line class="cls-2" x1="8.69" y1="52.67" x2="46.15" y2="90.12"/><line class="cls-2" x1="8.69" y1="46.83" x2="46.15" y2="84.28"/><line class="cls-2" x1="8.69" y1="40.99" x2="46.15" y2="78.44"/><line class="cls-2" x1="8.69" y1="35.15" x2="46.15" y2="72.61"/><line class="cls-2" x1="8.69" y1="29.32" x2="46.15" y2="66.77"/><line class="cls-2" x1="8.69" y1="23.48" x2="46.15" y2="60.93"/><line class="cls-2" x1="8.69" y1="58.51" x2="46.15" y2="95.96"/><line class="cls-2" x1="8.69" y1="52.67" x2="46.15" y2="90.12"/><line class="cls-2" x1="8.69" y1="46.83" x2="46.15" y2="84.28"/><line class="cls-2" x1="8.69" y1="40.99" x2="46.15" y2="78.44"/><line class="cls-2" x1="8.69" y1="35.15" x2="46.15" y2="72.61"/><line class="cls-2" x1="8.69" y1="29.32" x2="46.15" y2="66.77"/><line class="cls-2" x1="8.69" y1="23.48" x2="46.15" y2="60.93"/><line class="cls-2" x1="8.69" y1="17.64" x2="46.15" y2="55.09"/><line class="cls-2" x1="8.69" y1="52.67" x2="46.15" y2="90.12"/><line class="cls-2" x1="8.69" y1="46.83" x2="46.15" y2="84.28"/><line class="cls-2" x1="8.69" y1="40.99" x2="46.15" y2="78.44"/><line class="cls-2" x1="8.69" y1="35.15" x2="46.15" y2="72.61"/><line class="cls-2" x1="8.69" y1="29.32" x2="46.15" y2="66.77"/><line class="cls-2" x1="8.69" y1="23.48" x2="46.15" y2="60.93"/><line class="cls-2" x1="8.69" y1="17.64" x2="46.15" y2="55.09"/><line class="cls-2" x1="8.69" y1="11.8" x2="46.15" y2="49.25"/><line class="cls-2" x1="8.69" y1="46.83" x2="46.15" y2="84.28"/><line class="cls-2" x1="8.69" y1="40.99" x2="46.15" y2="78.44"/><line class="cls-2" x1="8.69" y1="35.15" x2="46.15" y2="72.61"/><line class="cls-2" x1="8.69" y1="29.32" x2="46.15" y2="66.77"/><line class="cls-2" x1="8.69" y1="23.48" x2="46.15" y2="60.93"/><line class="cls-2" x1="8.69" y1="17.64" x2="46.15" y2="55.09"/><line class="cls-2" x1="8.69" y1="11.8" x2="46.15" y2="49.25"/><line class="cls-2" x1="8.69" y1="5.97" x2="46.15" y2="43.42"/><line class="cls-2" x1="8.69" y1="40.99" x2="46.15" y2="78.44"/><line class="cls-2" x1="8.69" y1="35.15" x2="46.15" y2="72.61"/><line class="cls-2" x1="8.69" y1="29.32" x2="46.15" y2="66.77"/><line class="cls-2" x1="8.69" y1="23.48" x2="46.15" y2="60.93"/><line class="cls-2" x1="8.69" y1="17.64" x2="46.15" y2="55.09"/><line class="cls-2" x1="8.69" y1="11.8" x2="46.15" y2="49.25"/><line class="cls-2" x1="8.69" y1="5.97" x2="46.15" y2="43.42"/><line class="cls-2" x1="8.69" y1=".13" x2="46.15" y2="37.58"/><line class="cls-2" x1="8.69" y1="35.15" x2="46.15" y2="72.61"/><line class="cls-2" x1="8.69" y1="29.32" x2="46.15" y2="66.77"/><line class="cls-2" x1="8.69" y1="23.48" x2="46.15" y2="60.93"/><line class="cls-2" x1="8.69" y1="17.64" x2="46.15" y2="55.09"/><line class="cls-2" x1="8.69" y1="11.8" x2="46.15" y2="49.25"/><line class="cls-2" x1="8.69" y1="5.97" x2="46.15" y2="43.42"/><line class="cls-2" x1="8.69" y1=".13" x2="46.15" y2="37.58"/><line class="cls-2" x1="8.69" y1="-5.71" x2="46.15" y2="31.74"/></g><circle class="cls-4" cx="27.42" cy="11.11" r="11.11"/><circle class="cls-1" cx="43.73" cy="43.47" r="11.11"/><circle class="cls-5" cx="11.11" cy="43.47" r="11.11"/><circle class="cls-9" cx="27.42" cy="43.47" r="11.11"/><circle class="cls-8" cx="17.74" cy="27.16" r="11.11"/><circle class="cls-3" cx="37.1" cy="27.16" r="11.11"/></g></svg>