<?xml version="1.0" encoding="UTF-8"?><svg id="Layer_2" xmlns="http://www.w3.org/2000/svg" viewBox="0 0 491 491"><defs><style>.cls-1{fill:#8bc9ff;font-family:LoRes12OT-Bold, 'LoRes 12 OT';font-size:41.83px;font-weight:700;}.cls-2{fill:#272a4d;opacity:.8;stroke:#0878e4;stroke-miterlimit:10;stroke-width:8px;}</style></defs><g id="Layer_1-2"><path class="cls-2" d="m245.5,4C112.12,4,4,112.12,4,245.5s108.12,241.5,241.5,241.5,241.5-108.12,241.5-241.5S378.88,4,245.5,4Zm0,406c-90.85,0-164.5-73.65-164.5-164.5S154.65,81,245.5,81s164.5,73.65,164.5,164.5-73.65,164.5-164.5,164.5Z"/><text class="cls-1" transform="translate(72.66 162.95) rotate(-60.87)"><tspan x="0" y="0">C</tspan></text><text class="cls-1" transform="translate(84.39 142.34) rotate(-55.35)"><tspan x="0" y="0">l</tspan></text><text class="cls-1" transform="translate(91.59 131.22) rotate(-49.27)"><tspan x="0" y="0">a</tspan></text><text class="cls-1" transform="translate(109.35 110.83) rotate(-42.16)"><tspan x="0" y="0">s</tspan></text><text class="cls-1" transform="translate(124.32 97.24) rotate(-36.08)"><tspan x="0" y="0">s</tspan></text><text class="cls-1" transform="translate(140.79 85.39) rotate(-31.04)"><tspan x="0" y="0">i</tspan></text><text class="cls-1" transform="translate(152.01 78.3) rotate(-25.53)"><tspan x="0" y="0">c</tspan></text><text class="cls-1" transform="translate(418.34 328.05) rotate(119.13)"><tspan x="0" y="0">C</tspan></text><text class="cls-1" transform="translate(406.6 348.66) rotate(124.65)"><tspan x="0" y="0">l</tspan></text><text class="cls-1" transform="translate(399.41 359.78) rotate(130.73)"><tspan x="0" y="0">a</tspan></text><text class="cls-1" transform="translate(381.65 380.16) rotate(137.84)"><tspan x="0" y="0">s</tspan></text><text class="cls-1" transform="translate(366.68 393.76) rotate(143.92)"><tspan x="0" y="0">s</tspan></text><text class="cls-1" transform="translate(350.21 405.61) rotate(148.96)"><tspan x="0" y="0">i</tspan></text><text class="cls-1" transform="translate(338.99 412.7) rotate(154.47)"><tspan x="0" y="0">c</tspan></text></g></svg>