<?xml version="1.0" encoding="UTF-8"?><svg id="Layer_2" xmlns="http://www.w3.org/2000/svg" viewBox="0 0 87.77 110.14"><defs><style>.cls-1{fill:none;stroke:#752900;}.cls-1,.cls-2{stroke-miterlimit:10;}.cls-2{stroke:#ffa900;stroke-width:6px;}.cls-2,.cls-3{fill:#ffa900;}.cls-4{fill:#752900;}</style></defs><g id="Layer_1-2"><ellipse class="cls-2" cx="64.6" cy="19.25" rx="1.77" ry="3.5" transform="translate(6 52.57) rotate(-46.22)"/><ellipse class="cls-2" cx="65.31" cy="18.55" rx="2.77" ry="5.47" transform="translate(6.73 52.87) rotate(-46.22)"/><ellipse class="cls-2" cx="65.31" cy="18.55" rx="4.75" ry="9.37" transform="translate(6.73 52.87) rotate(-46.22)"/><ellipse class="cls-2" cx="65.31" cy="18.55" rx="6.55" ry="12.94" transform="translate(6.73 52.87) rotate(-46.22)"/><ellipse class="cls-2" cx="64.41" cy="19.42" rx="7.8" ry="15.4" transform="translate(5.82 52.49) rotate(-46.22)"/><path class="cls-2" d="m50.68,18.55s1.53,3.75.59,5.99c0,0,1.25-.71,1.9,0s5.39,3.45,2.88,6.54"/><path class="cls-2" d="m46.92,9.23l.29,7.69s4.26,6.8,1.53,9.47"/><path class="cls-2" d="m43.82,5.48h12.73s11.16,3.88,13.45,8.5"/><path class="cls-2" d="m43.82,31.08s5.17.84,6.86-2.81"/><path class="cls-2" d="m50.68,31.38s1.07-3.73,3.05-3.5,1.89,1.15,1.89,1.31-.98,2.19-1.89,2.19h-3.05Z"/><path class="cls-2" d="m50.29,9.23s-1.4,20.02,22.66,27.75c0,0,5.1,1.59,5.1-1.42s-2.3-5.73-2.3-5.73"/><path class="cls-2" d="m43.82,32.41s20.23-.91,26.82,13.49"/><path class="cls-2" d="m43.82,38.42s19.94-1.89,24.6,16.98c0,0,1.95-1.14,1.59-3.22-3.44-19.44-26.18-17.86-26.18-17.86"/><path class="cls-2" d="m65.93,65.52c-.1,0,5.64-5.59,5.64-5.59,0,0,3.1,3.6,7.23.49,0,0,1.57,21.03-7.01,21.03,0,0,.31-15.94-5.85-15.94Z"/><path class="cls-2" d="m71.86,58.84c-.19-.29,3.65-7.65,3.65-7.65,0,0,3.68,1.02,4.81-.72h2.51s-3.5,6.76-3.22,7.39-.49,1.76-.49,1.76c0,0-4.45,3.59-7.27-.78Z"/><path class="cls-2" d="m56.77,29.25s11.81,7.27,19.61,16.64"/><path class="cls-2" d="m50.29,9.23s-.1-3.75,3.44-3.75"/><path class="cls-2" d="m82.84,48.81c-2.76,2.47-7.39,1.84-7.39,1.84,0,0,.53-2.03.7-2.03s.53-9.21.53-9.21c0,0,.31-1.23,2.31-1.32l.15-1.59,2.88-2.93,1.86,4.55s-.11,5.29-1.24,6.17l.19,4.52Z"/><path class="cls-2" d="m44.83,38.37c0,.41,0,12.63,0,12.63,0,0,6.27,5.54,10.07-1.62,0,0,1.94-7.71,1.67-8.69"/><path class="cls-2" d="m54.74,49.67c.21.24-1.17,7.04,7.07,5.07l3.84-6.11"/><path class="cls-2" d="m62.78,53.21s-.38,3.07,2.2,3.65,3.07-2.82,3.07-2.82"/><path class="cls-2" d="m52.39,58.81v-3.07c-2.4-3.86-8.32-1.36-8.32-1.36v2.54"/><path class="cls-2" d="m59.21,62.58v-5.15c-3.53-3.44-5.85-.91-5.85-.91v2.63"/><path class="cls-2" d="m43.69,66.6s4.96-.15,10.24-2.23c0,0,5.67-.7,6.69.45s9.22-8.04,7.8-9.42c0,0-6.04,10.73-9.69,6.89-3.65-3.84-15.04-5.35-15.04-5.35"/><path class="cls-2" d="m60.78,78.54c2.84-.6,4.82-2.33,4.88-2.69s1.63-1.73,2.74-5.9c1.11-4.17-4.88-4.07-4.88-4.07,0,0-2.84-.66-5.52-.66-2.01,0-5.05.52-5.6.54,0,0-8.32,1.27-7.56,5.76.76,4.5,5.45,7.03,5.45,7.03,0,0,2.35.8,2.68,3.69,0,0-.05,9.31-2.41,10.17s-2.29-1.78-2.33-1.93-2.45-3.52-4.04-4.2"/><path class="cls-2" d="m45.34,73.26s-.29-1.19-1.41-2.07v16.42s6.7,7.25,6.98,12.83"/><path class="cls-2" d="m60.74,100.06s7.35-4.38,9.3-9.43c1.66-4.32,1.13-14.28-1.7-22.69.62,1.97.81,10.47.81,10.47,0,0-7.72,11.1-7.75,13.19s-1.17,2.13-1.17,2.13c1.23,1.49.95,1.49,1.15,3.77.07.82-.14,1.58-.46,2.21-.55,1.12-1.4,1.85-1.4,1.85-.04,1-.91,1.73-.91,1.73,0,0-2.06,2.21-8.4,2.21s-6.06-3.49-6.06-3.49v-14.07"/><path class="cls-2" d="m47.6,67.3s-2.65,2.91,5.3,9.13c0,0,3.47,3.06,2.75,6.67"/><path class="cls-2" d="m49.31,97.62l.22,3.63s-.31.71-1.7.24-1.61-7.19-1.61-7.19c.64-1.02,1.98,0,1.98,0,0,0,.88,1.93,1.11,3.33Z"/><path class="cls-2" d="m57.33,85.36c0-.09,4.57-2.94,5.63-3.27s2.16-2.72,2.16-2.72"/><path class="cls-2" d="m59.85,63.02c.06.02,0-3,0-3,0,0,.51-3.64,4.45-1.52v2.46"/><path class="cls-2" d="m48.77,94.25s1.68-1.08,2.04-.11c.13.35,2.29-.54,2.5-.61s7.39,0,7.39,0"/><polyline class="cls-2" points="51.06 94.47 59.8 94.47 59.8 100.34 50.75 100.34"/><ellipse class="cls-2" cx="53.33" cy="102.13" rx=".9" ry=".62"/><ellipse class="cls-2" cx="55.66" cy="102.13" rx=".9" ry=".62"/><ellipse class="cls-2" cx="57.71" cy="101.89" rx=".63" ry=".88"/><path class="cls-2" d="m53.33,92.3c.05-.11,3.66-11.28,10.53-13.93,0,0,3.86-.92,4.98-6.7"/><path class="cls-2" d="m78.05,36.22c-.37-.14-.17,1.05,1.06.6"/><ellipse class="cls-2" cx="23.17" cy="19.25" rx="3.5" ry="1.77" transform="translate(-6.87 21.39) rotate(-43.78)"/><ellipse class="cls-2" cx="22.46" cy="18.55" rx="5.47" ry="2.77" transform="translate(-6.59 20.7) rotate(-43.78)"/><ellipse class="cls-2" cx="22.46" cy="18.55" rx="9.37" ry="4.75" transform="translate(-6.59 20.7) rotate(-43.78)"/><ellipse class="cls-2" cx="22.46" cy="18.55" rx="12.94" ry="6.55" transform="translate(-6.59 20.7) rotate(-43.78)"/><ellipse class="cls-2" cx="23.35" cy="19.42" rx="15.4" ry="7.8" transform="translate(-6.95 21.56) rotate(-43.78)"/><path class="cls-2" d="m37.09,18.55s-1.53,3.75-.59,5.99c0,0-1.25-.71-1.9,0s-5.39,3.45-2.88,6.54"/><path class="cls-2" d="m40.85,9.23l-.29,7.69s-4.26,6.8-1.53,9.47"/><path class="cls-2" d="m43.95,5.48h-12.73s-11.16,3.88-13.45,8.5"/><path class="cls-2" d="m43.95,31.08s-5.17.84-6.86-2.81"/><path class="cls-2" d="m37.09,31.38s-1.07-3.73-3.05-3.5-1.89,1.15-1.89,1.31.98,2.19,1.89,2.19h3.05Z"/><path class="cls-2" d="m37.48,9.23s1.4,20.02-22.66,27.75c0,0-5.1,1.59-5.1-1.42s2.3-5.73,2.3-5.73"/><path class="cls-2" d="m43.95,32.41s-20.23-.91-26.82,13.49"/><path class="cls-2" d="m43.95,38.42s-19.94-1.89-24.6,16.98c0,0-1.95-1.14-1.59-3.22,3.44-19.44,26.18-17.86,26.18-17.86"/><path class="cls-2" d="m21.84,65.52c.1,0-5.64-5.59-5.64-5.59,0,0-3.1,3.6-7.23.49,0,0-1.57,21.03,7.01,21.03,0,0-.31-15.94,5.85-15.94Z"/><path class="cls-2" d="m15.91,58.84c.19-.29-3.65-7.65-3.65-7.65,0,0-3.68,1.02-4.81-.72h-2.51s3.5,6.76,3.22,7.39.49,1.76.49,1.76c0,0,4.45,3.59,7.27-.78Z"/><path class="cls-2" d="m31,29.25s-11.81,7.27-19.61,16.64"/><path class="cls-2" d="m37.48,9.23s.1-3.75-3.44-3.75"/><path class="cls-2" d="m4.93,48.81c2.76,2.47,7.39,1.84,7.39,1.84,0,0-.53-2.03-.7-2.03s-.53-9.21-.53-9.21c0,0-.31-1.23-2.31-1.32l-.15-1.59-2.88-2.93-1.86,4.55s.11,5.29,1.24,6.17l-.19,4.52Z"/><path class="cls-2" d="m42.94,38.37c0,.41,0,12.63,0,12.63,0,0-6.27,5.54-10.07-1.62,0,0-1.94-7.71-1.67-8.69"/><path class="cls-2" d="m33.02,49.67c-.21.24,1.17,7.04-7.07,5.07l-3.84-6.11"/><path class="cls-2" d="m24.99,53.21s.38,3.07-2.2,3.65-3.07-2.82-3.07-2.82"/><path class="cls-2" d="m35.38,58.81v-3.07c2.4-3.86,8.32-1.36,8.32-1.36v2.54"/><path class="cls-2" d="m28.56,62.58v-5.15c3.53-3.44,5.85-.91,5.85-.91v2.63"/><path class="cls-2" d="m44.08,66.6s-4.96-.15-10.24-2.23c0,0-5.67-.7-6.69.45s-9.22-8.04-7.8-9.42c0,0,6.04,10.73,9.69,6.89,3.65-3.84,15.04-5.35,15.04-5.35"/><path class="cls-2" d="m26.99,78.54c-2.84-.6-4.82-2.33-4.88-2.69s-1.63-1.73-2.74-5.9c-1.11-4.17,4.88-4.07,4.88-4.07,0,0,2.84-.66,5.52-.66,2.01,0,5.05.52,5.6.54,0,0,8.32,1.27,7.56,5.76-.76,4.5-5.45,7.03-5.45,7.03,0,0-2.35.8-2.68,3.69,0,0,.05,9.31,2.41,10.17s2.29-1.78,2.33-1.93,2.45-3.52,4.04-4.2"/><path class="cls-2" d="m42.42,73.26s.29-1.19,1.41-2.07v16.42s-6.7,7.25-6.98,12.83"/><path class="cls-2" d="m27.03,100.06s-7.35-4.38-9.3-9.43c-1.66-4.32-1.13-14.28,1.7-22.69-.62,1.97-.81,10.47-.81,10.47,0,0,7.72,11.1,7.75,13.19s1.17,2.13,1.17,2.13c-1.23,1.49-.95,1.49-1.15,3.77-.07.82.14,1.58.46,2.21.55,1.12,1.4,1.85,1.4,1.85.04,1,.91,1.73.91,1.73,0,0,2.06,2.21,8.4,2.21s6.06-3.49,6.06-3.49v-14.07"/><path class="cls-2" d="m40.17,67.3s2.65,2.91-5.3,9.13c0,0-3.47,3.06-2.75,6.67"/><path class="cls-2" d="m38.46,97.62l-.22,3.63s.31.71,1.7.24,1.61-7.19,1.61-7.19c-.64-1.02-1.98,0-1.98,0,0,0-.88,1.93-1.11,3.33Z"/><path class="cls-2" d="m30.44,85.36c0-.09-4.57-2.94-5.63-3.27s-2.16-2.72-2.16-2.72"/><path class="cls-2" d="m27.92,63.02c-.06.02,0-3,0-3,0,0-.51-3.64-4.45-1.52v2.46"/><path class="cls-2" d="m39,94.25s-1.68-1.08-2.04-.11c-.13.35-2.29-.54-2.5-.61s-7.39,0-7.39,0"/><polyline class="cls-2" points="36.71 94.47 27.97 94.47 27.97 100.34 37.02 100.34"/><ellipse class="cls-2" cx="34.44" cy="102.13" rx=".9" ry=".62"/><ellipse class="cls-2" cx="32.11" cy="102.13" rx=".9" ry=".62"/><ellipse class="cls-2" cx="30.06" cy="101.89" rx=".63" ry=".88"/><path class="cls-2" d="m34.44,92.3c-.05-.11-3.66-11.28-10.53-13.93,0,0-3.86-.92-4.98-6.7"/><path class="cls-2" d="m9.72,36.22c.37-.14.17,1.05-1.06.6"/><path class="cls-3" d="m45.36,34.25c.11,11.96.19,23.92.24,35.88,0,1.11,0,2.28-.6,3.22-.91-3.81-1-7.76-.94-11.68.09-5.98.53-11.95,1.33-17.87-.97,7.26-2.06,14.51-3.25,21.74-.37-1.19-.47-2.46-.3-3.7"/><path class="cls-3" d="m36.36,34.25c.06,6.31.11,12.62.15,18.94.02,3.07.04,6.15.05,9.22s.29,6.32-.04,9.4l.32-2.39c-.08.42-.17.78-.33,1.18l.91-2.15-.2.36,16.45,2.15c-.24-1.07-.44-2.14-.58-3.23l.32,2.39c-.53-4.32-.42-8.71-.22-13.05s.6-8.87,1.19-13.27c.28-2.11-1.21-4.94-2.64-6.36-1.56-1.56-4.12-2.74-6.36-2.64s-4.74.87-6.36,2.64l-1.41,1.82c-.81,1.4-1.22,2.92-1.23,4.54l-.07.48.32-2.39c-.96,7.1-2.02,14.18-3.19,21.25h17.36c-.13-.46-.22-.9-.3-1.37l.32,2.39c-.08-.79-.08-1.54,0-2.33.24-2.14-1.18-4.9-2.64-6.36-1.56-1.56-4.12-2.74-6.36-2.64s-4.74.87-6.36,2.64c-1.71,1.87-2.36,3.86-2.64,6.36-.22,2.01.08,4.15.62,6.09,1.02,3.67,4.75,6.78,8.68,6.61,1.6-.07,3.13-.48,4.54-1.23,1.75-.93,3.8-3.37,4.14-5.38,1.33-8.02,2.49-16.07,3.58-24.13h-18c-.67,5.05-1.1,10.12-1.26,15.21-.18,5.61-.06,11.24,1.2,16.73.79,3.46,4.12,5.99,7.48,6.45s7.25-1.13,8.97-4.3c2.2-4.06,1.83-8.54,1.81-12.99-.02-3.41-.03-6.81-.06-10.22-.04-6.81-.1-13.62-.16-20.43-.04-4.71-4.11-9.22-9-9s-9.05,3.96-9,9h0Z"/><path class="cls-3" d="m40.05,31.74c.6,12.75-1.16,25.59-5.16,37.74-1.33-4.23-1.47-8.73-1.59-13.15-.23-8.36-.47-16.72-.7-25.08.33,9.12.67,18.24,1,27.36.29-8.28.05-16.63-1.56-24.76l-2.29,29.5c-.13,1.63-.25,3.26-.63,4.85.21-10.76.41-21.58-1.14-32.24.27,9.74-.23,19.5-1.51,29.16-.13,1.01-.3,2.09-.97,2.87-.76-2.44-.98-5.01-1.2-7.55-.66-7.68-1.32-15.35-1.98-23.03.6,1.4.61,2.97.61,4.48.01,4.27.03,8.53.04,12.8.51-7.18,1.02-14.36,1.53-21.54.05-.66.11-1.36.49-1.91.82.32,1.23,1.19,1.58,1.98,1,2.33,2.01,4.66,3.01,6.99-.39-4.02-.64-8.05-.76-12.09,2.82,1.2,3.65,4.65,5.55,7.02.24.3.65.61.97.39.72-3.65-.77-7.35-.96-11.07-.02-.36,0-.78.3-1,.42-.3.99.04,1.38.38,1.76,1.55,3.26,3.39,4.41,5.42-3.11.78-6.53.36-9.35-1.14-.41-.22-.86-.56-.79-1.01.05-.33.38-.55.67-.73,5.53-3.24,11.93-5.07,18.38-5.27-3.93.83-8.02.98-12,.44-.23-.72.63-1.29,1.35-1.55,2.71-.98,5.58-1.51,8.47-1.55-1.21.04-2.42-.1-3.58-.42.24-1.17,1.55-1.78,2.72-2.12,2.2-.64,4.5-.94,6.8-.89.7.01,1.54.14,1.83.76-1.33,2-3.65,3.25-6.05,3.71s-4.9.2-7.28-.33c-2.33-.52-4.87-1.52-5.75-3.69-.51-1.26-.35-2.66-.18-4.01.04-.31.1-.66.34-.86.16-.13.37-.18.58-.22,1.89-.36,3.89-.16,5.66.57.57.23,1.21.82.87,1.32-.17.26-.52.32-.84.37-.81.11-1.62.23-2.43.34,4.78-.28,9.55-.56,14.33-.84"/><path class="cls-3" d="m31.05,31.74c.28,6.3,0,12.61-.82,18.86l.32-2.39c-.88,6.41-2.33,12.73-4.34,18.88h17.36c-.49-1.61-.83-3.25-1.06-4.91l.32,2.39c-.7-5.4-.6-10.92-.75-16.36s-.32-11.31-.48-16.97h-18c.33,9.12.67,18.24,1,27.36.17,4.7,4.02,9.22,9,9s8.83-3.95,9-9c.31-9.11-.14-18.2-1.88-27.16-.39-2.03-2.33-4.43-4.14-5.38s-3.69-1.34-5.74-1.07c-4.63.62-7.45,4.31-7.8,8.84-.43,5.49-.85,10.98-1.28,16.47s-.61,10.8-1.31,16.13l.32-2.39c-.09.59-.19,1.17-.32,1.75l17.68,2.39c.22-11.62.19-23.11-1.46-34.64-.28-1.99-2.42-4.47-4.14-5.38-1.82-.96-3.69-1.34-5.74-1.07-4.29.58-7.92,4.34-7.8,8.84.26,9.74-.25,19.49-1.51,29.16l.32-2.39c-.09.65-.2,1.27-.4,1.88l.91-2.15c-.16.37-.32.66-.57.99l16.45,2.15c-.39-1.3-.65-2.62-.83-3.96l.32,2.39c-.56-4.36-.81-8.77-1.19-13.14s-.77-8.98-1.16-13.47l-17.68,2.39c.25.65.41,1.3.51,1.99l-.32-2.39c.25,2.45.12,4.96.12,7.41,0,2.63.02,5.25.02,7.88.01,4.71,4.13,9.22,9,9,5.16-.23,8.64-3.96,9-9,.27-3.75.53-7.51.8-11.26s.36-7.42.81-11.08l-.32,2.39c.04-.26.11-.52.21-.76l-.91,2.15.19-.35-12.31,3.23c.2.08.38.19.54.33l-1.82-1.41c.16.14.3.3.42.48l-1.41-1.82c.74,1.16,1.2,2.53,1.74,3.79.63,1.46,1.26,2.91,1.88,4.37l1.41,1.82c.82.88,1.78,1.5,2.9,1.86,1.79.75,3.96,1.07,5.86.45,1.48-.48,2.82-1.26,3.97-2.31,1.51-1.38,2.83-4.29,2.64-6.36-.38-4.02-.64-8.05-.76-12.09l-13.54,7.77c.41.19.77.41,1.13.67l-1.82-1.41c.42.35.79.73,1.14,1.16l-1.41-1.82c.93,1.23,1.59,2.62,2.4,3.94.7,1.13,1.57,2.41,2.49,3.3,2.5,2.44,6.13,3.45,9.52,2.49,2.8-.79,5.76-3.27,6.29-6.29.49-2.82.57-5.19.19-7.99-.27-2.04-.67-4.05-.97-6.08l.32,2.39c-.1-.76-.24-1.57-.14-2.34l-.32,2.39.09-.25-2.31,3.97.18-.2-3.97,2.31.27-.11-2.39.32h.29c-.8-.09-1.6-.2-2.39-.31l.29.11-2.15-.91.28.17-1.82-1.41c1.16.92,2.16,2.05,3.07,3.22l-1.41-1.82c.58.77,1.11,1.57,1.59,2.4l5.38-13.22c-.41.1-.82.18-1.23.24l2.39-.32c-1.26.17-2.5.17-3.76.01l2.39.32c-1.11-.17-2.17-.46-3.22-.87l2.15.91c-.5-.21-.98-.44-1.44-.72l1.82,1.41-.27-.23,1.41,1.82-.18-.28,1.23,4.54-.04-.32-1.23,4.54.13-.3-1.41,1.82.25-.24-1.82,1.41c1.44-.93,3.02-1.67,4.59-2.35l-2.15.91c3.25-1.37,6.64-2.3,10.13-2.79l-2.39.32c1.31-.17,2.62-.28,3.94-.33l-2.39-17.68c-.91.19-1.82.34-2.74.47l2.39-.32c-3.09.38-6.18.37-9.26-.03l9,9-.04-.3-.32,2.39.08-.28-.91,2.15.17-.25-1.41,1.82.24-.23-1.82,1.41c.18-.14.38-.27.59-.36l-2.15.91c1.78-.74,3.71-1.16,5.61-1.44l-2.39.32c1.06-.14,2.11-.22,3.18-.24,4.7-.11,9.22-4.06,9-9s-3.96-9.08-9-9c-.61,0-1.2-.02-1.81-.08l2.39.32c-.6-.08-1.18-.2-1.77-.35l6.29,11.07.09-.3-.91,2.15c.08-.19.19-.37.32-.53l-1.41,1.82c.14-.16.29-.31.47-.44l-1.82,1.41c.29-.19.56-.35.88-.5l-2.15.91c1.31-.53,2.71-.8,4.1-1.01l-2.39.32c1.4-.18,2.87-.33,4.28-.17l-2.39-.32c.2.03.4.08.59.16l-2.15-.91.25.14-1.82-1.41.21.18-1.41-1.82.16.24v-9.08l-.22.31,1.41-1.82c-.48.61-1,1.12-1.61,1.6l1.82-1.41c-.63.45-1.29.82-2,1.14l2.15-.91c-1.02.41-2.04.66-3.13.81l2.39-.32c-1.38.14-2.74.1-4.12-.07l2.39.32c-1.57-.22-3.12-.54-4.59-1.11l2.15.91c-.64-.27-1.23-.58-1.79-.98l1.82,1.41c-.35-.27-.66-.56-.95-.89l1.41,1.82c-.27-.35-.49-.71-.67-1.12l.91,2.15c-.15-.44-.24-.84-.31-1.3l.32,2.39c-.06-.91.02-1.8.13-2.71l-.32,2.39c.02-.21.07-.42.15-.62l-2.31,3.97.19-.24-1.82,1.41.27-.14-2.15.91c.24-.07.49-.12.74-.15l-2.39.32c.89-.11,1.76-.11,2.66-.02l-2.39-.32c.89.13,1.73.35,2.57.67l-2.15-.91c.2.08.39.19.55.33l-1.82-1.41.22.22-1.41-1.82.15.25-.91-2.15.04.26v-4.79l-.09.26,2.31-3.97-.22.2,3.97-2.31c-.93.35-2.06.37-3.04.51-1.98.28-4.48,2.43-5.38,4.14-.96,1.82-1.34,3.69-1.07,5.74.56,4.19,4.35,8.07,8.84,7.8,4.78-.28,9.55-.56,14.33-.84,2.39-.14,4.64-.91,6.36-2.64,1.56-1.56,2.74-4.12,2.64-6.36-.21-4.64-3.97-9.29-9-9s-9.55.56-14.33.84l2.39,17.68c1.87-.26,3.48-.41,5.19-1.41,3.72-2.18,5.59-6.72,4.41-10.88-1.57-5.53-7.01-7.61-12.16-8.08-5.43-.5-11.09,1.75-12.64,7.47-1.03,3.79-.7,8.47,1.33,11.85,3.51,5.83,10.5,7.71,16.86,8.1,2.75.17,5.69-.2,8.26-1.2,3.9-1.52,6.79-3.75,9.21-7.18,1.73-2.45,1.65-6.62,0-9.08-2.26-3.37-5.43-5.02-9.45-5.21-2.21-.11-4.5.25-6.66.61-5.26.88-10.07,3.62-11.69,9-1.38,4.59,1.65,9.89,6.29,11.07,1.93.49,3.98.77,5.97.74V9.46c-3.06.07-6.19.48-9.13,1.31-1.64.47-3.36,1.05-4.79,1.96-2.83,1.81-5.33,5.29-4.9,8.83.29,2.36.78,4.66,2.64,6.36l1.82,1.41c1.4.81,2.92,1.22,4.54,1.23,4.81.62,9.65.21,14.4-.76,2.04-.42,4.42-2.32,5.38-4.14s1.34-3.69,1.07-5.74c-.57-4.26-4.34-7.97-8.84-7.8-7.7.28-15.2,2.26-21.97,5.96-3.54,1.94-6.14,5.12-6.05,9.35.07,3.11,1.59,5.72,3.99,7.58,1.42,1.1,2.79,1.67,4.5,2.33,4.12,1.59,8.74,1.6,13,.61,5.72-1.33,8.19-8.36,5.38-13.22-1.2-2.08-2.69-4.05-4.33-5.8-2.86-3.07-7.01-5.56-11.35-4.24-4.96,1.51-7.61,6.13-7.06,11.12.29,2.6.83,5.14,1.19,7.72l-.32-2.39c.16,1.33.22,2.63.05,3.96l.32-2.39-.08.44,6.29-6.29-.25.07h4.79l-.26-.07,2.15.91-.25-.17,1.82,1.41-.21-.22,1.41,1.82c-1.02-1.32-1.71-2.84-2.6-4.24-1.53-2.39-3.54-4.79-6.17-6.01-2.99-1.39-6.11-1.74-9.08,0-2.67,1.56-4.55,4.63-4.46,7.77.12,4.04.38,8.07.76,12.09l16.77-4.54c-1.85-4.29-3.31-9.93-7.82-12.2-2.07-1.04-4.64-1.65-6.94-.91s-4.23,2.06-5.38,4.14c-1.63,2.95-1.69,6.13-1.92,9.39-.14,2.04-.29,4.08-.43,6.12-.3,4.16-.59,8.32-.89,12.48h18c0-3.12-.02-6.24-.03-9.35-.01-3.38.28-7.12-.95-10.32-.83-2.15-2-4.25-4.14-5.38-1.82-.96-3.69-1.34-5.74-1.07-4.1.55-8.19,4.37-7.8,8.84.46,5.31.91,10.61,1.37,15.92.48,5.62.52,11.62,2.13,17.05,1.03,3.46,3.92,5.97,7.48,6.45,1.65.22,3.13.03,4.66-.61,1.93-.81,3.05-1.99,4.3-3.68,2.27-3.06,2.24-7.42,2.64-11.04.32-2.82.56-5.66.75-8.49.37-5.67.47-11.36.32-17.04l-17.68,2.39c.05.32.09.65.14.97l-.32-2.39c1.38,10.37,1.2,20.84,1,31.27-.09,4.48,3.49,8.26,7.8,8.84s8.91-2.05,9.87-6.45c.74-3.34.91-6.79,1.18-10.19.23-2.95.46-5.9.69-8.85.46-5.9.91-11.8,1.37-17.7l-17.68,2.39c.31,1.6.57,3.2.8,4.81l-.32-2.39c.87,6.62.99,13.29.77,19.96h18c-.33-9.12-.67-18.24-1-27.36-.17-4.7-4.02-9.22-9-9s-9.14,3.96-9,9c.19,6.64.37,13.28.56,19.92s.03,14.06,2.06,20.71c1.11,3.65,4.68,6.79,8.68,6.61s7.4-2.69,8.68-6.61c4.2-12.85,6.09-26.62,5.48-40.13-.11-2.37-.93-4.66-2.64-6.36-1.56-1.56-4.12-2.74-6.36-2.64-4.7.21-9.23,3.96-9,9h0Z"/><path class="cls-3" d="m44.74,19.3c-.26,2.05-.14,4.13-.04,6.2.49,10.04.62,20.16-1.09,30.07-.09.52-.22,1.1-.66,1.41-.25-.98-.14-2.01,0-3.01.29-2.05.68-4.09,1.11-6.12,1.51-7.26,3.35-14.46,5.52-21.56.45.05.63.57.71,1.01,1,5.84-.23,11.83.11,17.74,1.65-3.01,2.35-6.44,2.69-9.84.34-3.4.35-6.83.72-10.22.05-.42.11-.88.41-1.19.68.16,1.09.82,1.4,1.44.79,1.57,1.42,3.21,1.88,4.9-.92-2.36-1.98-4.66-3.16-6.91,3.4,2.85,4.8,7.45,4.71,11.82s-1.5,8.59-2.89,12.75c-1.16,3.46-2.32,6.92-3.48,10.38-.34-.21-.38-.66-.39-1.04-.22-7.19-.44-14.38-.66-21.57-.26,6.88-.54,13.84-2.48,20.47-.57-.36-.74-1.08-.85-1.73-.54-3.07-.86-6.17-.96-9.28.32,3.74.45,7.5.39,11.26"/><path class="cls-3" d="m35.74,19.3c-.31,2.71-.07,5.43.05,8.14s.21,5.51.23,8.27c.04,5.51-.19,11.02-.9,16.49l.32-2.39c-.19,1.39-.25,2.98-.77,4.3l.91-2.15-.17.26,1.41-1.82-.23.22,15.04,3.97-.09-.42.32,2.39c-.1-.88-.03-1.72.09-2.59l-.32,2.39c1.35-9.36,3.88-18.65,6.63-27.68l-11.07,6.29.24.08-3.97-2.31.18.17-1.41-1.82.13.23-.91-2.15c.17.48.22.97.29,1.48l-.32-2.39c.68,5.59-.31,11.19-.04,16.79.19,3.83,2.65,7.78,6.61,8.68s8.25-.53,10.16-4.14c2.33-4.39,3.28-8.83,3.84-13.72.43-3.72.35-7.49.84-11.21l-.32,2.39c.03-.21.09-.42.19-.61l-.91,2.15.18-.26-10.16,4.14.32.12-2.15-.91.28.19-1.82-1.41.24.24-1.41-1.82c.56.75.92,1.63,1.29,2.48l-.91-2.15c.45,1.08.83,2.18,1.15,3.31l17.36-4.79c-1.22-3.08-2.53-6.12-4.07-9.06l-14.14,10.91c.67.58,1.26,1.2,1.8,1.9l-1.41-1.82c.67.91,1.21,1.88,1.65,2.91l-.91-2.15c.52,1.29.86,2.62,1.07,4l-.32-2.39c.25,1.94.2,3.86-.05,5.8l.32-2.39c-.5,3.42-1.57,6.69-2.66,9.96-1.16,3.46-2.32,6.92-3.48,10.38,5.01-1.32,10.03-2.65,15.04-3.97l-.2-.2,1.41,1.82-.12-.26.91,2.15-.06-.29.32,2.39c-.48-7.26-.46-14.6-.68-21.87-.14-4.7-4.04-9.22-9-9s-8.81,3.95-9,9c-.16,4.23-.34,8.46-.88,12.66l.32-2.39c-.36,2.64-.86,5.24-1.6,7.8l15.04-3.97-.25-.21,1.41,1.82c-.15-.16-.26-.34-.35-.55l.91,2.15c-.38-1.08-.48-2.27-.64-3.4l.32,2.39c-.3-2.28-.5-4.56-.58-6.86h-18c.31,3.75.44,7.5.39,11.26-.06,4.71,4.18,9.22,9,9s8.94-3.95,9-9c.05-3.76-.08-7.51-.39-11.26-.2-2.42-.87-4.6-2.64-6.36-1.56-1.56-4.12-2.74-6.36-2.64-4.73.21-9.18,3.96-9,9,.08,2.3.28,4.58.58,6.86.48,3.67.74,7.96,3.87,10.52,2.55,2.09,5.42,3.23,8.76,2.31,3.05-.84,5.42-3.26,6.29-6.29,2.12-7.4,2.51-15.2,2.8-22.86h-18c.13,4.17.25,8.34.38,12.5.06,2.04.12,4.09.19,6.13.12,3.79.17,7.48,3.12,10.35,2.31,2.24,5.62,3.18,8.76,2.31s5.27-3.26,6.29-6.29c2.36-7.05,5.3-14.13,6.3-21.53,1.06-7.89-.66-16.72-6.95-22.17-3.42-2.96-8.11-3.57-11.82-.7s-4.43,7.59-2.32,11.61c.88,1.68,1.7,3.4,2.45,5.15l-.91-2.15c.25.58.48,1.17.72,1.76.89,2.26,1.97,4.11,4.14,5.38,1.93,1.13,4.77,1.61,6.94.91,4.61-1.49,7.67-6.22,6.29-11.07-.61-2.15-1.47-4.23-2.41-6.26-.27-.6-.57-1.14-.94-1.68-1.66-2.4-3.5-3.67-6.22-4.69l-2.39-.32c-1.24-.05-2.39.21-3.47.78-1.91.81-3.09,1.99-4.3,3.68-1.4,1.96-1.53,4.41-1.74,6.71-.1,1.13-.17,2.27-.24,3.41-.13,2.4-.24,4.79-.54,7.17l.32-2.39c-.32,2.37-.84,4.68-1.76,6.9l.91-2.15c-.24.55-.5,1.08-.78,1.61l16.77,4.54c-.19-3.77.2-7.53.28-11.3.04-1.84-.03-3.67-.24-5.49-.26-2.21-.4-4.04-1.52-6.02-1.34-2.36-3.38-3.75-5.93-4.62-2.04-.7-5.13-.26-6.94.91-2,1.29-3.43,3.07-4.14,5.38-1.6,5.25-3.03,10.55-4.27,15.89-.6,2.58-1.17,5.18-1.68,7.78-.77,3.95-1.49,7.81-.69,11.81.61,3.01,3.42,5.5,6.29,6.29,3.17.87,6.4-.1,8.76-2.31,2.03-1.91,2.85-4.42,3.25-7.06.35-2.32.66-4.64.9-6.97.33-3.3.5-6.62.55-9.94s-.01-6.65-.13-9.98-.51-6.75-.13-10.09c.24-2.14-1.18-4.91-2.64-6.36-1.56-1.56-4.12-2.74-6.36-2.64s-4.74.87-6.36,2.64l-1.41,1.82c-.81,1.4-1.22,2.92-1.23,4.54h0Z"/><path class="cls-3" d="m40.62,74.62c-1.56,2.22-2.84,4.63-3.78,7.16-.26.7-.41,1.67.26,2.03.45.24,1.04.02,1.37-.36s.45-.89.57-1.38c.04-.19.08-.41-.05-.55-.1-.1-.25-.13-.39-.14-1.25-.13-2.51.04-3.76.21-.69.09-1.39.19-1.99.53-.78.45-1.27,1.24-1.69,2.02-.99,1.83-1.79,3.76-2.38,5.75-.05.18-.1.37-.06.55.05.2.2.36.36.49,1.01.81,2.45.86,3.64,1.41.7.33,1.31.84,1.85,1.38.09.09.19.19.32.21.33.05.47-.4.45-.73-.15-2.22-1.47-4.18-2.76-6.02-.15-.21-.31-.43-.56-.49-.34-.08-.65.18-.91.4-1.1.95-2.48,1.71-3.95,1.68-.68-.01-1.45-.26-1.71-.88-.23-.54,0-1.16.26-1.69,1.14-2.37,2.65-4.57,4.46-6.5-.97-.08-1.89.46-2.57,1.14s-1.19,1.51-1.84,2.21c-.14.15-.31.3-.51.29-.26-.02-.4-.3-.48-.54-.47-1.32-.8-2.69-.99-4.08-.12.3-.25.62-.51.83s-.68.27-.91.03c-.2-.2-.19-.51-.17-.78.13-1.78.27-3.57.4-5.35-.17.48-.34.97-.52,1.45"/><path class="cls-3" d="m32.85,70.08c-.91,1.31-1.74,2.68-2.46,4.12-1.14,2.28-2.25,4.61-2.59,7.14-.31,2.28-.02,4.54,1.15,6.58,1.52,2.67,4.18,4.4,7.19,4.81,2.37.32,4.49-.12,6.58-1.27,2.42-1.32,3.93-3.76,4.79-6.28.65-1.92.76-4.12.15-6.06-1.14-3.67-4.15-6.09-7.87-6.59-2.69-.36-5.37-.04-8.04.48-3.38.66-6.09,3-7.92,5.82-1.17,1.8-1.98,3.93-2.77,5.91-.34.85-.67,1.71-.92,2.59-.99,3.43-.13,7.15,2.34,9.75,2.1,2.21,4.84,2.83,7.56,3.83l-2.15-.91c.51.22.95.49,1.39.83l-1.82-1.41c1.59,1.35,2.94,2.62,5.02,3.19,4,1.1,8.37-.74,10.47-4.28s1.49-7.46.02-10.95c-.75-1.79-1.64-3.37-2.78-4.94-2.06-2.84-4.7-4.79-8.43-4.74-2.94.04-5.08,1.43-7.28,3.25l1.82-1.41c-.55.42-1.11.77-1.73,1.06l2.15-.91c-.42.17-.84.29-1.29.37l2.39-.32c-.32.03-.61.05-.93.03l2.39.32c-.27-.04-.5-.1-.75-.2l2.15.91c-.15-.07-.29-.16-.42-.27l1.82,1.41-.16-.18,1.41,1.82-.12-.21.91,2.15-.09-.33.32,2.39v-.34c-.1.8-.21,1.6-.32,2.39.04-.24.1-.47.2-.69l-.91,2.15c.79-1.75,1.82-3.38,2.98-4.91l-1.41,1.82c.52-.66,1.06-1.3,1.64-1.92,2.49-2.69,3.31-6.41,1.86-9.83s-4.6-5.48-8.22-5.53c-2.27-.03-4.75.64-6.63,1.95-2.12,1.48-3.29,3-4.86,5.04l1.41-1.82c-.29.37-.57.73-.92,1.04l3.97-2.31-.28.08,6.94.91-.22-.1,1.82,1.41-.16-.2,1.41,1.82-.11-.24.91,2.15c-.46-1.33-.79-2.69-.99-4.08l-.91-2.15-1.41-1.82c-1.41-1.41-3.22-2.21-5.17-2.48-1.65-.22-3.13-.03-4.66.61-1.61.68-3.59,2-4.3,3.68-.07.21-.17.4-.29.59l1.41-1.82-.22.24,1.82-1.41-.22.13,2.15-.91-.25.06,2.39-.32-.24-.03,4.54,1.23-.21-.12,3.23,3.23-.14-.23.91,2.15-.04-.27.32,2.39c.06-1.88.27-3.76.41-5.64.16-2.11-1.1-4.95-2.64-6.36s-3.16-2.21-5.17-2.48-4.06-.01-5.74,1.07c-2.05,1.32-3.31,3.07-4.14,5.38-.17.48-.34.97-.52,1.45-.75,2.1-.19,5.06.91,6.94s3.23,3.65,5.38,4.14c2.3.52,4.89.41,6.94-.91s3.31-3.07,4.14-5.38c.17-.48.34-.97.52-1.45l-17.68-2.39c-.2,2.66-.79,5.7-.04,8.3,1.17,4.03,5.02,7.04,9.26,6.99,2.2-.03,4.2-.79,5.92-2.12,1.15-.89,2.25-1.99,2.83-3.36l-16.45-2.15c.42,2.97,1.34,6.22,3.49,8.39,2.76,2.8,6.83,3.49,10.41,1.98,2.62-1.1,3.78-2.85,5.44-5l-1.41,1.82c.43-.55.87-1.08,1.41-1.53l-1.82,1.41c.27-.2.53-.35.84-.5l-2.15.91c.2-.08.4-.15.61-.19l-2.39.32c.21-.04.42-.05.64-.03-2.12-5.12-4.24-10.24-6.36-15.36-3.92,4.24-8.76,10.69-7.09,16.79,1.3,4.75,6.06,7.94,10.94,7.63,2.37-.15,4.19-.65,6.3-1.75,1.36-.71,2.54-1.74,3.71-2.71l-1.82,1.41.22-.14-2.15.91.23-.09-2.39.32h.25c-1.51-.41-3.03-.82-4.54-1.23l.23.11-1.82-1.41.18.18-1.41-1.82c.9,1.2,1.73,2.49,2.33,3.87l-.91-2.15c.26.66.44,1.31.55,2.01l-.32-2.39c.03.18.04.37.03.55l.32-2.39-.05.21.91-2.15-.09.18,1.41-1.82-.13.12,3.97-2.31-.18.02,6.94.91-.17-.08,1.82,1.41c-1.25-1.13-2.54-2.34-4.09-3.04s-3.18-1.1-4.75-1.74l2.15.91c-.28-.14-.51-.28-.76-.46l1.82,1.41-.22-.22,1.41,1.82-.14-.27,1.23,4.54v-.27c-.11.8-.22,1.6-.33,2.39.28-1.15.73-2.28,1.18-3.37l-.91,2.15c.54-1.26,1.11-2.54,1.89-3.66l-1.41,1.82c.25-.32.5-.59.82-.84l-1.82,1.41c.17-.13.36-.23.56-.31l-2.15.91c.67-.25,1.35-.34,2.06-.43l-2.39.32c1.13-.15,2.25-.25,3.39-.16l-2.39-.32.21.04-2.15-.91.18.1-4.14-5.38.09.26v-4.79c-.06.4-.16.78-.3,1.16l.91-2.15c-.08.19-.18.36-.31.51l1.41-1.82-.18.18,1.82-1.41-.22.14,2.15-.91c-.15.08-.31.13-.49.14l2.39-.32-.25-.02,2.39.32-.23-.08,2.15.91-.19-.14,1.82,1.41-.14-.18,1.41,1.82-.09-.21.91,2.15-.05-.23.32,2.39c-.02-.17-.01-.34.01-.51l-.32,2.39c.11-.62.36-1.2.6-1.78l-.91,2.15c.91-2.16,2.04-4.2,3.38-6.13s1.48-4.86.91-6.94-2.19-4.35-4.14-5.38c-2.09-1.1-4.62-1.66-6.94-.91s-3.98,2.12-5.38,4.14h0Z"/><path class="cls-3" d="m22.29,81.26c4.71,0,9.22-4.14,9-9s-3.95-9-9-9c-4.71,0-9.22,4.14-9,9s3.95,9,9,9h0Z"/><path class="cls-3" d="m22.31,80.3c4.71,0,9.22-4.14,9-9s-3.95-9-9-9c-4.71,0-9.22,4.14-9,9s3.95,9,9,9h0Z"/><path class="cls-3" d="m41.58,65.79c-.22-.03-.42.15-.48.35s-.01.42.04.63c.28,1.11.71,2.19,1.27,3.2.43.76.93,1.49,1.33,2.26.18.36.35.74.36,1.14.02.65-.42,1.29-1.04,1.52"/><path class="cls-3" d="m41.58,56.79c-1.77.06-3.25.38-4.79,1.28-.65.49-1.29.99-1.92,1.49l-1.41,1.82c-.47.78-.83,1.64-1.06,2.53-.46,1.75-.32,3.22,0,4.94.21,1.14.69,2.2,1.14,3.26s.88,2.07,1.47,3.04c.4.67.84,1.32,1.15,2.04l-.91-2.15c.07.19.12.38.16.58l-.32-2.39c.01.14,0,.27,0,.41l.32-2.39c-.03.13-.06.25-.11.37l.91-2.15c-.06.12-.12.23-.2.34l1.41-1.82c-.09.11-.17.19-.27.29l1.82-1.41c-.14.11-.29.19-.45.27-1.05.57-1.89,1.34-2.53,2.32-.8.87-1.33,1.89-1.61,3.06-.38,1.2-.43,2.39-.16,3.59.05,1.2.41,2.31,1.07,3.35,1.24,1.92,3.08,3.61,5.38,4.14l2.39.32c1.62,0,3.14-.41,4.54-1.23.17-.07.3-.16.45-.27.66-.47,1.44-1,2.01-1.59,1.22-1.27,2.17-2.83,2.64-4.53.27-.99.42-2.03.39-3.05-.07-2.2-.54-3.3-1.45-5.26-.62-1.34-1.53-2.51-2.11-3.87l.91,2.15c-.29-.7-.57-1.44-.68-2.18l.32,2.39v-.16c-.11.8-.22,1.6-.33,2.39l.03-.16-.91,2.15c.03-.08.07-.16.13-.22l-1.41,1.82.1-.08-3.97,2.31.12-.05-2.39.32h.13c2.35-.08,4.68-.95,6.36-2.64.88-.82,1.5-1.78,1.86-2.9.56-1.07.82-2.23.78-3.47l-.32-2.39c-.43-1.52-1.2-2.85-2.31-3.97-1.73-1.59-3.96-2.72-6.36-2.64h0Z"/><path class="cls-3" d="m45.81,77.51c1.74,1.4,3.04,3.31,3.7,5.41l-.52-5.99c-.02-.22,0-.52.23-.58.11-.03.22.01.32.07.39.22.63.61.85.99.7,1.25,1.25,2.58,1.62,3.95-2.54-5.21-3.93-10.86-5.31-16.47-.3,2.39-.04,4.84.75,7.11.07.19.29.41.42.26"/><path class="cls-3" d="m39.45,83.88c.67.56,1.28,1.18,1.83,1.86l-1.41-1.82c.59.77,1.07,1.59,1.47,2.47l-.91-2.15c.15.35.28.71.4,1.08,1.41,4.29,5.33,7.06,9.87,6.45,1.89-.25,3.84-1.03,5.17-2.48,1.53-1.67,2.84-4.01,2.64-6.36-.18-2.04-.48-4.12-.53-6.17l-.32,2.39.03-.17-.91,2.15.07-.14-3.23,3.23.13-.08-4.54,1.23h.16c-1.51-.41-3.03-.82-4.54-1.23.14.05.26.12.37.22l-1.82-1.41c.13.11.25.24.35.39l-1.41-1.82c.46.7.82,1.46,1.15,2.23l-.91-2.15c.29.71.54,1.43.75,2.18l16.45-6.94c-.34-.7-.66-1.41-.97-2.13l.91,2.15c-1.94-4.62-3.15-9.49-4.35-14.35-.51-2.07-2.24-4.38-4.14-5.38s-3.69-1.34-5.74-1.07c-1.89.25-3.84,1.03-5.17,2.48l-1.41,1.82c-.81,1.4-1.22,2.92-1.23,4.54-.28,2.44.02,4.89.48,7.29.28,1.47.77,3.09,1.5,4.37,2.13,3.73,6.44,5.5,10.58,4.4,2.18-.58,4.25-2.2,5.38-4.14s1.61-4.77.91-6.94-2.05-4.28-4.14-5.38-4.54-1.54-6.94-.91l-.15.04,6.94.91-.16-.12,3.23,3.23-.11-.18.91,2.15c-.35-1.04-.6-2.1-.75-3.19l.32,2.39c-.15-1.31-.16-2.61,0-3.92l-17.68,2.39c1.57,6.41,3.34,12.66,6.22,18.62.9,1.86,3.4,3.69,5.38,4.14s3.95.35,5.86-.45c4.06-1.71,6.44-6.26,5.21-10.62-.57-2-1.38-3.98-2.37-5.81-2.19-4.08-6.81-6.77-11.49-5.48-3.19.88-5.5,3.42-6.49,6.51-.48,1.48-.35,2.72-.22,4.15.13,1.53.27,3.05.4,4.58l17.68-2.39c-1.16-3.54-3.11-6.98-6.01-9.38-1.88-1.56-3.83-2.64-6.36-2.64-2.21,0-4.84.98-6.36,2.64s-2.74,3.97-2.64,6.36c.1,2.26.83,4.86,2.64,6.36h0Z"/><path class="cls-3" d="m60.5,63.17c-3.5-.03-6.99.14-10.47.53"/><path class="cls-3" d="m60.5,54.17c-3.5-.03-6.99.15-10.47.53-1.24-.05-2.39.21-3.47.78-1.12.36-2.08.98-2.9,1.86-.88.82-1.5,1.78-1.86,2.9-.56,1.07-.82,2.23-.78,3.47.1,2.33.87,4.74,2.64,6.36l1.82,1.41c1.4.81,2.92,1.22,4.54,1.23,3.48-.38,6.97-.56,10.47-.53,1.24.05,2.39-.21,3.47-.78,1.12-.36,2.08-.98,2.9-1.86.88-.82,1.5-1.78,1.86-2.9.56-1.07.82-2.23.78-3.47-.1-2.33-.87-4.74-2.64-6.36s-3.92-2.62-6.36-2.64h0Z"/><path class="cls-3" d="m61.44,55.4c-.52,1-.66,2.14-.9,3.23s-.64,2.22-1.51,2.95c-.28-.16-.31-.54-.31-.85,0-.76,0-1.52,0-2.28"/><path class="cls-3" d="m53.67,50.86c-.43.85-.79,1.76-1.13,2.64-.08.2-.15.41-.21.61-.12.4-.2.81-.28,1.22-.16.78-.31,1.56-.61,2.3l.91-2.15c-.16.39-.36.75-.62,1.08l1.41-1.82c-.14.18-.3.33-.47.48l10.91-1.41-.06-.05,1.82,1.41-.05-.05,1.41,1.82c-.05-.06-.08-.12-.11-.2l.91,2.15c-.03-.08-.04-.15-.06-.23l.32,2.39c-.09-.85-.01-1.75,0-2.61.05-1.24-.21-2.39-.78-3.47-.36-1.12-.98-2.08-1.86-2.9-.82-.88-1.78-1.5-2.9-1.86-1.07-.56-2.23-.82-3.47-.78l-2.39.32c-1.52.43-2.85,1.2-3.97,2.31l-1.41,1.82c-.81,1.4-1.22,2.92-1.23,4.54,0,.7,0,1.4,0,2.1,0,1.03.14,2.06.37,3.06l.02.07.91,2.15s.04.09.07.14c.25.32.5.65.75.97.2.35.44.66.73.94.28.28.6.52.94.73.31.26.64.51.97.75l2.15.91c1.2.38,2.39.43,3.59.16.81,0,1.57-.21,2.27-.61,1.12-.36,2.08-.98,2.9-1.86.72-.63,1.38-1.65,1.87-2.3.15-.21.29-.41.41-.64.58-1.11,1.09-2.29,1.42-3.51.29-1.1.4-2.24.83-3.31l-.91,2.15c.06-.13.12-.26.18-.39.66-1.03,1.01-2.15,1.07-3.35.27-1.2.21-2.39-.16-3.59-.28-1.17-.82-2.19-1.61-3.06-.63-.98-1.48-1.75-2.53-2.32l-2.15-.91c-1.6-.43-3.19-.43-4.79,0l-2.15.91c-1.35.8-2.43,1.88-3.23,3.23h0Z"/><path class="cls-3" d="m60.15,45.63c-.22,2.77-.46,5.61-1.69,8.11.95-2.32,2.11-4.56,3.48-6.68.17-.27.39-.56.71-.61.32-.05.61.16.85.37,1.92,1.67,3.14,4.09,3.33,6.59.04.51.03,1.05-.17,1.52-.24.56-.73.97-1.17,1.39-1.62,1.54-2.87,3.44-3.63,5.51.8-.79,1.54-1.64,2.23-2.53-.41,1.59-1.08,3.12-1.98,4.5"/><path class="cls-3" d="m51.15,45.63c-.09,1.07-.18,2.14-.32,3.2l.32-2.39c-.21,1.49-.54,2.93-1.11,4.32l.91-2.15c-.08.2-.17.39-.27.58l16.45,6.94c.08-.2.17-.4.25-.6l-.91,2.15c.94-2.17,2.02-4.32,3.36-6.28l-1.41,1.82.16-.18-1.82,1.41.19-.14-2.15.91.22-.08-2.39.32h.23c-.8-.1-1.6-.21-2.39-.31l.22.08-2.15-.91.21.13-1.82-1.41c.58.47,1.08,1.01,1.54,1.59l-1.41-1.82c.5.68.92,1.4,1.26,2.18l-.91-2.15c.32.78.54,1.58.66,2.42l-.32-2.39c.06.5.09.98.05,1.49l.32-2.39c-.03.21-.08.4-.16.59l.91-2.15c-.07.16-.16.31-.26.45l1.41-1.82c-.4.5-.9.91-1.34,1.37-.99,1.02-1.84,2.19-2.68,3.33-1.27,1.72-2.08,3.74-2.83,5.73l-.32,2.39c-.05,1.24.21,2.39.78,3.47.73,1.73,1.98,3.4,3.68,4.3,3.54,1.87,8,1.51,10.91-1.41.8-.8,1.54-1.64,2.23-2.53l-15.04-8.76c-.19.7-.41,1.38-.68,2.05l.91-2.15c-.37.86-.8,1.67-1.3,2.46-1.23,1.92-1.5,4.77-.91,6.94s2.19,4.35,4.14,5.38c4.46,2.36,9.6,1.01,12.31-3.23,1.3-2.02,2.28-4.33,2.89-6.65.52-1.97.33-4-.45-5.86-.73-1.73-1.98-3.4-3.68-4.3-1.41-.75-2.94-1.16-4.54-1.23-1.97-.09-5.11,1.02-6.36,2.64-.69.89-1.43,1.73-2.23,2.53l15.04,8.76c.07-.19.14-.38.22-.56l-.91,2.15c.52-1.21,1.18-2.33,1.98-3.38l-1.41,1.82c.7-.87,1.54-1.58,2.26-2.41,2.1-2.45,3.43-5.42,3.12-8.71-.16-1.76-.38-3.45-1.02-5.09-.99-2.53-1.95-4.15-3.66-6.26-1.47-1.82-3.47-3.33-5.74-3.97-2.55-.71-5.19-.29-7.5.94-1.69.9-2.88,2.46-3.89,4.04-1.72,2.7-2.99,5.6-4.21,8.55-.79,1.93-.19,5.24.91,6.94s2.46,2.91,4.3,3.68,3.96,1.07,5.86.45c2.12-.69,4.39-2.04,5.38-4.14.94-1.97,1.75-3.95,2.13-6.1s.61-4.36.79-6.55-1.13-4.86-2.64-6.36-4.12-2.74-6.36-2.64-4.74.87-6.36,2.64-2.44,3.87-2.64,6.36h0Z"/><path class="cls-3" d="m10.5,49c4.71,0,9.22-4.14,9-9s-3.95-9-9-9c-4.71,0-9.22,4.14-9,9s3.95,9,9,9h0Z"/><path class="cls-3" d="m12.92,46.34c1.26.05,2.56.12,3.67.68.23.12.46.26.63.47.23.28.31.65.32,1.01.04,1.11-.52,2.15-1.06,3.13"/><path class="cls-3" d="m12.92,55.34c.59.02,1.17.05,1.75.13l-2.39-.32c.54.08,1.08.2,1.59.4l-2.15-.91c.25.1.49.22.71.38l-1.82-1.41c.09.07.17.15.25.24l-1.41-1.82c.07.09.12.18.17.28l-.91-2.15c.06.16.1.31.13.48l-.32-2.39c.03.27.02.53,0,.8l.32-2.39c-.06.43-.19.84-.36,1.24l.91-2.15c-.2.46-.44.9-.68,1.34-.66,1.03-1.01,2.15-1.07,3.35-.27,1.2-.21,2.39.16,3.59.28,1.17.82,2.19,1.61,3.06.63.98,1.48,1.75,2.53,2.32l2.15.91c1.6.43,3.19.43,4.79,0l2.15-.91c1.35-.8,2.43-1.88,3.23-3.23.21-.38.42-.77.6-1.17.38-.85.76-1.71,1.09-2.58.07-.2.14-.41.19-.62.22-.95.31-1.93.4-2.89.02-.19.02-.39,0-.58-.08-.91-.12-1.97-.43-2.88-.16-.39-.32-.77-.48-1.15-.15-.39-.31-.77-.49-1.15-.22-.4-.59-.8-.84-1.12-.97-1.26-1.28-1.59-2.85-2.61-.18-.11-.36-.21-.55-.29-.99-.44-2.09-1-3.19-1.23-.21-.05-.42-.08-.63-.11-.95-.14-1.9-.28-2.85-.37-.43-.04-.86-.06-1.29-.08-1.24-.05-2.39.21-3.47.78-1.12.36-2.08.98-2.9,1.86-.88.82-1.5,1.78-1.86,2.9-.56,1.07-.82,2.23-.78,3.47l.32,2.39c.43,1.52,1.2,2.85,2.31,3.97l1.82,1.41c1.4.81,2.92,1.22,4.54,1.23h0Z"/><path class="cls-3" d="m15.72,59.63c4.71,0,9.22-4.14,9-9s-3.95-9-9-9c-4.71,0-9.22,4.14-9,9s3.95,9,9,9h0Z"/><path class="cls-3" d="m15.07,58.04c4.71,0,9.22-4.14,9-9s-3.95-9-9-9c-4.71,0-9.22,4.14-9,9s3.95,9,9,9h0Z"/><path class="cls-3" d="m14.8,40.51c-.07.3-.06.61.03.9.03.11.08.22.17.28.21.15.49,0,.68-.17,1.07-.98,1.04-2.68,1.94-3.81.2.03.3.26.35.46.25.96.27,1.98.05,2.95-.13.01-.19-.15-.21-.27-.23-1.64-.12-3.32.32-4.91.08,0,.15.09.13.17"/><path class="cls-3" d="m6.12,38.11c-.09.46-.14.95-.2,1.4-.05.34-.16.91-.17,1.35,0,.09,0,.17.01.25l.32,2.39.02.1c.02.08.04.16.06.24.13.38.29.75.47,1.12.15.39.31.78.49,1.15l.05.07,1.41,1.82c.54.59,1.21,1.11,1.92,1.48.35.19.72.35,1.11.47.36.22.75.37,1.15.47l2.39.32h.08c.8-.11,1.6-.21,2.39-.32.04,0,.08-.01.12-.03.3-.07,1.96-.8,2.23-.94.07-.03.13-.07.19-.11l1.82-1.41.07-.06c.1-.09.19-.19.28-.29.48-.58,1.02-1.27,1.46-1.88.04-.05.08-.11.11-.16.07-.1.13-.2.18-.31s.11-.22.15-.33c.35-.8.7-1.6,1.01-2.41.19-.49.33-.99.53-1.47l-.91,2.15c.13-.3.28-.59.47-.85l-1.41,1.82.05-.06-8.76,2.31.07.02-2.15-.91.06.04-1.82-1.41.05.05-1.41-1.82c.05.07.08.12.12.2l-.91-2.15c.1.28.15.58.19.88l-.32-2.39c.07.57.07,1.13,0,1.7l.32-2.39c-.03.18-.06.35-.1.52l8.68-6.61h-.06c1.51.4,3.03.81,4.54,1.22l-.05-.03,1.82,1.41-.04-.05,1.41,1.82-.03-.06.91,2.15c-.03-.08-.04-.15-.05-.24l.32,2.39c-.14-1.07-.13-2.15,0-3.22l-.32,2.39c.08-.53.18-1.06.32-1.58l-11.07,6.29.06.02-3.97-2.31.05.04-1.41-1.82.03.05-1.23-4.54v.06c-.04,1.24.21,2.39.78,3.47.36,1.12.98,2.08,1.86,2.9.82.88,1.78,1.5,2.9,1.86,1.07.56,2.23.82,3.47.78l2.39-.32c1.52-.43,2.85-1.2,3.97-2.31l1.41-1.82c.81-1.4,1.22-2.92,1.23-4.54v-.06c-.11-.8-.22-1.6-.32-2.39l-.91-2.15c-.18-.36-.43-.68-.73-.96-.93-1.2-.46-.73-1.66-1.65-.56-.56-1.22-.94-1.99-1.16-.36-.2-.74-.36-1.13-.47-1.2-.38-2.39-.43-3.59-.16-1.2.05-2.31.41-3.35,1.07l-1.82,1.41c-1.12,1.12-1.89,2.45-2.31,3.97-.14.52-.25,1.05-.32,1.58-.18,1.25-.41,2.56-.43,3.84,0,.52.02,1.04.07,1.56.23,2.07.25,3.18,1.3,4.99.8,1.38,1.92,2.53,3.3,3.34,1.79,1.06,2.62,1.02,4.65,1.27l2.39-.32c1.17-.28,2.19-.82,3.06-1.61.68-.4,1.21-.94,1.61-1.61.8-.87,1.33-1.89,1.61-3.06.24-1.11.4-2.26.46-3.39.02-.37,0-.74-.03-1.12-.11-1-.2-2.26-.5-3.3-.14-.39-.3-.78-.48-1.15-.15-.39-.32-.77-.49-1.15-.22-.37-.54-.72-.79-1.04-.9-1.16-1.03-1.46-2.58-2.37-.71-.42-1.49-.73-2.28-.97-1.6-.43-3.19-.43-4.79,0-1.52.43-2.85,1.2-3.97,2.31-.56.73-1.31,1.5-1.76,2.37-.06.12-.12.24-.17.37-.35.8-.7,1.6-1.01,2.42-.18.47-.32.96-.52,1.43l.91-2.15c-.13.3-.27.58-.46.84l1.41-1.82c-.12.15-.24.29-.39.41l1.82-1.41c-.07.05-.14.09-.23.13l2.15-.91c-.05.02-.11.03-.16.04l2.39-.32h-.08c.8.11,1.6.21,2.39.32l-.08-.02,2.15.91-.07-.04,1.82,1.41-.06-.06,1.41,1.82s-.06-.09-.08-.15l.91,2.15c-.04-.12-.07-.25-.09-.38l.32,2.39c-.01-.14-.01-.27,0-.41l-.32,2.39c0-.07.02-.13.03-.2.38-1.2.43-2.39.16-3.59-.05-1.2-.41-2.31-1.07-3.35-.57-1.05-1.34-1.89-2.32-2.53-.87-.8-1.89-1.33-3.06-1.61l-2.39-.32c-1.62,0-3.14.41-4.54,1.23l-1.82,1.41c-1.12,1.12-1.89,2.45-2.31,3.97h0Z"/><path class="cls-3" d="m14.25,45.93c.36.17.66.42.97.67.64.53,1.3,1.09,1.64,1.84.28.62.32,1.32.36,1.99"/><path class="cls-3" d="m9.7,53.7c.21.1.41.23.6.38l-1.82-1.41c.58.45,1.18.94,1.63,1.52l-1.41-1.82c.16.21.3.44.41.69l-.91-2.15c.13.32.2.64.25.98l-.32-2.39c.04.31.06.63.07.94-.05,1.24.21,2.39.78,3.47.36,1.12.98,2.08,1.86,2.9.82.88,1.78,1.5,2.9,1.86,1.07.56,2.23.82,3.47.78l2.39-.32c1.52-.43,2.85-1.2,3.97-2.31l1.41-1.82c.81-1.4,1.22-2.92,1.23-4.54-.01-.26-.03-.52-.06-.78-.1-.9-.22-1.81-.36-2.7-.02-.13-.05-.26-.08-.38-.03-.11-.06-.22-.11-.33-.28-.74-.62-1.54-.95-2.26-.03-.06-.05-.11-.08-.17-.42-.83-1.31-1.81-1.76-2.37-.3-.37-.65-.7-1.02-1.01-.2-.17-.39-.33-.59-.49-.67-.53-1.33-1.09-2.05-1.57-.12-.08-.24-.15-.38-.21-1.03-.66-2.15-1.01-3.35-1.07-1.2-.27-2.39-.21-3.59.16-1.17.28-2.19.82-3.06,1.61-.98.63-1.75,1.48-2.32,2.53l-.91,2.15c-.43,1.6-.43,3.19,0,4.79l.91,2.15c.8,1.35,1.88,2.43,3.23,3.23h0Z"/><path class="cls-3" d="m16.31,55.1c1.31-.39,2.86.4,3.3,1.66.14.42.18.87.22,1.32.12,1.18.35,2.35.69,3.49"/><path class="cls-3" d="m18.7,63.77c.11-.03.22-.06.34-.07l-2.39.32c.23-.03.46-.03.69,0l-2.39-.32c.26.04.51.1.75.2l-2.15-.91c.24.1.46.23.67.39l-1.82-1.41c.18.14.34.3.48.48l-1.41-1.82c.12.16.22.33.3.51l-.91-2.15c.11.28.17.57.22.87l-.32-2.39c.27,2.18.46,4.37,1.07,6.49.28,1.17.82,2.19,1.61,3.06.63.98,1.48,1.75,2.53,2.32,1.03.66,2.15,1.01,3.35,1.07,1.2.27,2.39.21,3.59-.16l2.15-.91c1.35-.8,2.43-1.88,3.23-3.23l.91-2.15c.43-1.6.43-3.19,0-4.79-.28-.94-.48-1.9-.62-2.88l.32,2.39c-.05-.34-.08-.69-.11-1.03-.1-.94-.21-1.89-.38-2.81-.03-.17-.08-.34-.13-.51-.14-.4-.38-.91-.5-1.19-.13-.32-.33-.84-.53-1.23-.05-.1-.11-.2-.18-.29-.41-.61-.99-1.32-1.46-1.89-.05-.06-.09-.11-.14-.16-.09-.1-.18-.18-.28-.27-.63-.54-1.34-1.09-2.03-1.56-.11-.07-.22-.14-.34-.2-.05-.03-.1-.05-.16-.07-.71-.32-1.54-.69-2.27-.96-.11-.04-.22-.08-.33-.1-.49-.12-1.1-.17-1.54-.22s-1.04-.19-1.54-.18c-.12,0-.23.01-.34.03-.81.09-1.72.18-2.52.34-.07.01-.14.03-.21.05-1.17.28-2.19.82-3.06,1.61-.98.63-1.75,1.48-2.32,2.53-.66,1.03-1.01,2.15-1.07,3.35-.27,1.2-.21,2.39.16,3.59l.91,2.15c.8,1.35,1.88,2.43,3.23,3.23l2.15.91c1.6.43,3.19.43,4.79,0h0Z"/><path class="cls-3" d="m18.92,67.96c4.71,0,9.22-4.14,9-9s-3.95-9-9-9c-4.71,0-9.22,4.14-9,9s3.95,9,9,9h0Z"/><path class="cls-3" d="m23.88,73.5c4.71,0,9.22-4.14,9-9s-3.95-9-9-9c-4.71,0-9.22,4.14-9,9s3.95,9,9,9h0Z"/><path class="cls-3" d="m63.56,72.74c4.71,0,9.22-4.14,9-9s-3.95-9-9-9c-4.71,0-9.22,4.14-9,9s3.95,9,9,9h0Z"/><path class="cls-3" d="m68.78,66.82c4.71,0,9.22-4.14,9-9s-3.95-9-9-9c-4.71,0-9.22,4.14-9,9s3.95,9,9,9h0Z"/><path class="cls-3" d="m72.37,58.99c4.71,0,9.22-4.14,9-9s-3.95-9-9-9c-4.71,0-9.22,4.14-9,9s3.95,9,9,9h0Z"/><path class="cls-3" d="m76.42,48.55c4.71,0,9.22-4.14,9-9s-3.95-9-9-9c-4.71,0-9.22,4.14-9,9s3.95,9,9,9h0Z"/><path class="cls-3" d="m75.09,39.81c-1.23-.37-2.45-.75-3.66-1.14-1.11-.36-2.21-.74-3.25-1.27-.97-.5-1.87-1.12-2.76-1.75-1.03-.72-2.05-1.44-3.08-2.15-.2-.14-.5-.28-.68-.11-.16.16-.07.42.04.61.69,1.26,1.43,2.49,2.23,3.69.63.94,1.3,1.87,2.21,2.55.84.63,1.85,1.03,2.84,1.41,1.82.7,3.65,1.41,5.47,2.11.15.06.3.12.4.23.11.12.16.29.19.45.12.64.09,1.31-.1,1.94-.09.3-.23.61-.51.77-.18.1-.4.13-.62.14-2.13.18-4.27.16-6.4-.04-.35-.03-.72-.08-1.02-.27s-.49-.58-.34-.89c.28-.12.56.13.75.36,2,2.42,3.62,5.14,4.77,8.04.32.81.6,1.75.16,2.5-.31.52-.89.82-1.44,1.1-1,.51-1.98,1.04-2.95,1.61-.42.24-.85.5-1.13.89s-.4.93-.15,1.34"/><path class="cls-3" d="m77.49,31.13c-2.05-.62-4.14-1.21-6.12-2.04l2.15.91c-2.51-1.13-4.47-3.07-6.85-4.4-5.21-2.92-11.91-.4-13.67,5.4-1.01,3.32.22,6.4,1.9,9.21,1.93,3.23,4.18,6.48,7.56,8.34,2.99,1.64,6.45,2.67,9.63,3.9l-2.15-.91c.15.05.29.12.4.23l-3.23-3.23.12.21-.91-2.15c.06.2.1.41.12.63l-.32-2.39c.02.26.02.52,0,.78l.32-2.39c-.06.38-.13.71-.27,1.06l.91-2.15-.16.27,1.41-1.82-.24.2,3.97-2.31-.3.1,2.39-.32c-2.32.29-4.76.23-7.08-.04l2.39.32-.34-.08,2.15.91-.32-.15,1.82,1.41-.25-.25,2.31,3.97-.13-.32.32,2.39.04-.33-9,9h.28c-1.51-.42-3.03-.83-4.54-1.24l.26.15-1.82-1.41c.27.28.51.58.76.89l-1.41-1.82c1.66,2.15,3.02,4.48,4.07,6.98l-.91-2.15c.2.49.37.96.49,1.48l-.32-2.39c.05.24.06.48.04.73l.32-2.39-.07.35.91-2.15c-.07.23-.19.44-.36.62l1.41-1.82-.27.24,1.82-1.41c-1.37.95-2.97,1.56-4.37,2.46-3.86,2.49-6.71,7.45-4.95,12.1.85,2.25,2,4.13,4.14,5.38,1.93,1.13,4.77,1.61,6.94.91s4.28-2.05,5.38-4.14,1.75-4.7.91-6.94l-.12-.33.32,2.39v-.35c-.11.8-.22,1.6-.33,2.39l.1-.35-.91,2.15.18-.31-1.41,1.82c.15-.19.32-.36.52-.5l-1.82,1.41c2.19-1.47,4.73-2.28,6.61-4.22,2-2.06,3.09-4.83,3.07-7.7-.02-2.47-.82-4.19-1.77-6.39-.79-1.83-1.7-3.59-2.82-5.25-2.48-3.68-5.33-7.37-10.32-7.22-2.25.07-4.8.93-6.36,2.64l-1.41,1.82c-.81,1.4-1.22,2.92-1.23,4.54-.22,1.63.49,3.78,1.32,5.19.86,1.48,2.3,2.83,3.8,3.62,2.23,1.18,4.73,1.38,7.21,1.48,4.84.19,10.53-.24,13.14-5.03,2.76-5.06,2-12.3-3.42-15.31-1.59-.89-3.51-1.44-5.22-2.1-1.21-.47-2.43-.92-3.62-1.42l2.15.91c-.61-.27-1.18-.58-1.73-.96l1.82,1.41c-.56-.45-1.03-.95-1.48-1.51l1.41,1.82c-1.11-1.49-2.07-3.1-2.97-4.73l.91,2.15-.12-.32v4.79l.08-.29-6.29,6.29.21-.08h-4.79l.24.06-2.15-.91c2.17,1.24,4,3.02,6.26,4.13,2.83,1.39,5.85,2.32,8.86,3.22,4.51,1.35,10.01-1.62,11.07-6.29s-1.46-9.62-6.29-11.07h0Z"/><path class="cls-3" d="m29.52,106.37c4.71,0,9.22-4.14,9-9s-3.95-9-9-9c-4.71,0-9.22,4.14-9,9s3.95,9,9,9h0Z"/><path class="cls-3" d="m29.79,103.93c4.71,0,9.22-4.14,9-9s-3.95-9-9-9c-4.71,0-9.22,4.14-9,9s3.95,9,9,9h0Z"/><path class="cls-3" d="m53.05,88.25c0,1.31-.14,2.63-.41,3.92-.06.3-.18.65-.48.75.06-.91.17-1.81.33-2.7.02-.12.05-.24.13-.33.16-.16.43-.1.65-.01,1.69.65,3.12,1.91,3.96,3.48"/><path class="cls-3" d="m44.05,88.25c0,.86-.06,1.71-.17,2.56l.32-2.39c-.08.57-.13,1.22-.35,1.75l.91-2.15c-.03.06-.06.12-.1.17l1.41-1.82s-.06.07-.09.09l1.82-1.41s-.07.05-.11.07l2.15-.91-.06.02,11.39,8.68c.04-.55.09-1.1.16-1.65l-.32,2.39c.06-.41.08-.88.22-1.27l-.91,2.15.03-.06-1.41,1.82s.06-.07.1-.1l-1.82,1.41.06-.03-2.15.91.06-.02-2.39.32c.07,0,.13,0,.2,0l-2.39-.32c.17.03.33.1.5.17l-2.15-.91c.61.26,1.18.6,1.71,1l-1.82-1.41c.52.41.99.87,1.39,1.4l-1.41-1.82c.24.31.45.64.64.99.57,1.05,1.34,1.89,2.32,2.53.87.8,1.89,1.33,3.06,1.61,1.2.38,2.39.43,3.59.16,1.2-.05,2.31-.41,3.35-1.07l1.82-1.41c1.12-1.12,1.89-2.45,2.31-3.97l.32-2.39c0-1.62-.41-3.14-1.23-4.54-.19-.35-.4-.67-.64-.99-.64-.85-1.34-1.87-2.14-2.65s-1.76-1.46-2.67-2.12c-.33-.24-.68-.46-1.05-.64-.84-.42-1.81-.79-2.62-1.13-.57-.24-.99-.23-1.69-.33-.52-.07-.92-.19-1.4-.16-1.8.1-3.09.35-4.66,1.28-2.09,1.23-3.68,3.29-4.3,5.64-.06.22-.08.46-.12.68-.15,1-.28,2.01-.41,3.02-.06.5-.11,1-.14,1.5,0,1.62.41,3.14,1.23,4.54.57,1.05,1.34,1.89,2.32,2.53.87.8,1.89,1.33,3.06,1.61,1.6.43,3.19.43,4.79,0,.78-.31,1.61-.55,2.32-1,1.53-.98,2.34-1.79,3.32-3.32.49-.77.82-1.64,1.08-2.52.13-.42.18-.88.25-1.32.25-1.72.52-3.45.53-5.19.05-1.24-.21-2.39-.78-3.47-.36-1.12-.98-2.08-1.86-2.9-.82-.88-1.78-1.5-2.9-1.86-1.07-.56-2.23-.82-3.47-.78l-2.39.32c-1.52.43-2.85,1.2-3.97,2.31l-1.41,1.82c-.81,1.4-1.22,2.92-1.23,4.54h0Z"/><path class="cls-3" d="m58.41,106.57c4.71,0,9.22-4.14,9-9s-3.95-9-9-9c-4.71,0-9.22,4.14-9,9s3.95,9,9,9h0Z"/><path class="cls-3" d="m59.01,94.07c.2-.3.19-.68.18-1.03-.01-1.54.29-3.09.9-4.52.74-1.75,1.92-3.32,2.39-5.16.07-.28.12-.58.01-.84-.12-.29-.42-.48-.7-.64-.97-.56-1.96-1.09-2.96-1.6-.16-.08-.33-.16-.51-.14-.23.02-.4.2-.54.37-1.05,1.34-1,3.21-1.68,4.76-.1.23-.28.49-.54.48-.28-.01-.42-.34-.49-.61-.21-.9-.32-1.83-.31-2.76,0-.16,0-.33.1-.47.15-.24.49-.29.78-.31,1.2-.08,2.41-.13,3.61-.14.77,0,1.64-.04,2.14-.61.36-.41.43-.99.47-1.53.08-.91.16-1.82.24-2.73"/><path class="cls-3" d="m66.78,98.61c.85-1.79,1.37-3.44,1.41-5.44.01-.56.03-1.11.09-1.68l-.32,2.39c.15-1.03.41-2.01.81-2.98l-.91,2.15c1-2.28,2.32-4.35,3.13-6.74.96-2.85.62-5.94-.85-8.55-1.14-2.04-3.13-3.32-5.13-4.4-.44-.24-.89-.48-1.34-.71-.18-.09-.36-.18-.55-.26l-2.15-.91c-.49-.07-.97-.13-1.46-.2-4.09-.55-7.6,1.6-9.74,5-.78,1.23-1.31,2.7-1.66,4.12-.21.83-.37,1.66-.7,2.46l.91-2.15c-.05.12-.12.23-.21.33l3.23-3.23-.15.11,2.15-.91-.18.04h4.79l-.19-.06,3.97,2.31-.14-.14,1.41,1.82-.1-.19.91,2.15c-.14-.46-.22-.94-.28-1.42l.32,2.39c-.07-.59-.11-1.19-.07-1.79l-.32,2.39.08-.23-2.31,3.97.15-.15-1.82,1.41.19-.09-2.15.91.22-.05-2.39.32c3.42-.35,6.87.13,10.02-1.65,2.47-1.39,4.58-4,5.06-6.86.31-1.83.44-3.69.6-5.54.19-2.18-1.14-4.87-2.64-6.36s-4.12-2.74-6.36-2.64-4.74.87-6.36,2.64l-1.41,1.82c-.81,1.4-1.22,2.92-1.23,4.54-.09,1-.17,2.01-.26,3.01l.32-2.39c-.04.28-.09.53-.17.8l.91-2.15c-.06.17-.16.32-.27.46l1.41-1.82-.18.17,1.82-1.41c-.13.1-.27.18-.43.24l2.15-.91c-.25.08-.48.13-.75.17l2.39-.32c-.86.07-1.73.05-2.59.08-1.51.06-3.2.07-4.64.49-2.04.6-3.73,1.8-5.01,3.46s-1.93,3.64-2.02,5.8c-.07,1.6.22,3.26.53,4.82.67,3.43,3.36,6.29,6.68,7.28,4.12,1.24,8.53-.7,10.74-4.3,1.23-2,1.35-4.17,2.2-6.26l-.91,2.15c.15-.33.32-.62.54-.91l-1.41,1.82.15-.17-1.82,1.41.18-.14-2.15.91.21-.07h-4.79l.26.04-2.15-.91c1.22.54,2.53,1.19,3.62,1.97l-1.82-1.41.17.17-1.41-1.82.12.2-.91-2.15.06.27-.32-2.39v.28c.09-.8.2-1.6.31-2.39-.1.49-.26.95-.44,1.41l.91-2.15c-.94,2.2-2.17,4.21-3.03,6.47s-.97,4.75-1.12,7.16l.32-2.39-.05.26.91-2.15-.11.24c-1.06,2.22-1.58,4.49-.91,6.94.57,2.09,2.19,4.35,4.14,5.38,2.09,1.1,4.62,1.66,6.94.91,2.12-.69,4.38-2.04,5.38-4.14h0Z"/><path class="cls-3" d="m65.39,80.58c4.71,0,9.22-4.14,9-9s-3.95-9-9-9c-4.71,0-9.22,4.14-9,9s3.95,9,9,9h0Z"/><path class="cls-3" d="m65.48,73.56c.24.67.25,1.39.26,2.1.04,2.37.02,4.9-1.34,6.86"/><path class="cls-3" d="m56.8,75.95c.09.26.15.52.19.79l-.32-2.39c.2,1.56.14,3.26-.06,4.82l.32-2.39c-.11.76-.29,1.5-.58,2.21l.91-2.15c-.17.4-.38.77-.62,1.13-.66,1.03-1.01,2.15-1.07,3.35-.27,1.2-.21,2.39.16,3.59.28,1.17.82,2.19,1.61,3.06.63.98,1.48,1.75,2.53,2.32l2.15.91c1.6.43,3.19.43,4.79,0l2.15-.91c1.35-.8,2.43-1.88,3.23-3.23.22-.32.4-.65.57-1,.46-1,.94-2.03,1.25-3.09.11-.37.19-.74.25-1.12.19-1.15.36-2.31.45-3.48.06-.78.06-1.56.06-2.35,0-.42,0-.84-.04-1.26-.07-.96-.21-1.93-.38-2.88-.04-.24-.1-.48-.18-.71-.28-1.17-.82-2.19-1.61-3.06-.63-.98-1.48-1.75-2.53-2.32-1.03-.66-2.15-1.01-3.35-1.07-1.2-.27-2.39-.21-3.59.16l-2.15.91c-1.35.8-2.43,1.88-3.23,3.23l-.91,2.15c-.43,1.6-.43,3.19,0,4.79h0Z"/><path class="cls-3" d="m43.99,18c4.71,0,9.22-4.14,9-9S49.03,0,43.99,0c-4.71,0-9.22,4.14-9,9s3.95,9,9,9h0Z"/><path class="cls-3" d="m45.12,9.13c2.17.1,4.33.39,6.45.86"/><path class="cls-3" d="m45.12,18.13c1.09.05,2.17.15,3.24.29l-2.39-.32c1.08.15,2.15.33,3.21.57,1.2.38,2.39.43,3.59.16,1.2-.05,2.31-.41,3.35-1.07,1.05-.57,1.89-1.34,2.53-2.32.8-.87,1.33-1.89,1.61-3.06l.32-2.39c0-1.62-.41-3.14-1.23-4.54l-1.41-1.82c-1.12-1.12-2.45-1.89-3.97-2.31-1.46-.32-2.92-.53-4.4-.73s-2.95-.38-4.44-.46c-1.24-.05-2.39.21-3.47.78-1.12.36-2.08.98-2.9,1.86-.88.82-1.5,1.78-1.86,2.9-.56,1.07-.82,2.23-.78,3.47l.32,2.39c.43,1.52,1.2,2.85,2.31,3.97l1.82,1.41c1.4.81,2.92,1.22,4.54,1.23h0Z"/><path class="cls-3" d="m41.61,18.2c4.71,0,9.22-4.14,9-9S46.66.2,41.61.2c-4.71,0-9.22,4.14-9,9s3.95,9,9,9h0Z"/><path class="cls-3" d="m78.32,49.27c4.71,0,9.22-4.14,9-9s-3.95-9-9-9c-4.71,0-9.22,4.14-9,9s3.95,9,9,9h0Z"/><ellipse class="cls-4" cx="64.6" cy="19.25" rx="1.77" ry="3.5" transform="translate(6 52.57) rotate(-46.22)"/><ellipse class="cls-1" cx="65.31" cy="18.55" rx="2.77" ry="5.47" transform="translate(6.73 52.87) rotate(-46.22)"/><ellipse class="cls-1" cx="65.31" cy="18.55" rx="4.75" ry="9.37" transform="translate(6.73 52.87) rotate(-46.22)"/><ellipse class="cls-1" cx="65.31" cy="18.55" rx="6.55" ry="12.94" transform="translate(6.73 52.87) rotate(-46.22)"/><ellipse class="cls-1" cx="64.41" cy="19.42" rx="7.8" ry="15.4" transform="translate(5.82 52.49) rotate(-46.22)"/><path class="cls-1" d="m50.68,18.55s1.53,3.75.59,5.99c0,0,1.25-.71,1.9,0s5.39,3.45,2.88,6.54"/><path class="cls-1" d="m46.92,9.23l.29,7.69s4.26,6.8,1.53,9.47"/><path class="cls-1" d="m43.82,5.48h12.73s11.16,3.88,13.45,8.5"/><path class="cls-1" d="m43.82,31.08s5.17.84,6.86-2.81"/><path class="cls-4" d="m50.68,31.38s1.07-3.73,3.05-3.5,1.89,1.15,1.89,1.31-.98,2.19-1.89,2.19h-3.05Z"/><path class="cls-1" d="m50.29,9.23s-1.4,20.02,22.66,27.75c0,0,5.1,1.59,5.1-1.42s-2.3-5.73-2.3-5.73"/><path class="cls-1" d="m43.82,32.41s20.23-.91,26.82,13.49"/><path class="cls-1" d="m43.82,38.42s19.94-1.89,24.6,16.98c0,0,1.95-1.14,1.59-3.22-3.44-19.44-26.18-17.86-26.18-17.86"/><path class="cls-1" d="m65.93,65.52c-.1,0,5.64-5.59,5.64-5.59,0,0,3.1,3.6,7.23.49,0,0,1.57,21.03-7.01,21.03,0,0,.31-15.94-5.85-15.94Z"/><path class="cls-1" d="m71.86,58.84c-.19-.29,3.65-7.65,3.65-7.65,0,0,3.68,1.02,4.81-.72h2.51s-3.5,6.76-3.22,7.39-.49,1.76-.49,1.76c0,0-4.45,3.59-7.27-.78Z"/><path class="cls-1" d="m56.77,29.25s11.81,7.27,19.61,16.64"/><path class="cls-1" d="m50.29,9.23s-.1-3.75,3.44-3.75"/><path class="cls-1" d="m82.84,48.81c-2.76,2.47-7.39,1.84-7.39,1.84,0,0,.53-2.03.7-2.03s.53-9.21.53-9.21c0,0,.31-1.23,2.31-1.32l.15-1.59,2.88-2.93,1.86,4.55s-.11,5.29-1.24,6.17l.19,4.52Z"/><path class="cls-1" d="m44.83,38.37c0,.41,0,12.63,0,12.63,0,0,6.27,5.54,10.07-1.62,0,0,1.94-7.71,1.67-8.69"/><path class="cls-1" d="m54.74,49.67c.21.24-1.17,7.04,7.07,5.07l3.84-6.11"/><path class="cls-1" d="m62.78,53.21s-.38,3.07,2.2,3.65,3.07-2.82,3.07-2.82"/><path class="cls-1" d="m52.39,58.81v-3.07c-2.4-3.86-8.32-1.36-8.32-1.36v2.54"/><path class="cls-1" d="m59.21,62.58v-5.15c-3.53-3.44-5.85-.91-5.85-.91v2.63"/><path class="cls-1" d="m43.69,66.6s4.96-.15,10.24-2.23c0,0,5.67-.7,6.69.45s9.22-8.04,7.8-9.42c0,0-6.04,10.73-9.69,6.89-3.65-3.84-15.04-5.35-15.04-5.35"/><path class="cls-1" d="m60.78,78.54c2.84-.6,4.82-2.33,4.88-2.69s1.63-1.73,2.74-5.9c1.11-4.17-4.88-4.07-4.88-4.07,0,0-2.84-.66-5.52-.66-2.01,0-5.05.52-5.6.54,0,0-8.32,1.27-7.56,5.76.76,4.5,5.45,7.03,5.45,7.03,0,0,2.35.8,2.68,3.69,0,0-.05,9.31-2.41,10.17s-2.29-1.78-2.33-1.93-2.45-3.52-4.04-4.2"/><path class="cls-1" d="m45.34,73.26s-.29-1.19-1.41-2.07v16.42s6.7,7.25,6.98,12.83"/><path class="cls-1" d="m60.74,100.06s7.35-4.38,9.3-9.43c1.66-4.32,1.13-14.28-1.7-22.69.62,1.97.81,10.47.81,10.47,0,0-7.72,11.1-7.75,13.19s-1.17,2.13-1.17,2.13c1.23,1.49.95,1.49,1.15,3.77.07.82-.14,1.58-.46,2.21-.55,1.12-1.4,1.85-1.4,1.85-.04,1-.91,1.73-.91,1.73,0,0-2.06,2.21-8.4,2.21s-6.06-3.49-6.06-3.49v-14.07"/><path class="cls-1" d="m47.6,67.3s-2.65,2.91,5.3,9.13c0,0,3.47,3.06,2.75,6.67"/><path class="cls-4" d="m49.31,97.62l.22,3.63s-.31.71-1.7.24-1.61-7.19-1.61-7.19c.64-1.02,1.98,0,1.98,0,0,0,.88,1.93,1.11,3.33Z"/><path class="cls-1" d="m57.33,85.36c0-.09,4.57-2.94,5.63-3.27s2.16-2.72,2.16-2.72"/><path class="cls-1" d="m59.85,63.02c.06.02,0-3,0-3,0,0,.51-3.64,4.45-1.52v2.46"/><path class="cls-1" d="m48.77,94.25s1.68-1.08,2.04-.11c.13.35,2.29-.54,2.5-.61s7.39,0,7.39,0"/><polyline class="cls-1" points="51.06 94.47 59.8 94.47 59.8 100.34 50.75 100.34"/><ellipse class="cls-4" cx="53.33" cy="102.13" rx=".9" ry=".62"/><ellipse class="cls-4" cx="55.66" cy="102.13" rx=".9" ry=".62"/><ellipse class="cls-4" cx="57.71" cy="101.89" rx=".63" ry=".88"/><path class="cls-1" d="m53.33,92.3c.05-.11,3.66-11.28,10.53-13.93,0,0,3.86-.92,4.98-6.7"/><path class="cls-1" d="m78.05,36.22c-.37-.14-.17,1.05,1.06.6"/><ellipse class="cls-4" cx="23.17" cy="19.25" rx="3.5" ry="1.77" transform="translate(-6.87 21.39) rotate(-43.78)"/><ellipse class="cls-1" cx="22.46" cy="18.55" rx="5.47" ry="2.77" transform="translate(-6.59 20.7) rotate(-43.78)"/><ellipse class="cls-1" cx="22.46" cy="18.55" rx="9.37" ry="4.75" transform="translate(-6.59 20.7) rotate(-43.78)"/><ellipse class="cls-1" cx="22.46" cy="18.55" rx="12.94" ry="6.55" transform="translate(-6.59 20.7) rotate(-43.78)"/><ellipse class="cls-1" cx="23.35" cy="19.42" rx="15.4" ry="7.8" transform="translate(-6.95 21.56) rotate(-43.78)"/><path class="cls-1" d="m37.09,18.55s-1.53,3.75-.59,5.99c0,0-1.25-.71-1.9,0s-5.39,3.45-2.88,6.54"/><path class="cls-1" d="m40.85,9.23l-.29,7.69s-4.26,6.8-1.53,9.47"/><path class="cls-1" d="m43.95,5.48h-12.73s-11.16,3.88-13.45,8.5"/><path class="cls-1" d="m43.95,31.08s-5.17.84-6.86-2.81"/><path class="cls-4" d="m37.09,31.38s-1.07-3.73-3.05-3.5-1.89,1.15-1.89,1.31.98,2.19,1.89,2.19h3.05Z"/><path class="cls-1" d="m37.48,9.23s1.4,20.02-22.66,27.75c0,0-5.1,1.59-5.1-1.42s2.3-5.73,2.3-5.73"/><path class="cls-1" d="m43.95,32.41s-20.23-.91-26.82,13.49"/><path class="cls-1" d="m43.95,38.42s-19.94-1.89-24.6,16.98c0,0-1.95-1.14-1.59-3.22,3.44-19.44,26.18-17.86,26.18-17.86"/><path class="cls-1" d="m21.84,65.52c.1,0-5.64-5.59-5.64-5.59,0,0-3.1,3.6-7.23.49,0,0-1.57,21.03,7.01,21.03,0,0-.31-15.94,5.85-15.94Z"/><path class="cls-1" d="m15.91,58.84c.19-.29-3.65-7.65-3.65-7.65,0,0-3.68,1.02-4.81-.72h-2.51s3.5,6.76,3.22,7.39.49,1.76.49,1.76c0,0,4.45,3.59,7.27-.78Z"/><path class="cls-1" d="m31,29.25s-11.81,7.27-19.61,16.64"/><path class="cls-1" d="m37.48,9.23s.1-3.75-3.44-3.75"/><path class="cls-1" d="m4.93,48.81c2.76,2.47,7.39,1.84,7.39,1.84,0,0-.53-2.03-.7-2.03s-.53-9.21-.53-9.21c0,0-.31-1.23-2.31-1.32l-.15-1.59-2.88-2.93-1.86,4.55s.11,5.29,1.24,6.17l-.19,4.52Z"/><path class="cls-1" d="m42.94,38.37c0,.41,0,12.63,0,12.63,0,0-6.27,5.54-10.07-1.62,0,0-1.94-7.71-1.67-8.69"/><path class="cls-1" d="m33.02,49.67c-.21.24,1.17,7.04-7.07,5.07l-3.84-6.11"/><path class="cls-1" d="m24.99,53.21s.38,3.07-2.2,3.65-3.07-2.82-3.07-2.82"/><path class="cls-1" d="m35.38,58.81v-3.07c2.4-3.86,8.32-1.36,8.32-1.36v2.54"/><path class="cls-1" d="m28.56,62.58v-5.15c3.53-3.44,5.85-.91,5.85-.91v2.63"/><path class="cls-1" d="m44.08,66.6s-4.96-.15-10.24-2.23c0,0-5.67-.7-6.69.45s-9.22-8.04-7.8-9.42c0,0,6.04,10.73,9.69,6.89,3.65-3.84,15.04-5.35,15.04-5.35"/><path class="cls-1" d="m26.99,78.54c-2.84-.6-4.82-2.33-4.88-2.69s-1.63-1.73-2.74-5.9c-1.11-4.17,4.88-4.07,4.88-4.07,0,0,2.84-.66,5.52-.66,2.01,0,5.05.52,5.6.54,0,0,8.32,1.27,7.56,5.76-.76,4.5-5.45,7.03-5.45,7.03,0,0-2.35.8-2.68,3.69,0,0,.05,9.31,2.41,10.17s2.29-1.78,2.33-1.93,2.45-3.52,4.04-4.2"/><path class="cls-1" d="m42.42,73.26s.29-1.19,1.41-2.07v16.42s-6.7,7.25-6.98,12.83"/><path class="cls-1" d="m27.03,100.06s-7.35-4.38-9.3-9.43c-1.66-4.32-1.13-14.28,1.7-22.69-.62,1.97-.81,10.47-.81,10.47,0,0,7.72,11.1,7.75,13.19s1.17,2.13,1.17,2.13c-1.23,1.49-.95,1.49-1.15,3.77-.07.82.14,1.58.46,2.21.55,1.12,1.4,1.85,1.4,1.85.04,1,.91,1.73.91,1.73,0,0,2.06,2.21,8.4,2.21s6.06-3.49,6.06-3.49v-14.07"/><path class="cls-1" d="m40.17,67.3s2.65,2.91-5.3,9.13c0,0-3.47,3.06-2.75,6.67"/><path class="cls-4" d="m38.46,97.62l-.22,3.63s.31.71,1.7.24,1.61-7.19,1.61-7.19c-.64-1.02-1.98,0-1.98,0,0,0-.88,1.93-1.11,3.33Z"/><path class="cls-1" d="m30.44,85.36c0-.09-4.57-2.94-5.63-3.27s-2.16-2.72-2.16-2.72"/><path class="cls-1" d="m27.92,63.02c-.06.02,0-3,0-3,0,0-.51-3.64-4.45-1.52v2.46"/><path class="cls-1" d="m39,94.25s-1.68-1.08-2.04-.11c-.13.35-2.29-.54-2.5-.61s-7.39,0-7.39,0"/><polyline class="cls-1" points="36.71 94.47 27.97 94.47 27.97 100.34 37.02 100.34"/><ellipse class="cls-4" cx="34.44" cy="102.13" rx=".9" ry=".62"/><ellipse class="cls-4" cx="32.11" cy="102.13" rx=".9" ry=".62"/><ellipse class="cls-4" cx="30.06" cy="101.89" rx=".63" ry=".88"/><path class="cls-1" d="m34.44,92.3c-.05-.11-3.66-11.28-10.53-13.93,0,0-3.86-.92-4.98-6.7"/><path class="cls-1" d="m9.72,36.22c.37-.14.17,1.05-1.06.6"/></g></svg>