<?xml version="1.0" encoding="UTF-8"?><svg id="Layer_1" xmlns="http://www.w3.org/2000/svg" viewBox="0 0 1920 1080"><defs><style>.cls-1{fill:#ad8231;}.cls-2{fill:#1e2e10;}</style></defs><rect class="cls-2" x="-6" y="-6" width="1932" height="1092"/><rect class="cls-1" x="10" y="10" width="237.9" height="125.95"/><rect class="cls-1" x="165.14" y="102.76" width="237.9" height="52.39" transform="translate(155.14 413.04) rotate(-90)"/><rect class="cls-1" x="457.24" y="-126.96" width="58.67" height="332.58" transform="translate(447.24 525.91) rotate(-90)"/><rect class="cls-1" x="727.26" y="-54.39" width="21.69" height="150.47" transform="translate(717.26 758.94) rotate(-90)"/><rect class="cls-1" x="549.27" y="155.28" width="377.65" height="150.47" transform="translate(507.59 968.62) rotate(-90)"/><rect class="cls-1" x="832.12" y="1.22" width="188.83" height="206.38" transform="translate(822.12 1030.94) rotate(-90)"/><rect class="cls-1" x="1039.72" y="10" width="84.3" height="55.55"/><rect class="cls-1" x="1344.31" y="-200.29" width="22.97" height="443.56" transform="translate(1334.31 1377.29) rotate(-90)"/><rect class="cls-1" x="1533.62" y="63.95" width="237.9" height="129.99" transform="translate(1523.62 1781.52) rotate(-90)"/><rect class="cls-1" x="1693.24" y="207.4" width="199.88" height="131.23" transform="translate(1520.17 2066.19) rotate(-90)"/><rect class="cls-1" x="1745.25" y="-7.68" width="153.07" height="188.43" transform="translate(1735.25 1908.32) rotate(-90)"/><rect class="cls-1" x="1678.1" y="960.05" width="237.9" height="125.95" transform="translate(3594.1 2046.05) rotate(180)"/><rect class="cls-1" x="1522.96" y="940.86" width="237.9" height="52.39" transform="translate(2608.96 -674.86) rotate(90)"/><rect class="cls-1" x="1410.09" y="890.37" width="58.67" height="332.58" transform="translate(2496.09 -382.76) rotate(90)"/><rect class="cls-1" x="1182.22" y="1005.09" width="21.69" height="140.13" transform="translate(2268.22 -117.91) rotate(90)"/><rect class="cls-1" x="1004.24" y="795.42" width="377.65" height="140.13" transform="translate(2058.55 -327.58) rotate(90)"/><rect class="cls-1" x="910.23" y="883.23" width="188.83" height="216.72" transform="translate(1996.23 -13.05) rotate(90)"/><rect class="cls-1" x="801.98" y="1030.45" width="84.3" height="55.55" transform="translate(1688.26 2116.45) rotate(180)"/><rect class="cls-1" x="558.71" y="852.73" width="22.97" height="443.56" transform="translate(1644.71 504.31) rotate(90)"/><rect class="cls-1" x="154.48" y="902.06" width="237.9" height="129.99" transform="translate(1240.48 693.62) rotate(90)"/><rect class="cls-1" x="32.88" y="757.37" width="199.88" height="131.23" transform="translate(955.81 690.17) rotate(90)"/><rect class="cls-1" x="27.68" y="915.25" width="153.07" height="188.43" transform="translate(1113.68 905.25) rotate(90)"/><rect class="cls-1" x="320.29" y="78.67" width="112.66" height="382.58"/><rect class="cls-1" x="442.95" y="78.67" width="157.18" height="100.46"/><rect class="cls-1" x="610.13" y="78.67" width="42.74" height="223.52"/><rect class="cls-1" x="-3.81" y="861.91" width="74.83" height="47.2" transform="translate(919.12 851.91) rotate(90)"/><rect class="cls-1" x="366.75" y="604.96" width="74.83" height="391.46" transform="translate(1204.85 396.53) rotate(90)"/><rect class="cls-1" x="692.77" y="444.7" width="225.69" height="391.46" transform="translate(1446.05 -165.19) rotate(90)"/><rect class="cls-1" x="442.95" y="471.25" width="156.94" height="146.4"/><rect class="cls-1" x="1532.8" y="42.97" width="44.78" height="548.78"/><rect class="cls-1" x="610.13" y="429.34" width="88.24" height="88.24"/><rect class="cls-1" x="1011.35" y="466.39" width="101.32" height="51.19"/><rect class="cls-1" x="927" y="397.25" width="244.64" height="59.15"/><rect class="cls-1" x="1122.66" y="466.39" width="68.97" height="200.27"/><rect class="cls-1" x="1682.75" y="382.95" width="233.25" height="238.14"/><rect class="cls-1" x="1868.8" y="277.28" width="47.2" height="95.67"/><rect class="cls-1" x="1868.8" y="173.07" width="47.2" height="93.94"/><rect class="cls-1" x="1321.44" y="66.02" width="225.69" height="177.02" transform="translate(1588.82 -1279.76) rotate(90)"/><rect class="cls-1" x="1123.32" y="174.78" width="128.87" height="296.06" transform="translate(1510.56 -864.94) rotate(90)"/><rect class="cls-1" x="10" y="145.95" width="13.68" height="519.42"/><rect class="cls-1" x="1551.71" y="473.81" width="85.72" height="642.87" transform="translate(799.33 2389.81) rotate(-90)"/><rect class="cls-1" x="1808.52" y="842.57" width="101.95" height="113.01" transform="translate(960.41 2758.57) rotate(-90)"/><rect class="cls-1" x="448.48" y="184.01" width="101.95" height="113.01" transform="translate(258.94 739.97) rotate(-90)"/><rect class="cls-1" x="565.96" y="189.54" width="34.17" height="157.68"/><rect class="cls-1" x="442.95" y="301.19" width="113.01" height="160.05"/><rect class="cls-1" x="208.43" y="723.05" width="391.46" height="30.23"/><rect class="cls-1" x="467.85" y="728.67" width="204.69" height="443.56" transform="translate(1520.65 380.25) rotate(90)"/><rect class="cls-1" x="1267.73" y="487.31" width="463.77" height="46.36" transform="translate(2010.11 -989.13) rotate(90)"/><rect class="cls-1" x="1311.99" y="513.63" width="43.09" height="265.8" transform="translate(1979.95 -687.07) rotate(90)"/><rect class="cls-1" x="1222.39" y="135" width="206.7" height="20.07" transform="translate(1470.78 -1180.7) rotate(90)"/><rect class="cls-1" x="1190.93" y="133.61" width="114.78" height="114.78" transform="translate(1439.34 -1057.31) rotate(90)"/><rect class="cls-1" x="1006.8" y="108.48" width="172.84" height="106.99" transform="translate(1255.2 -931.24) rotate(90)"/><rect class="cls-1" x="13.41" y="166.23" width="172.84" height="132.31" transform="translate(332.22 132.56) rotate(90)"/><rect class="cls-1" x="111.03" y="466.11" width="336.13" height="62.39" transform="translate(776.39 218.2) rotate(90)"/><rect class="cls-1" x="1552.06" y="293.91" width="156.22" height="85.17" transform="translate(1966.66 -1293.67) rotate(90)"/><rect class="cls-1" x="1546.59" y="465.59" width="167.15" height="85.17" transform="translate(2138.34 -1121.98) rotate(90)"/><rect class="cls-1" x="1714.75" y="449.15" width="19.3" height="383.2" transform="translate(2365.83 -1083.39) rotate(90.02)"/><rect class="cls-1" x="1706.8" y="819.29" width="57.38" height="114.99" transform="translate(858.7 2612.28) rotate(-90)"/><rect class="cls-1" x="1718.2" y="875.27" width="34.58" height="114.99" transform="translate(802.72 2668.25) rotate(-90)"/><rect class="cls-1" x="992.47" y="546.46" width="139.08" height="101.32" transform="translate(464.88 1659.13) rotate(-90)"/><rect class="cls-1" x="212.29" y="220.81" width="60.91" height="135.09" transform="translate(-45.61 531.09) rotate(-90)"/><rect class="cls-1" x="160.59" y="160.59" width="101.93" height="72.7" transform="translate(14.61 408.48) rotate(-90)"/><rect class="cls-1" x="1207.85" y="-32.14" width="23.86" height="171.51" transform="translate(1166.16 1273.4) rotate(-90)"/><rect class="cls-1" x="1224.05" y="42.48" width="48.41" height="114.56" transform="translate(1148.49 1348.01) rotate(-90)"/><rect class="cls-1" x="1156.71" y="75.56" width="23.86" height="172.83" transform="translate(2337.28 323.95) rotate(180)"/><rect class="cls-1" x="1532.8" y="601.75" width="139.95" height="19.34"/><rect class="cls-1" x="1642.88" y="298.26" width="114.56" height="34.82" transform="translate(2015.81 -1384.5) rotate(90)"/><rect class="cls-1" x="-119.56" y="482.47" width="383.81" height="77.33" transform="translate(593.49 448.8) rotate(90)"/><rect class="cls-1" x="-64.53" y="749.89" width="162.74" height="13.68" transform="translate(773.57 739.89) rotate(90)"/><rect class="cls-1" x="-12.26" y="768.64" width="115.32" height="23.6" transform="translate(825.84 735.04) rotate(90)"/><rect class="cls-1" x="609.89" y="763.27" width="503.11" height="17.44"/><rect class="cls-1" x="1415.95" y="830.28" width="169.23" height="204.87" transform="translate(567.85 2433.28) rotate(-90)"/><rect class="cls-1" x="1301.94" y="819.29" width="57.38" height="114.99" transform="translate(453.84 2207.42) rotate(-90)"/><rect class="cls-1" x="1279.67" y="908.94" width="101.92" height="114.99" transform="translate(364.2 2297.07) rotate(-90)"/><rect class="cls-1" x="801.95" y="932.84" width="84.36" height="88.24"/><rect class="cls-1" x="609.89" y="790.71" width="205.61" height="47.39"/><rect class="cls-1" x="896" y="790.39" width="217" height="96.1"/><rect class="cls-1" x="565.77" y="357.22" width="87.1" height="62.12"/><rect class="cls-1" x="609.42" y="311.93" width="43.55" height="35.29"/><rect class="cls-1" x="565.77" y="429.34" width="34.12" height="31.91"/><rect class="cls-1" x="1303.83" y="452.74" width="58.89" height="265.44" transform="translate(1918.74 -747.82) rotate(90)"/><rect class="cls-1" x="1316.89" y="307.5" width="177.82" height="119.6" transform="translate(1773.1 -1038.5) rotate(90)"/><rect class="cls-1" x="823.5" y="208.86" width="206.5" height="88.24" transform="translate(1853.5 505.96) rotate(180)"/><rect class="cls-1" x="869" y="307.1" width="161" height="62.12" transform="translate(1899 676.32) rotate(180)"/><rect class="cls-1" x="823" y="379.22" width="96" height="138.17" transform="translate(1742 896.62) rotate(180)"/><rect class="cls-1" x="320" y="470.53" width="112.89" height="242.87" transform="translate(752.89 1183.92) rotate(180)"/><rect class="cls-1" x="443" y="626.39" width="157" height="87.18" transform="translate(1043 1339.97) rotate(180)"/><rect class="cls-1" x="1532.37" y="659.39" width="383.63" height="82.73" transform="translate(3448.37 1401.51) rotate(180)"/><rect class="cls-1" x="1201.01" y="466.39" width="264.99" height="79.41" transform="translate(2667.01 1012.2) rotate(180)"/><rect class="cls-1" x="1180" y="397.39" width="155.44" height="58.57" transform="translate(2515.44 853.36) rotate(180)"/><rect class="cls-1" x="1011" y="676.36" width="102" height="77.03"/><rect class="cls-1" x="-12" y="463.39" width="384" height="116" transform="translate(701.39 341.39) rotate(90)"/><rect class="cls-1" x="260.01" y="663.39" width="38" height="62" transform="translate(973.4 415.4) rotate(90)"/><rect class="cls-1" x="823" y="307.39" width="35.91" height="62"/><rect class="cls-1" x="807" y="843.39" width="74" height="84" transform="translate(-41.39 1729.39) rotate(-90)"/><rect class="cls-1" x="831.5" y="783.89" width="48" height="61" transform="translate(41.11 1669.89) rotate(-90)"/><rect class="cls-1" x="938.5" y="454.89" width="51" height="74" transform="translate(472.11 1455.89) rotate(-90)"/><rect class="cls-1" x="716" y="420.39" width="88" height="106" transform="translate(286.61 1233.39) rotate(-90)"/><rect class="cls-1" x="927" y="379.64" width="103.01" height="7.75" transform="translate(1957.01 767.03) rotate(180)"/><rect class="cls-1" x="1335.86" y="612.25" width="67.01" height="193.28" transform="translate(2078.2 -660.5) rotate(90)"/></svg>