<?xml version="1.0" encoding="UTF-8"?><svg id="Layer_2" xmlns="http://www.w3.org/2000/svg" viewBox="0 0 206.84 263.41"><defs><style>.cls-1{fill:none;stroke:#752900;}.cls-1,.cls-2{stroke-miterlimit:10;}.cls-2{stroke:#ffa900;stroke-width:6px;}.cls-2,.cls-3{fill:#ffa900;}.cls-4{fill:#752900;}</style></defs><g id="Layer_1-2"><ellipse class="cls-2" cx="155.41" cy="38.44" rx="4.51" ry="8.9" transform="translate(18.34 121.15) rotate(-45)"/><ellipse class="cls-2" cx="157.2" cy="36.65" rx="7.04" ry="13.89" transform="translate(20.13 121.89) rotate(-45)"/><ellipse class="cls-2" cx="157.2" cy="36.65" rx="12.07" ry="23.82" transform="translate(20.13 121.89) rotate(-45)"/><ellipse class="cls-2" cx="157.2" cy="36.65" rx="16.66" ry="32.88" transform="translate(20.13 121.89) rotate(-45)"/><ellipse class="cls-2" cx="154.95" cy="38.9" rx="19.83" ry="39.14" transform="translate(17.88 120.96) rotate(-45)"/><path class="cls-2" d="m120.48,36.65s3.84,9.66,1.48,15.42c0,0,3.14-1.84,4.76,0s13.54,8.88,7.22,16.82"/><path class="cls-2" d="m111.03,12.65l.74,19.79s10.71,17.5,3.84,24.36"/><path class="cls-2" d="m103.25,3h31.96s28.01,9.98,33.77,21.87"/><path class="cls-2" d="m103.25,68.9s12.98,2.17,17.23-7.22"/><path class="cls-2" d="m120.48,69.68s2.69-9.61,7.65-9,4.76,2.97,4.76,3.37-2.45,5.62-4.76,5.62h-7.65Z"/><path class="cls-2" d="m119.5,12.65s-3.51,51.52,56.88,71.43c0,0,12.8,4.1,12.8-3.65s-5.76-14.74-5.76-14.74"/><path class="cls-2" d="m103.25,72.31s50.77-2.34,67.33,34.72"/><path class="cls-2" d="m103.25,87.79s50.05-4.86,61.75,43.72c0,0,4.9-2.93,3.98-8.28-8.64-50.05-65.73-45.97-65.73-45.97"/><path class="cls-2" d="m158.76,157.55c-.25,0,14.15-14.38,14.15-14.38,0,0,7.78,9.27,18.15,1.26,0,0,3.93,54.15-17.6,54.15,0,0,.79-41.02-14.7-41.02Z"/><path class="cls-2" d="m173.65,140.36c-.47-.74,9.16-19.7,9.16-19.7,0,0,9.24,2.62,12.08-1.85h6.31s-8.77,17.39-8.08,19.01-1.23,4.54-1.23,4.54c0,0-11.16,9.24-18.24-2Z"/><path class="cls-2" d="m135.77,64.19s29.64,18.71,49.23,42.85"/><path class="cls-2" d="m119.5,12.65s-.25-9.65,8.62-9.65"/><path class="cls-2" d="m201.21,114.53c-6.93,6.35-18.55,4.73-18.55,4.73,0,0,1.34-5.22,1.76-5.22s1.34-23.72,1.34-23.72c0,0,.78-3.18,5.79-3.39l.38-4.09,7.24-7.55,4.66,11.72s-.28,13.62-3.11,15.88l.48,11.65Z"/><path class="cls-2" d="m105.78,87.66c0,1.05,0,32.52,0,32.52,0,0,15.74,14.25,25.29-4.17,0,0,4.87-19.83,4.18-22.36"/><path class="cls-2" d="m130.68,116.74c.52.62-2.93,18.12,17.74,13.06l9.65-15.73"/><path class="cls-2" d="m150.84,125.85s-.94,7.91,5.51,9.39,7.7-7.27,7.7-7.27"/><path class="cls-2" d="m124.77,140.28v-7.91c-6.01-9.95-20.89-3.51-20.89-3.51v6.54"/><path class="cls-2" d="m141.89,149.98v-13.27c-8.87-8.87-14.68-2.34-14.68-2.34v6.77"/><path class="cls-2" d="m102.92,160.33s12.45-.4,25.71-5.74c0,0,14.24-1.81,16.79,1.17s23.14-20.69,19.58-24.25c0,0-15.16,27.63-24.33,17.74s-37.74-13.76-37.74-13.76"/><path class="cls-2" d="m145.82,191.07c7.13-1.55,12.09-5.99,12.24-6.92s4.08-4.44,6.87-15.19-12.25-10.49-12.25-10.49c0,0-7.14-1.7-13.86-1.7-5.05,0-12.68,1.34-14.06,1.38,0,0-20.89,3.26-18.98,14.83s13.69,18.08,13.69,18.08c0,0,5.89,2.07,6.72,9.51,0,0-.12,23.98-6.04,26.19s-5.75-4.58-5.85-4.97-6.15-9.06-10.14-10.81"/><path class="cls-2" d="m107.08,177.49s-.74-3.05-3.53-5.32v42.26s16.81,18.66,17.53,33.03"/><path class="cls-2" d="m145.74,246.46s18.46-11.27,23.33-24.28c4.17-11.12,2.85-36.75-4.27-58.41,1.55,5.06,2.04,26.95,2.04,26.95,0,0-19.38,28.57-19.44,33.95s-2.93,5.48-2.93,5.48c3.1,3.82,2.38,3.82,2.89,9.71.19,2.12-.36,4.06-1.14,5.69-1.39,2.89-3.51,4.75-3.51,4.75-.1,2.58-2.27,4.44-2.27,4.44,0,0-5.17,5.68-21.08,5.68s-15.2-8.99-15.2-8.99v-36.21"/><path class="cls-2" d="m112.74,162.14s-6.64,7.49,13.31,23.51c0,0,8.72,7.86,6.91,17.16"/><path class="cls-2" d="m117.03,240.18l.56,9.34s-.78,1.83-4.28.61-4.03-18.52-4.03-18.52c1.6-2.64,4.98,0,4.98,0,0,0,2.22,4.96,2.78,8.57Z"/><path class="cls-2" d="m137.18,208.63c0-.23,11.48-7.58,14.13-8.42s5.43-7.01,5.43-7.01"/><path class="cls-2" d="m143.49,151.13c.15.04,0-7.71,0-7.71,0,0,1.28-9.37,11.18-3.92v6.33"/><path class="cls-2" d="m115.68,231.51s4.22-2.79,5.12-.29c.33.91,5.75-1.4,6.28-1.57s18.55,0,18.55,0"/><polyline class="cls-2" points="121.42 232.06 143.37 232.06 143.37 247.18 120.65 247.18"/><ellipse class="cls-2" cx="127.14" cy="251.78" rx="2.27" ry="1.59"/><ellipse class="cls-2" cx="132.97" cy="251.78" rx="2.27" ry="1.59"/><ellipse class="cls-2" cx="138.12" cy="251.18" rx="1.59" ry="2.27"/><path class="cls-2" d="m127.14,226.48c.12-.29,9.18-29.03,26.42-35.85,0,0,9.69-2.36,12.49-17.25"/><path class="cls-2" d="m189.18,82.14c-.93-.35-.43,2.7,2.67,1.54"/><ellipse class="cls-2" cx="51.43" cy="38.44" rx="8.9" ry="4.51" transform="translate(-12.12 47.63) rotate(-45)"/><ellipse class="cls-2" cx="49.64" cy="36.65" rx="13.89" ry="7.04" transform="translate(-11.38 45.84) rotate(-45)"/><ellipse class="cls-2" cx="49.64" cy="36.65" rx="23.82" ry="12.07" transform="translate(-11.38 45.84) rotate(-45)"/><ellipse class="cls-2" cx="49.64" cy="36.65" rx="32.88" ry="16.66" transform="translate(-11.38 45.84) rotate(-45)"/><ellipse class="cls-2" cx="51.89" cy="38.9" rx="39.14" ry="19.83" transform="translate(-12.31 48.08) rotate(-45)"/><path class="cls-2" d="m86.36,36.65s-3.84,9.66-1.48,15.42c0,0-3.14-1.84-4.76,0s-13.54,8.88-7.22,16.82"/><path class="cls-2" d="m95.81,12.65l-.74,19.79s-10.71,17.5-3.84,24.36"/><path class="cls-2" d="m103.59,3h-31.96s-28.01,9.98-33.77,21.87"/><path class="cls-2" d="m103.59,68.9s-12.98,2.17-17.23-7.22"/><path class="cls-2" d="m86.36,69.68s-2.69-9.61-7.65-9-4.76,2.97-4.76,3.37,2.45,5.62,4.76,5.62h7.65Z"/><path class="cls-2" d="m87.34,12.65s3.51,51.52-56.88,71.43c0,0-12.8,4.1-12.8-3.65s5.76-14.74,5.76-14.74"/><path class="cls-2" d="m103.59,72.31s-50.77-2.34-67.33,34.72"/><path class="cls-2" d="m103.59,87.79s-50.05-4.86-61.75,43.72c0,0-4.9-2.93-3.98-8.28,8.64-50.05,65.73-45.97,65.73-45.97"/><path class="cls-2" d="m48.08,157.55c.25,0-14.15-14.38-14.15-14.38,0,0-7.78,9.27-18.15,1.26,0,0-3.93,54.15,17.6,54.15,0,0-.79-41.02,14.7-41.02Z"/><path class="cls-2" d="m33.19,140.36c.47-.74-9.16-19.7-9.16-19.7,0,0-9.24,2.62-12.08-1.85h-6.31s8.77,17.39,8.08,19.01,1.23,4.54,1.23,4.54c0,0,11.16,9.24,18.24-2Z"/><path class="cls-2" d="m71.07,64.19s-29.64,18.71-49.23,42.85"/><path class="cls-2" d="m87.34,12.65s.25-9.65-8.62-9.65"/><path class="cls-2" d="m5.63,114.53c6.93,6.35,18.55,4.73,18.55,4.73,0,0-1.34-5.22-1.76-5.22s-1.34-23.72-1.34-23.72c0,0-.78-3.18-5.79-3.39l-.38-4.09-7.24-7.55-4.66,11.72s.28,13.62,3.11,15.88l-.48,11.65Z"/><path class="cls-2" d="m101.06,87.66c0,1.05,0,32.52,0,32.52,0,0-15.74,14.25-25.29-4.17,0,0-4.87-19.83-4.18-22.36"/><path class="cls-2" d="m76.16,116.74c-.52.62,2.93,18.12-17.74,13.06l-9.65-15.73"/><path class="cls-2" d="m56,125.85s.94,7.91-5.51,9.39-7.7-7.27-7.7-7.27"/><path class="cls-2" d="m82.07,140.28v-7.91c6.01-9.95,20.89-3.51,20.89-3.51v6.54"/><path class="cls-2" d="m64.95,149.98v-13.27c8.87-8.87,14.68-2.34,14.68-2.34v6.77"/><path class="cls-2" d="m103.92,160.33s-12.45-.4-25.71-5.74c0,0-14.24-1.81-16.79,1.17s-23.14-20.69-19.58-24.25c0,0,15.16,27.63,24.33,17.74s37.74-13.76,37.74-13.76"/><path class="cls-2" d="m61.02,191.07c-7.13-1.55-12.09-5.99-12.24-6.92s-4.08-4.44-6.87-15.19,12.25-10.49,12.25-10.49c0,0,7.14-1.7,13.86-1.7,5.05,0,12.68,1.34,14.06,1.38,0,0,20.89,3.26,18.98,14.83s-13.69,18.08-13.69,18.08c0,0-5.89,2.07-6.72,9.51,0,0,.12,23.98,6.04,26.19s5.75-4.58,5.85-4.97,6.15-9.06,10.14-10.81"/><path class="cls-2" d="m99.76,177.49s.74-3.05,3.53-5.32v42.26s-16.81,18.66-17.53,33.03"/><path class="cls-2" d="m61.1,246.46s-18.46-11.27-23.33-24.28c-4.17-11.12-2.85-36.75,4.27-58.41-1.55,5.06-2.04,26.95-2.04,26.95,0,0,19.38,28.57,19.44,33.95s2.93,5.48,2.93,5.48c-3.1,3.82-2.38,3.82-2.89,9.71-.19,2.12.36,4.06,1.14,5.69,1.39,2.89,3.51,4.75,3.51,4.75.1,2.58,2.27,4.44,2.27,4.44,0,0,5.17,5.68,21.08,5.68s15.2-8.99,15.2-8.99v-36.21"/><path class="cls-2" d="m94.1,162.14s6.64,7.49-13.31,23.51c0,0-8.72,7.86-6.91,17.16"/><path class="cls-2" d="m89.81,240.18l-.56,9.34s.78,1.83,4.28.61,4.03-18.52,4.03-18.52c-1.6-2.64-4.98,0-4.98,0,0,0-2.22,4.96-2.78,8.57Z"/><path class="cls-2" d="m69.66,208.63c0-.23-11.48-7.58-14.13-8.42s-5.43-7.01-5.43-7.01"/><path class="cls-2" d="m63.35,151.13c-.15.04,0-7.71,0-7.71,0,0-1.28-9.37-11.18-3.92v6.33"/><path class="cls-2" d="m91.16,231.51s-4.22-2.79-5.12-.29c-.33.91-5.75-1.4-6.28-1.57s-18.55,0-18.55,0"/><polyline class="cls-2" points="85.42 232.06 63.47 232.06 63.47 247.18 86.19 247.18"/><ellipse class="cls-2" cx="79.7" cy="251.78" rx="2.27" ry="1.59"/><ellipse class="cls-2" cx="73.87" cy="251.78" rx="2.27" ry="1.59"/><ellipse class="cls-2" cx="68.72" cy="251.18" rx="1.59" ry="2.27"/><path class="cls-2" d="m79.7,226.48c-.12-.29-9.18-29.03-26.42-35.85,0,0-9.69-2.36-12.49-17.25"/><path class="cls-2" d="m17.66,82.14c.93-.35.43,2.7-2.67,1.54"/><path class="cls-3" d="m107.13,77.06c.28,30.79.48,61.57.6,92.36.01,2.85-.02,5.86-1.52,8.28-2.27-9.82-2.51-19.98-2.36-30.06.23-15.38,1.34-30.75,3.33-46.01-2.44,18.69-5.17,37.34-8.17,55.95-.92-3.07-1.18-6.34-.75-9.52"/><path class="cls-3" d="m98.13,77.06c.23,25.3.41,50.59.53,75.89.02,3.49.03,6.99.05,10.48s.23,6.76-.14,10.09l.32-2.39c-.15,1.08-.39,2.1-.79,3.11l.91-2.15c-.17.37-.35.72-.56,1.07l16.45,2.15c-.57-2.49-1.02-5.01-1.36-7.54l.32,2.39c-1.16-8.76-1.14-17.62-.92-26.45s.75-17.99,1.57-26.95c.47-5.05,1.03-10.1,1.68-15.13.27-2.11-1.2-4.93-2.64-6.36-1.56-1.56-4.12-2.74-6.36-2.64s-4.74.87-6.36,2.64l-1.41,1.82c-.81,1.4-1.22,2.92-1.23,4.54-.3,2.3-.6,4.59-.91,6.88l.32-2.39c-2.2,16.39-4.62,32.74-7.26,49.07h17.36c-.34-1.18-.59-2.37-.76-3.58l.32,2.39c-.24-1.98-.23-3.96.02-5.94.27-2.12-1.2-4.93-2.64-6.36-1.56-1.56-4.12-2.74-6.36-2.64s-4.74.87-6.36,2.64l-1.41,1.82c-.81,1.4-1.22,2.92-1.23,4.54-.5,3.95-.03,8.1,1.07,11.91s4.72,6.78,8.68,6.61c1.6-.07,3.13-.48,4.54-1.23,1.75-.92,3.81-3.38,4.14-5.38,3.13-19.4,5.94-38.85,8.49-58.34h-18c-1.3,9.98-2.23,20.01-2.78,30.06s-.9,19.94-.35,29.87c.34,6.21,1.1,12.45,2.48,18.52.79,3.46,4.12,6,7.48,6.45s7.14-1.16,8.97-4.3c3.76-6.47,2.74-14.63,2.71-21.81-.03-6.66-.06-13.31-.1-19.97-.07-13.48-.16-26.96-.27-40.44-.06-7.66-.13-15.31-.2-22.97-.04-4.71-4.11-9.22-9-9s-9.05,3.96-9,9h0Z"/><path class="cls-3" d="m93.79,70.61c1.51,32.81-2.91,65.88-12.96,97.14-3.35-10.9-3.68-22.46-4-33.86-.59-21.52-1.18-43.05-1.76-64.57.84,23.48,1.68,46.96,2.52,70.44.73-21.32.12-42.8-3.92-63.75-1.91,25.31-3.82,50.62-5.74,75.94-.32,4.19-.64,8.39-1.57,12.49.52-27.71,1.03-55.56-2.86-83,.68,25.07-.59,50.18-3.78,75.06-.34,2.61-.76,5.37-2.44,7.39-1.91-6.29-2.47-12.89-3.02-19.44-1.66-19.76-3.31-39.51-4.97-59.27,1.5,3.61,1.53,7.63,1.54,11.54.03,10.98.06,21.96.1,32.94,1.28-18.48,2.56-36.96,3.84-55.44.12-1.71.27-3.5,1.22-4.92,2.05.83,3.1,3.06,3.96,5.1,2.52,6,5.04,12,7.57,18-.98-10.35-1.62-20.73-1.92-31.12,7.09,3.09,9.17,11.98,13.92,18.08.6.77,1.64,1.57,2.44,1.01,1.81-9.4-1.93-18.92-2.41-28.48-.05-.93,0-2.02.76-2.57,1.05-.77,2.49.1,3.46.97,4.43,4,8.18,8.74,11.06,13.96-7.82,2.01-16.38.94-23.46-2.94-1.02-.56-2.16-1.45-1.98-2.61.13-.86.94-1.43,1.69-1.88,13.89-8.34,29.94-13.06,46.13-13.57-9.87,2.14-20.13,2.53-30.13,1.13-.58-1.84,1.57-3.32,3.38-3.99,6.79-2.52,14.02-3.88,21.26-3.99-3.03.11-6.07-.26-8.98-1.08.61-3.01,3.89-4.57,6.83-5.44,5.53-1.64,11.31-2.42,17.07-2.3,1.76.03,3.85.37,4.6,1.96-3.35,5.15-9.16,8.38-15.19,9.56s-12.29.5-18.28-.86c-5.85-1.33-12.22-3.92-14.43-9.5-1.28-3.24-.87-6.86-.45-10.31.1-.81.24-1.7.86-2.22.4-.34.93-.47,1.45-.57,4.74-.92,9.75-.4,14.2,1.48,1.42.6,3.03,2.1,2.19,3.4-.43.66-1.32.84-2.1.95-2.03.29-4.06.58-6.09.87,11.99-.72,23.98-1.44,35.97-2.16"/><path class="cls-3" d="m84.79,70.61c.75,16.57,0,33.18-2.21,49.62l.32-2.39c-2.19,16.12-5.78,32.03-10.75,47.52h17.36c-1.22-4.03-2.05-8.15-2.63-12.32l.32,2.39c-1.45-10.9-1.38-21.98-1.68-32.96s-.62-22.52-.92-33.78c-.18-6.46-.35-12.91-.53-19.37h-18c.65,18.32,1.31,36.64,1.96,54.95.18,5.16.37,10.32.55,15.49.17,4.7,4.02,9.22,9,9s8.83-3.95,9-9c.56-16.71.33-33.5-1.76-50.11-.67-5.37-1.46-10.72-2.48-16.03-.39-2.03-2.34-4.43-4.14-5.38s-3.69-1.34-5.74-1.07c-4.62.62-7.46,4.31-7.8,8.84-1.65,21.84-3.3,43.68-4.95,65.51-.46,6.04-.74,12.13-1.52,18.14l.32-2.39c-.22,1.6-.49,3.19-.84,4.77l17.68,2.39c.41-21.72.81-43.49-.91-65.17-.54-6.77-1.32-13.5-2.27-20.22-.28-1.98-2.43-4.48-4.14-5.38-1.82-.96-3.69-1.34-5.74-1.07-4.29.58-7.92,4.34-7.8,8.84.52,19.63-.13,39.28-1.98,58.82-.52,5.55-1.14,11.09-1.86,16.62l.32-2.39c-.23,1.71-.52,3.4-1.18,5l.91-2.15c-.27.6-.58,1.15-.96,1.69l1.41-1.82-.24.31,15.04,3.97c-.98-3.3-1.62-6.68-2.08-10.09l.32,2.39c-1.13-8.71-1.62-17.53-2.36-26.29s-1.5-17.93-2.26-26.9c-.43-5.15-.86-10.29-1.3-15.44l-17.68,2.39c.61,1.54.99,3.12,1.22,4.76l-.32-2.39c.38,3.07.32,6.18.33,9.27,0,3.41.02,6.82.03,10.23.02,6.74.04,13.48.06,20.22.01,4.71,4.13,9.22,9,9,5.15-.23,8.65-3.96,9-9,.66-9.57,1.32-19.14,1.99-28.71.33-4.78.66-9.57.99-14.35s.48-9.33,1-13.96l-.32,2.39c.11-.79.27-1.55.54-2.3l-.91,2.15c.16-.37.33-.7.54-1.04l-12.31,3.23c.43.19.8.41,1.17.7l-1.82-1.41c.35.3.66.62.95.98l-1.41-1.82c.78,1.05,1.33,2.23,1.84,3.43l-.91-2.15c2.52,6,5.04,12,7.57,18,.91,2.16,1.93,4.22,4.14,5.38,1.82.96,3.69,1.34,5.74,1.07,4.08-.55,8.22-4.37,7.8-8.84-.97-10.35-1.61-20.73-1.92-31.12l-13.54,7.77c1,.45,1.92,1.01,2.79,1.68l-1.82-1.41c1.1.89,2.05,1.91,2.91,3.02l-1.41-1.82c2,2.64,3.46,5.61,5.08,8.49.84,1.49,1.72,2.97,2.73,4.35,1.36,1.84,2.48,3.36,4.46,4.57,2.82,1.73,6.25,2.1,9.32.81s5.23-3.9,5.75-7.35c.26-1.7.49-3.41.56-5.13.09-2.22-.06-4.44-.32-6.64-.62-5.21-1.7-10.33-2.43-15.52l.32,2.39c-.25-1.86-.57-3.82-.43-5.7l-.32,2.39c.03-.23.08-.46.16-.68l-.91,2.15c.08-.21.19-.41.33-.58l-1.41,1.82.25-.23-1.82,1.41.3-.17-2.15.91.31-.1-2.39.32c.22-.04.44-.04.65,0l-2.39-.32c.23.04.45.11.67.21l-2.15-.91c.34.17.65.35.96.57l-1.82-1.41c2.74,2.13,5.09,4.93,7.2,7.66l-1.41-1.82c1.64,2.15,3.11,4.41,4.43,6.77l5.38-13.22c-1.24.31-2.49.55-3.75.72l2.39-.32c-2.82.35-5.65.34-8.47-.01l2.39.32c-2.96-.41-5.82-1.19-8.57-2.35l2.15.91c-1.23-.54-2.49-1.1-3.58-1.89l1.82,1.41c-.28-.24-.51-.47-.74-.76l1.41,1.82-.17-.29.91,2.15c-.1-.2-.16-.41-.17-.63l.32,2.39v-.34c-.09.8-.2,1.6-.31,2.39l.08-.31-.91,2.15c.07-.2.18-.38.32-.54l-1.41,1.82c.14-.17.3-.32.47-.46l-1.82,1.41c1.83-1.38,4.01-2.42,6.04-3.47,2.16-1.12,4.36-2.14,6.6-3.1l-2.15.91c7.89-3.32,16.17-5.59,24.64-6.76l-2.39.32c3.21-.43,6.44-.7,9.68-.81l-2.39-17.68c-2.2.47-4.41.86-6.63,1.17l2.39-.32c-7.65,1.02-15.38,1.03-23.02.03l2.39.32-.48-.07,6.29,6.29-.07-.3.32,2.39c-.03-.19-.03-.39,0-.59l-.32,2.39c.03-.19.08-.38.16-.55l-.91,2.15c.08-.18.18-.36.3-.52l-1.41,1.82c.27-.35.57-.63.91-.91l-1.82,1.41c.56-.41,1.15-.73,1.78-1l-2.15.91c4.54-1.78,9.36-2.91,14.19-3.56l-2.39.32c2.45-.31,4.91-.5,7.38-.54v-18c-1.6.04-3.18-.03-4.77-.22l2.39.32c-1.42-.2-2.82-.48-4.21-.86l6.29,11.07c.08-.33.17-.63.3-.95l-.91,2.15c.19-.4.4-.76.66-1.11l-1.41,1.82c.36-.43.74-.81,1.17-1.16l-1.82,1.41c.84-.63,1.75-1.12,2.72-1.53l-2.15.91c3.37-1.35,7.07-2.05,10.66-2.53l-2.39.32c3.18-.4,6.55-.74,9.75-.37l-2.39-.32c.57.09,1.1.21,1.63.42l-2.15-.91c.3.14.56.28.83.47l-1.82-1.41c.17.13.31.27.45.43l-1.41-1.82c.14.17.25.35.34.54v-9.08c-.28.43-.58.84-.89,1.25l1.41-1.82c-1.03,1.3-2.2,2.46-3.5,3.5l1.82-1.41c-1.74,1.34-3.62,2.41-5.64,3.26l2.15-.91c-2.27.92-4.61,1.52-7.03,1.86l2.39-.32c-3.61.46-7.23.34-10.83-.14l2.39.32c-3.89-.55-7.8-1.36-11.44-2.85l2.15.91c-1.64-.7-3.19-1.53-4.62-2.6l1.82,1.41c-.9-.71-1.71-1.5-2.43-2.4l1.41,1.82c-.55-.74-1.02-1.52-1.4-2.36l.91,2.15c-.43-1.05-.7-2.12-.87-3.24l.32,2.39c-.29-2.58-.01-5.18.33-7.75l-.32,2.39c.06-.36.13-.68.25-1.03l-.91,2.15c.08-.22.19-.41.33-.59l-1.41,1.82.24-.25-1.82,1.41c.2-.17.43-.29.68-.37l-2.15.91c.68-.2,1.37-.31,2.07-.41l-2.39.32c2.19-.28,4.37-.29,6.57-.02l-2.39-.32c2.19.31,4.29.87,6.34,1.71l-2.15-.91c.43.2.82.43,1.2.71l-1.82-1.41c.28.23.51.46.74.73l-1.41-1.82c.13.17.24.35.33.54l-.91-2.15c.08.18.13.37.14.57l-.32-2.39v.29c.1-.8.2-1.6.31-2.39l-.08.28.91-2.15-.14.28,1.41-1.82c-.12.19-.28.34-.47.46l1.82-1.41-.29.16,2.15-.91c-1.09.41-2.31.47-3.45.63-1.33.19-2.66.38-3.98.57-1.99.28-4.47,2.42-5.38,4.14-.96,1.82-1.34,3.69-1.07,5.74.56,4.18,4.35,8.07,8.84,7.8,11.99-.72,23.98-1.44,35.97-2.16,2.39-.14,4.63-.91,6.36-2.64,1.56-1.56,2.74-4.12,2.64-6.36-.21-4.63-3.97-9.3-9-9-11.99.72-23.98,1.44-35.97,2.16l2.39,17.68c2.03-.29,4.07-.55,6.09-.87,4-.63,7.63-3.83,8.61-7.8,1.24-5.05-1.35-9.43-5.34-12.29-1.89-1.35-4.41-2.15-6.68-2.74-5.05-1.31-10.12-1.33-15.23-.43-4.21.74-7.75,3.95-8.84,8.11-.6,2.29-.77,4.98-.89,7.37-.23,4.67.75,9.79,3.59,13.61,2.61,3.52,5.9,6.32,9.94,8.09,3.77,1.65,7.53,2.8,11.58,3.53,4.65.83,9.44,1.41,14.16.99,5.4-.49,10.43-1.75,15.24-4.32,4.49-2.4,8.18-5.95,10.99-10.16,1.79-2.69,1.49-6.36,0-9.08-2.68-4.92-8.1-6.41-13.31-6.43-4.15-.01-8.31.46-12.39,1.19-7.79,1.38-17.16,4.46-19.26,13.18-1.13,4.72,1.46,9.75,6.29,11.07,3.67,1,7.57,1.51,11.37,1.4,4.7-.13,9.22-4.05,9-9s-3.96-9.1-9-9c-6.17.12-12.42.97-18.37,2.61-2.94.81-6.17,1.72-8.81,3.26-4.81,2.82-7.46,7.96-6.14,13.51.65,2.71,3.38,5.89,6.29,6.29,5.83.79,11.62,1.3,17.51,1.08s11.7-.99,17.41-2.21c2.04-.44,4.41-2.3,5.38-4.14s1.34-3.69,1.07-5.74c-.57-4.27-4.34-7.96-8.84-7.8-11.97.41-23.96,2.75-35.08,7.22-3.25,1.31-6.47,2.7-9.59,4.28-2.92,1.48-6.24,3.01-8.65,5.28-2.24,2.11-3.46,4.93-3.51,8.01-.07,3.98,2.44,7.27,5.54,9.45,2.62,1.84,5.87,3.03,8.92,3.97,7.21,2.23,15.09,2.29,22.39.47,5.75-1.44,8.14-8.26,5.38-13.22-2.17-3.9-4.81-7.52-7.71-10.91-3.49-4.07-7.89-8.78-13.65-8.78-4.94,0-9.32,3.6-10.35,8.4-.58,2.71-.25,5.38.1,8.09.63,4.81,1.61,9.56,2.28,14.37l-.32-2.39c.47,3.5.68,7.01.23,10.52l.32-2.39c-.07.46-.14.91-.22,1.37l4.14-5.38-.31.15,4.54-1.23-.33.04,2.39.32c-.23-.02-.45-.08-.66-.19l2.15.91-.32-.2,1.82,1.41c-.31-.25-.56-.5-.82-.8l1.41,1.82c-2.49-3.24-4.16-6.98-6.26-10.46-2.63-4.35-6.15-8.7-10.89-10.85-3.02-1.36-6.08-1.76-9.08,0-2.68,1.57-4.55,4.63-4.46,7.77.3,10.39.94,20.77,1.92,31.12l17.68-2.39c-1.95-4.65-3.91-9.3-5.86-13.95-2.2-5.24-4.11-11.97-9.8-14.53-2.17-.98-4.54-1.68-6.94-.91-2.26.73-4.11,2.08-5.38,4.14-1.88,3.05-2.24,6.47-2.48,9.96-.18,2.64-.37,5.28-.55,7.92-.36,5.2-.72,10.39-1.08,15.59-.73,10.48-1.45,20.95-2.18,31.43h18c-.02-7.74-.05-15.47-.07-23.21-.01-3.77,0-7.55-.04-11.32-.05-4.13-.32-8.48-1.85-12.35-.86-2.16-1.97-4.24-4.14-5.38-1.82-.96-3.69-1.34-5.74-1.07-4.11.55-8.18,4.37-7.8,8.84,1.75,20.85,3.38,41.71,5.25,62.55.56,6.23,1.26,12.54,3.06,18.56.9,3.03,3.21,5.44,6.29,6.29,2.81.77,6.84.12,8.76-2.31,1.67-2.12,2.61-3.61,3.59-6.15.41-1.05.68-2.13.87-3.24.56-3.23.89-6.51,1.27-9.77.65-5.57,1.21-11.15,1.67-16.74.92-11.26,1.46-22.56,1.59-33.86.08-6.35.03-12.7-.14-19.05l-17.68,2.39c.09.65.18,1.3.27,1.95l-.32-2.39c2.78,20.9,3.12,42.02,2.88,63.08-.07,5.99-.18,11.98-.29,17.97-.08,4.48,3.49,8.26,7.8,8.84s8.89-2.06,9.87-6.45c1.38-6.18,1.72-12.55,2.2-18.85.44-5.79.87-11.58,1.31-17.37.87-11.58,1.75-23.16,2.62-34.74.5-6.62,1-13.24,1.5-19.85l-17.68,2.39c.73,3.81,1.35,7.63,1.88,11.47l-.32-2.39c2.33,17.32,2.63,34.83,2.04,52.27h18c-.65-18.32-1.31-36.64-1.96-54.95-.18-5.16-.37-10.32-.55-15.49-.17-4.7-4.02-9.22-9-9s-9.14,3.96-9,9c.36,13.25.72,26.49,1.09,39.74s.35,25.67,1.25,38.44c.54,7.62,1.53,15.31,3.75,22.64,1.11,3.66,4.69,6.79,8.68,6.61s7.42-2.69,8.68-6.61c8.04-25.1,12.53-51.42,13.41-77.75.24-7.26.19-14.53-.13-21.78-.11-2.37-.93-4.66-2.64-6.36-1.56-1.56-4.12-2.74-6.36-2.64-4.69.21-9.23,3.96-9,9h0Z"/><path class="cls-3" d="m105.57,38.58c-.66,5.28-.36,10.63-.11,15.95,1.24,25.84,1.55,51.9-2.74,77.41-.23,1.35-.55,2.83-1.66,3.63-.62-2.53-.34-5.18.01-7.76.72-5.28,1.72-10.52,2.78-15.75,3.79-18.69,8.42-37.22,13.87-55.5,1.12.12,1.59,1.48,1.78,2.59,2.5,15.04-.57,30.44.27,45.66,4.14-7.76,5.89-16.57,6.75-25.33.86-8.75.88-17.57,1.82-26.32.12-1.09.29-2.27,1.04-3.07,1.71.41,2.74,2.12,3.51,3.7,1.97,4.04,3.56,8.27,4.73,12.61-2.31-6.07-4.96-12-7.94-17.78,8.53,7.32,12.06,19.19,11.82,30.43-.24,11.24-3.76,22.12-7.26,32.81-2.91,8.9-5.82,17.81-8.72,26.71-.84-.53-.96-1.69-.99-2.69-.55-18.51-1.1-37.02-1.66-55.54-.66,17.72-1.36,35.63-6.22,52.68-1.43-.92-1.86-2.78-2.15-4.45-1.35-7.9-2.16-15.89-2.41-23.9.79,9.64,1.12,19.32.98,28.99"/><path class="cls-3" d="m96.57,38.58c-.66,5.55-.34,11.12-.07,16.69s.49,11.23.62,16.85c.27,11.23.22,22.47-.47,33.68-.39,6.33-.99,12.64-1.83,18.92l.32-2.39c-.23,1.69-.47,3.38-.74,5.07-.22,1.4-.38,2.85-.85,4.19l.91-2.15c-.14.32-.28.6-.46.9l1.41-1.82c-.22.28-.42.49-.69.72,5.01,1.32,10.03,2.65,15.04,3.97-.1-.45-.18-.89-.25-1.35l.32,2.39c-.22-2-.06-3.97.2-5.95l-.32,2.39c1.27-9.47,3.31-18.84,5.38-28.17s4.36-18.57,6.85-27.78c1.42-5.27,2.92-10.53,4.48-15.76l-11.07,6.29.29.06-2.15-.91c.18.06.35.16.49.28l-1.82-1.41.2.21-1.41-1.82c.19.26.33.5.46.8l-.91-2.15c.36,1.01.47,2.09.62,3.14l-.32-2.39c1.92,14.55-.78,29.17-.02,43.76.2,3.83,2.64,7.77,6.61,8.68s8.26-.52,10.16-4.14c4.71-8.94,6.75-18.57,7.84-28.53,1.01-9.31.93-18.71,2-28.02l-.32,2.39c.08-.62.2-1.21.42-1.79l-.91,2.15c.09-.22.21-.43.35-.63l-1.41,1.82.23-.28-8.76,2.31c.22.05.44.13.65.23l-2.15-.91c.2.1.4.21.58.35l-1.82-1.41c.37.29.68.61.99.97l-1.41-1.82c1.24,1.65,2.03,3.65,2.84,5.54l-.91-2.15c1.26,3,2.33,6.08,3.18,9.22l17.36-4.79c-2.6-6.79-5.52-13.46-8.85-19.93l-14.14,10.91c1.53,1.34,2.92,2.81,4.16,4.41l-1.41-1.82c1.76,2.33,3.19,4.86,4.34,7.55l-.91-2.15c1.43,3.45,2.36,7.07,2.88,10.77l-.32-2.39c.65,4.92.51,9.86-.13,14.78l.32-2.39c-1.22,8.9-3.99,17.46-6.77,25.97s-5.76,17.65-8.65,26.48c5.01-1.32,10.03-2.65,15.04-3.97-.18-.12-.34-.26-.46-.44l1.41,1.82-.16-.27.91,2.15c-.14-.32-.22-.61-.28-.95l.32,2.39c-.29-2.28-.19-4.67-.26-6.97s-.14-4.63-.21-6.94c-.14-4.71-.28-9.42-.42-14.13-.28-9.5-.57-19.01-.85-28.51-.14-4.7-4.04-9.22-9-9s-8.81,3.95-9,9c-.42,11.24-.86,22.5-2.35,33.66l.32-2.39c-.87,6.42-2.1,12.78-3.87,19.02l13.22-5.38-.27-.2,1.82,1.41c-.26-.23-.46-.45-.67-.72l1.41,1.82c-.19-.29-.34-.56-.49-.87l.91,2.15c-1.13-2.75-1.28-6.05-1.67-8.97l.32,2.39c-.77-5.84-1.26-11.71-1.45-17.6h-18c.79,9.64,1.11,19.31.98,28.99-.06,4.71,4.19,9.22,9,9s8.93-3.95,9-9c.13-9.67-.2-19.35-.98-28.99-.2-2.42-.87-4.6-2.64-6.36-1.56-1.56-4.12-2.74-6.36-2.64-4.74.21-9.17,3.96-9,9,.18,5.56.62,11.11,1.33,16.62.42,3.29.85,6.58,1.44,9.84.29,1.64.86,3.14,1.59,4.65,1.05,2.19,2.74,3.63,4.66,5.01,2.28,1.64,5.57,1.48,8.01.45,2.57-1.08,4.44-3.11,5.21-5.83,5.06-17.87,5.85-36.62,6.54-55.07h-18c.31,10.25.61,20.5.92,30.74.15,5.12.31,10.25.46,15.37.07,2.48.15,4.96.22,7.44.12,3.87.32,8.41,3.69,11.03,1.12,1.12,2.45,1.89,3.97,2.31,1.6.43,3.19.43,4.79,0,3.14-.86,5.3-3.26,6.29-6.29,2.19-6.72,4.39-13.44,6.58-20.15s4.39-13.1,6.21-19.77c3.54-12.99,5.26-27.15.89-40.17-2.36-7.02-6.19-13.72-11.83-18.62-3.41-2.97-8.12-3.56-11.82-.7s-4.4,7.57-2.32,11.61,3.91,7.96,5.64,12.04l-.91-2.15c.8,1.9,1.57,3.81,2.3,5.73.86,2.25,1.99,4.12,4.14,5.38,1.93,1.13,4.77,1.61,6.94.91,4.65-1.51,7.61-6.2,6.29-11.07-1.15-4.2-2.7-8.24-4.46-12.23-2.07-4.7-4.84-8.81-10.06-10.37-2.83-.84-6.81-.06-8.76,2.31-1.59,1.95-2.9,3.95-3.29,6.49-.31,2.03-.52,4.06-.69,6.1-.26,3.08-.44,6.17-.6,9.26-.32,5.98-.6,11.96-1.38,17.9l.32-2.39c-.8,5.91-2.1,11.76-4.38,17.29l.91-2.15c-.58,1.37-1.21,2.71-1.91,4.03l16.77,4.54c-.47-8.93.36-17.84.64-26.75.14-4.4.15-8.81-.21-13.19-.23-2.8-.47-5.67-1.08-8.42-.87-3.93-3.96-7.7-8-8.57-4.83-1.04-9.62,1.4-11.07,6.29-6.12,20.58-11.39,41.51-15.25,62.64-.52,2.86-.99,5.73-1.39,8.61-.6,4.33-.99,8.21-.01,12.54.68,3.02,3.37,5.48,6.29,6.29,3.34.92,6.2-.22,8.76-2.31,3.22-2.64,3.89-6.9,4.47-10.74s1.1-7.71,1.54-11.57c.74-6.54,1.22-13.11,1.5-19.68.56-13.02.33-26.06-.2-39.07-.3-7.41-1.05-14.9-.18-22.3.25-2.13-1.19-4.92-2.64-6.36-1.56-1.56-4.12-2.74-6.36-2.64s-4.74.87-6.36,2.64l-1.41,1.82c-.81,1.4-1.22,2.92-1.23,4.54h0Z"/><path class="cls-3" d="m95.23,180.98c-3.92,5.71-7.12,11.91-9.5,18.42-.66,1.8-1.02,4.29.65,5.22,1.13.63,2.61.06,3.43-.94s1.13-2.3,1.42-3.55c.11-.48.2-1.05-.13-1.42-.24-.26-.63-.33-.98-.36-3.14-.33-6.31.11-9.44.54-1.72.24-3.5.5-5,1.38-1.96,1.15-3.19,3.2-4.25,5.21-2.49,4.71-4.5,9.68-5.99,14.79-.13.46-.26.94-.16,1.4.12.51.5.92.91,1.25,2.55,2.1,6.16,2.21,9.13,3.64,1.77.85,3.28,2.15,4.64,3.56.23.23.47.48.79.54.83.13,1.19-1.03,1.13-1.88-.37-5.71-3.7-10.75-6.92-15.49-.36-.54-.79-1.11-1.42-1.26-.84-.2-1.62.45-2.27,1.03-2.77,2.44-6.23,4.39-9.92,4.33-1.71-.03-3.64-.68-4.3-2.26-.58-1.4.02-2.98.66-4.35,2.86-6.1,6.66-11.77,11.2-16.74-2.43-.21-4.75,1.19-6.45,2.95s-2.98,3.88-4.61,5.69c-.34.38-.78.78-1.29.74-.65-.06-1-.77-1.21-1.39-1.18-3.4-2.01-6.93-2.48-10.5-.3.78-.63,1.6-1.28,2.14s-1.7.69-2.29.09c-.5-.51-.48-1.31-.43-2.02.33-4.59.67-9.19,1-13.78-.43,1.25-.87,2.49-1.3,3.74"/><path class="cls-3" d="m87.45,176.44c-4.32,6.33-7.88,13.32-10.41,20.57-1.96,5.63-.54,12.38,4.95,15.46,3.66,2.05,7.99,1.72,11.56-.3,3.06-1.73,4.93-4.88,5.97-8.13s1.18-6.84-.65-9.86c-2.45-4.03-6.78-4.94-11.11-4.94-1.74,0-3.47.18-5.2.4-2.43.31-5.11.48-7.49,1.2-4.99,1.51-8.58,4.95-11.06,9.43-1.97,3.56-3.59,7.34-5.06,11.13-.72,1.85-1.36,3.72-1.94,5.61-1.29,4.24-.84,8.79,2.51,12.02,2.17,2.09,4.76,3.34,7.58,4.31,1.7.58,3.45.95,5.12,1.6l-2.15-.91c1.15.49,2.18,1.12,3.17,1.88l-1.82-1.41c2.23,1.8,4,4.09,6.93,4.84,5.32,1.36,10.58-1.95,12.07-7.13.78-2.72.36-5.63-.23-8.34-.49-2.28-1.44-4.45-2.39-6.57-1.36-3.01-3.17-5.85-5.08-8.54-1.15-1.63-2.31-3.2-4.08-4.21-2.41-1.37-5.14-1.88-7.86-1.21-2.94.72-4.87,2.64-7.16,4.42l1.82-1.41c-1.22.91-2.5,1.7-3.9,2.31l2.15-.91c-1.01.41-2.04.71-3.12.88l2.39-.32c-.78.09-1.54.12-2.32.05l2.39.32c-.59-.08-1.14-.22-1.69-.43l2.15.91c-.32-.15-.59-.3-.88-.5l1.82,1.41c-.27-.22-.48-.43-.7-.7l1.41,1.82c-.13-.18-.24-.38-.33-.58l.91,2.15c-.1-.25-.17-.51-.21-.78l.32,2.39c-.03-.42-.02-.78.04-1.21l-.32,2.39c.12-.55.28-1.07.49-1.6l-.91,2.15c2.01-4.68,4.79-9.09,7.87-13.13l-1.41,1.82c1.17-1.51,2.39-2.97,3.67-4.38,2.47-2.72,3.32-6.38,1.86-9.83s-4.57-5.34-8.22-5.53c-3.99-.21-7.67,1.45-10.75,3.83-2.73,2.11-4.63,4.87-6.71,7.6l1.41-1.82c-.6.77-1.19,1.59-1.95,2.19l1.82-1.41-.34.17,4.54-1.23-.37.04,2.39.32-.3-.08,2.15.91-.26-.17,1.82,1.41-.21-.24,1.41,1.82c-.13-.18-.24-.38-.32-.59l.91,2.15c-1.26-3.31-2.03-6.85-2.53-10.35l.32,2.39-.06-.47c-.32-2.38-.76-4.64-2.64-6.36-1.49-1.36-3.16-2.21-5.17-2.48s-4.06-.01-5.74,1.07c-2.09,1.34-3.23,3.08-4.14,5.38-.09.23-.18.45-.27.67l.91-2.15c-.16.34-.32.64-.52.95l1.41-1.82c-.14.19-.3.37-.48.52l1.82-1.41c-.16.14-.35.25-.55.33l2.15-.91c-.2.08-.41.13-.62.15l2.39-.32h-.31c.8.1,1.6.21,2.39.32l-.3-.06,2.15.91-.27-.13,1.82,1.41-.24-.19,1.41,1.82c-.16-.17-.28-.37-.34-.59l.91,2.15-.08-.34.32,2.39c-.2-2.35.27-4.89.44-7.24.18-2.54.37-5.09.55-7.63.15-2.11-1.09-4.95-2.64-6.36s-3.16-2.21-5.17-2.48c-4.59-.62-8.39,2.16-9.87,6.45-.43,1.25-.87,2.49-1.3,3.74-.74,2.12-.2,5.05.91,6.94s3.23,3.65,5.38,4.14c5.02,1.14,9.42-1.52,11.07-6.29.43-1.25.87-2.49,1.3-3.74l-17.68-2.39c-.18,2.46-.36,4.92-.54,7.38s-.51,4.77-.49,7.13c.08,6.85,6.2,11.88,12.96,10.36,2.02-.45,3.94-1.56,5.39-3.03,1.71-1.73,2.46-3.65,3.33-5.87l-17.68-2.39c.38,2.83.76,5.62,1.46,8.39.59,2.36,1.24,5.2,2.52,7.27,3.5,5.7,10.75,6.85,15.79,2.38,1.94-1.72,3.35-4.03,4.92-6.08l-1.41,1.82c.86-1.09,1.76-2.13,2.83-3.01l-1.82,1.41c.73-.56,1.48-1.03,2.32-1.4l-2.15.91c.6-.23,1.19-.39,1.83-.48l-2.39.32c.39-.03.75-.04,1.14-.02-2.12-5.12-4.24-10.24-6.36-15.36-3.17,3.49-6.08,7.26-8.6,11.25-1.1,1.73-2.11,3.52-3.05,5.35-1.54,3.01-2.98,6.04-3.09,9.49-.26,7.99,7.54,13.32,14.95,12.57,3.35-.34,6.17-1.15,9.16-2.75,2.31-1.23,4.26-3.01,6.29-4.63l-1.82,1.41c.2-.15.41-.29.64-.4l-2.15.91c.22-.1.45-.16.69-.18l-2.39.32.36.03-2.39-.32.3.11-2.15-.91.27.17-1.82-1.41c.17.13.33.28.46.45l-1.41-1.82c2.21,2.88,4.18,6.14,5.64,9.46l-.91-2.15c.72,1.71,1.25,3.45,1.54,5.28l-.32-2.39c.08.62.16,1.24.11,1.87l.32-2.39c-.03.2-.08.39-.15.58l.91-2.15c-.06.17-.16.33-.28.46l1.41-1.82-.19.15,3.97-2.31-.23.08,2.39-.32h-.26c.8.11,1.6.22,2.39.32l-.3-.11,2.15.91-.26-.19,1.82,1.41c-2.18-2.15-4.55-4.28-7.39-5.51s-5.59-1.8-8.33-2.91l2.15.91c-.69-.31-1.34-.66-1.96-1.09l1.82,1.41c-.32-.25-.59-.49-.86-.79l1.41,1.82-.21-.33.91,2.15-.13-.36.32,2.39c-.05-.23-.05-.47-.01-.7l-.32,2.39c.65-3.17,1.98-6.32,3.22-9.3l-.91,2.15c1.32-3.11,2.71-6.38,4.72-9.12l-1.41,1.82c.55-.7,1.13-1.32,1.84-1.87l-1.82,1.41c.45-.31.9-.57,1.4-.81l-2.15.91c1.8-.73,3.73-.92,5.64-1.18l-2.39.32c2.67-.35,5.34-.6,8.03-.35l-2.39-.32c.24.02.48.07.7.16l-2.15-.91.28.2-3.23-3.23.18.31-.91-2.15.06.36-.32-2.39-.03.38.32-2.39c-.17.89-.4,1.76-.72,2.61l.91-2.15c-.21.48-.46.9-.77,1.32l1.41-1.82c-.15.18-.32.35-.51.5l1.82-1.41c-.31.22-.58.37-.93.52l2.15-.91c-.22.08-.44.14-.68.16l2.39-.32c-.23.03-.45.02-.68-.02l2.39.32-.33-.09,2.15.91c-.21-.07-.4-.18-.58-.31l1.82,1.41c-.16-.12-.3-.26-.42-.42l1.41,1.82c-.12-.16-.21-.32-.29-.5l.91,2.15c-.11-.3-.17-.57-.22-.88l.32,2.39c-.03-.44-.02-.87.03-1.31l-.32,2.39c.31-1.98,1.21-3.89,1.99-5.73l-.91,2.15c2.19-5.13,4.86-10.03,8.01-14.64,1.26-1.85,1.48-4.84.91-6.94s-2.19-4.35-4.14-5.38c-4.57-2.41-9.47-.93-12.31,3.23h0Z"/><path class="cls-3" d="m49.2,183.91c4.71,0,9.22-4.14,9-9s-3.95-9-9-9c-4.71,0-9.22,4.14-9,9s3.95,9,9,9h0Z"/><path class="cls-3" d="m49.27,181.43c4.71,0,9.22-4.14,9-9s-3.95-9-9-9c-4.71,0-9.22,4.14-9,9s3.95,9,9,9h0Z"/><path class="cls-3" d="m97.64,158.25c-.54-.09-1.04.38-1.19.91s-.03,1.09.1,1.62c.7,2.86,1.78,5.64,3.18,8.23,1.07,1.97,2.33,3.83,3.33,5.83.46.93.88,1.91.9,2.95.04,1.67-1.06,3.31-2.62,3.91"/><path class="cls-3" d="m97.64,149.25c-3.49.12-6.82,1.73-8.64,4.79-1.57,2.64-1.83,5.33-1.29,8.31.35,1.93.99,3.8,1.72,5.62.98,2.43,2.03,4.78,3.36,7.04.98,1.67,2.03,3.31,2.83,5.08l-.91-2.15c.25.61.44,1.2.54,1.85l-.32-2.39c.03.37.02.69-.02,1.05l.32-2.39c-.07.34-.15.64-.27.96l.91-2.15c-.15.31-.3.58-.49.87l1.41-1.82c-.28.36-.58.66-.94.94l1.82-1.41c-.29.19-.56.34-.88.48-1.93.84-3.6,3.45-4.14,5.38-.59,2.15-.33,5.02.91,6.94s3.08,3.61,5.38,4.14l2.39.32c1.62,0,3.14-.41,4.54-1.23,1.26-.55,2.5-1.55,3.43-2.56,1.39-1.53,2.32-3.17,3.01-5.11,1.16-3.25.59-6.65-.71-9.72-1.56-3.71-3.99-6.95-5.58-10.65l.91,2.15c-.79-1.91-1.56-3.95-1.88-6.01l.32,2.39v-.41c-.12.8-.22,1.6-.33,2.39l.07-.4-.91,2.15c.06-.22.17-.41.33-.57l-1.41,1.82.25-.2-3.97,2.31.29-.12-2.39.32h.32c2.36-.09,4.68-.96,6.36-2.65,1.56-1.56,2.74-4.12,2.64-6.36-.21-4.74-3.96-9.17-9-9h0Z"/><path class="cls-3" d="m108.26,188.43c4.36,3.61,7.63,8.52,9.28,13.93-.44-5.14-.88-10.28-1.31-15.42-.05-.58.02-1.33.57-1.49.27-.08.55.04.8.18.97.56,1.59,1.57,2.12,2.55,1.76,3.21,3.13,6.64,4.07,10.18-6.38-13.41-9.88-27.97-13.33-42.4-.75,6.14-.1,12.45,1.89,18.31.16.48.72,1.05,1.05.67"/><path class="cls-3" d="m101.9,194.79c1.66,1.39,3.15,2.94,4.48,4.65l-1.41-1.82c1.55,2.05,2.84,4.26,3.84,6.62l-.91-2.15c.36.87.68,1.76.96,2.66,1.35,4.3,5.37,7.05,9.87,6.45,4.1-.55,8.18-4.37,7.8-8.84-.23-2.74-.47-5.47-.7-8.21-.22-2.55-.75-5.27-.61-7.82l-.32,2.39c.02-.2.07-.38.16-.55l-2.31,3.97.17-.2-1.82,1.41.24-.12-4.54,1.23h.41c-1.51-.4-3.03-.81-4.54-1.22.25.08.49.21.7.37l-1.82-1.41c.3.24.54.48.8.77l-1.41-1.82c1.3,1.68,2.18,3.76,3.01,5.7l-.91-2.15c.82,1.98,1.51,3.99,2.07,6.06l16.45-6.94c-.73-1.54-1.42-3.09-2.08-4.65l.91,2.15c-5.09-12.15-8.19-24.98-11.25-37.75-1.04-4.36-5.61-7.02-9.87-6.45-1.89.25-3.84,1.03-5.17,2.48l-1.41,1.82c-.81,1.4-1.22,2.92-1.23,4.54-.56,4.77-.21,9.46.58,14.18.33,1.98.8,3.94,1.42,5.86.87,2.71,2.22,5.07,4.7,6.59,3.04,1.87,6.65,1.88,9.79.11,4.11-2.31,5.83-8.28,3.23-12.31s-7.92-5.7-12.31-3.23l-.22.12,6.94-.91-.25-.05,2.15.91-.24-.18,1.82,1.41-.21-.26,1.41,1.82-.14-.29.91,2.15c-.84-2.5-1.44-5.06-1.81-7.67l.32,2.39c-.47-3.54-.5-7.1-.08-10.64l-17.68,2.39c3.65,15.22,7.52,30.34,14.24,44.55.88,1.85,3.42,3.69,5.38,4.14s3.95.35,5.86-.45c4.09-1.73,6.39-6.25,5.21-10.62-1-3.69-2.43-7.28-4.13-10.7-.9-1.82-1.92-3.49-3.27-5.02-2.89-3.28-7.65-4.73-11.74-3.01-3.79,1.6-6.26,5.4-6.11,9.56.06,1.71.29,3.42.43,5.13.3,3.48.59,6.97.89,10.45l17.68-2.39c-2.15-6.85-6.08-13.26-11.6-17.9-1.87-1.57-3.85-2.64-6.36-2.64-2.21,0-4.84.98-6.36,2.64s-2.74,3.97-2.64,6.36c.1,2.27.83,4.85,2.64,6.36h0Z"/><path class="cls-3" d="m145.12,151.51c-8.78-.09-17.56.37-26.28,1.37"/><path class="cls-3" d="m145.12,142.51c-8.78-.08-17.55.38-26.28,1.37-2.46.28-4.55.82-6.36,2.64-1.56,1.56-2.74,4.12-2.64,6.36s.87,4.74,2.64,6.36c1.64,1.51,4.04,2.9,6.36,2.64,8.72-.99,17.5-1.44,26.28-1.37,4.71.04,9.22-4.17,9-9s-3.95-8.96-9-9h0Z"/><path class="cls-3" d="m147.48,131.51c-1.3,2.57-1.65,5.5-2.26,8.32s-1.6,5.72-3.78,7.61c-.69-.42-.77-1.38-.77-2.19,0-1.96.02-3.92.02-5.87"/><path class="cls-3" d="m139.71,126.97c-1.32,2.69-2.15,5.36-2.73,8.27-.4,2.04-.8,4.08-1.59,6.01l.91-2.15c-.39.91-.86,1.76-1.46,2.55l1.41-1.82c-.36.45-.74.86-1.17,1.24l10.91-1.41-.16-.12,1.82,1.41-.14-.14,1.41,1.82c-.08-.1-.15-.21-.21-.32l.91,2.15c-.11-.26-.17-.51-.22-.78l.32,2.39c-.23-2.19-.03-4.5-.02-6.71s-1.01-4.74-2.64-6.36-4.12-2.74-6.36-2.64-4.74.87-6.36,2.64-2.63,3.92-2.64,6.36c0,1.8-.01,3.61-.02,5.41,0,1.37.07,2.78.44,4.1.25.9.67,1.9,1.14,2.69.94,1.57,2.18,2.58,3.64,3.63l2.15.91c1.2.38,2.39.43,3.59.16.81,0,1.57-.21,2.27-.61,1.12-.36,2.08-.98,2.9-1.86,1-.89,1.78-2,2.58-3.06.39-.52.74-1.07,1.04-1.65.93-1.82,1.71-3.78,2.22-5.77.74-2.89,1.02-5.88,2.17-8.65l-.91,2.15c.11-.26.23-.51.35-.76,1.08-2.19,1.57-4.52.91-6.94-.57-2.09-2.19-4.35-4.14-5.38-2.09-1.1-4.62-1.66-6.94-.91-2.14.69-4.35,2.05-5.38,4.14h0Z"/><path class="cls-3" d="m144.26,106.36c-.55,7.12-1.15,14.43-4.24,20.87,2.37-5.98,5.3-11.75,8.73-17.19.43-.69.97-1.44,1.78-1.56.79-.12,1.53.42,2.13.95,4.82,4.31,7.88,10.53,8.36,16.98.1,1.33.08,2.7-.43,3.92-.61,1.43-1.82,2.5-2.94,3.58-4.06,3.95-7.21,8.84-9.11,14.18,2.01-2.04,3.88-4.22,5.59-6.52-1.02,4.1-2.71,8.03-4.98,11.59"/><path class="cls-3" d="m135.26,106.36c-.22,2.83-.45,5.66-.83,8.48l.32-2.39c-.54,3.83-1.37,7.6-2.86,11.17l.91-2.15c-.18.41-.36.81-.55,1.22l16.45,6.94c.28-.71.57-1.42.87-2.13l-.91,2.15c2.28-5.36,4.87-10.9,8.26-15.66l-1.41,1.82c.14-.19.3-.36.47-.52l-1.82,1.41c.17-.15.36-.27.57-.36l-2.15.91.33-.09-2.39.32h.39c-.8-.12-1.6-.22-2.39-.33l.38.08-2.15-.91c.4.17.7.35,1.04.61l-1.82-1.41c1.31,1.12,2.47,2.39,3.52,3.75l-1.41-1.82c1.27,1.7,2.33,3.52,3.18,5.46l-.91-2.15c.87,2.08,1.48,4.23,1.81,6.46l-.32-2.39c.17,1.26.27,2.52.16,3.79l.32-2.39c-.08.6-.22,1.14-.43,1.7l.91-2.15c-.22.47-.48.9-.78,1.32l1.41-1.82c-1.08,1.36-2.43,2.47-3.6,3.74-1.59,1.73-3.04,3.61-4.4,5.53-2.41,3.41-4.16,7.22-5.58,11.14l-.32,2.39c-.05,1.24.21,2.39.78,3.47.73,1.73,1.98,3.4,3.68,4.3,3.52,1.86,8.03,1.53,10.91-1.41,2.55-2.61,4.81-5.43,6.99-8.34l-16.45-6.94c-.5,1.98-1.15,3.91-1.93,5.8l.91-2.15c-.86,2.01-1.88,3.94-3.05,5.8-2.52,3.99-.97,10.1,3.23,12.31,4.44,2.34,9.63,1.03,12.31-3.23s4.66-8.93,5.89-13.74c1.11-4.37-1.07-8.87-5.21-10.62-1.79-.75-3.96-1.07-5.86-.45-2.37.77-3.9,2.16-5.38,4.14-.27.36-.55.72-.82,1.08l1.41-1.82c-1.49,1.9-3.08,3.71-4.77,5.44l15.04,8.76c.24-.65.49-1.29.75-1.93l-.91,2.15c1.26-2.93,2.85-5.68,4.78-8.22l-1.41,1.82c3.17-4.09,8.02-7.27,9.15-12.63s.14-10.84-1.86-15.69-4.73-9.41-8.7-12.92c-1.65-1.45-3.5-2.82-5.71-3.28-3.35-.7-6.45,0-9.14,2.07-2.42,1.87-3.94,4.76-5.44,7.38-2.86,5.01-5.25,10.25-7.39,15.6-.78,1.95-.2,5.22.91,6.94s2.46,2.91,4.3,3.68c3.81,1.61,9.33.38,11.24-3.68s3.24-8.01,3.98-12.33,1.15-8.71,1.49-13.08c.17-2.19-1.13-4.85-2.64-6.36s-4.12-2.74-6.36-2.64-4.74.87-6.36,2.64-2.44,3.87-2.64,6.36h0Z"/><path class="cls-3" d="m19.61,100.85c4.71,0,9.22-4.14,9-9s-3.95-9-9-9c-4.71,0-9.22,4.14-9,9s3.95,9,9,9h0Z"/><path class="cls-3" d="m25.68,108.18c3.15.13,6.42.3,9.22,1.75.59.31,1.16.68,1.57,1.2.57.72.77,1.67.8,2.59.1,2.87-1.3,5.54-2.67,8.06"/><path class="cls-3" d="m25.68,117.18c1.43.06,2.85.13,4.27.31l-2.39-.32c1.4.19,2.78.5,4.09,1.04l-2.15-.91c.63.27,1.24.58,1.79.98l-1.82-1.41c.23.19.44.39.63.61l-1.41-1.82c.17.23.31.47.43.72l-.91-2.15c.16.4.26.8.32,1.23l-.32-2.39c.08.69.06,1.37-.02,2.06l.32-2.39c-.17,1.19-.53,2.31-.99,3.41l.91-2.15c-.48,1.11-1.04,2.17-1.61,3.24-1.13,2.1-1.55,4.6-.91,6.94.57,2.09,2.19,4.35,4.14,5.38,2.09,1.1,4.62,1.66,6.94.91,2.19-.71,4.26-2.06,5.38-4.14,1.34-2.48,2.72-5.1,3.34-7.87.87-3.9.88-8.44-1.48-11.87-1.34-1.96-3.06-3.62-5.22-4.64-1.54-.72-3.14-1.42-4.81-1.81-2.78-.65-5.68-.85-8.52-.97-2.24-.1-4.8,1.07-6.36,2.64s-2.74,4.12-2.64,6.36.87,4.74,2.64,6.36,3.89,2.53,6.36,2.64h0Z"/><path class="cls-3" d="m32.72,128.21c4.71,0,9.22-4.14,9-9s-3.95-9-9-9c-4.71,0-9.22,4.14-9,9s3.95,9,9,9h0Z"/><path class="cls-3" d="m31.08,124.12c4.71,0,9.22-4.14,9-9s-3.95-9-9-9c-4.71,0-9.22,4.14-9,9s3.95,9,9,9h0Z"/><path class="cls-3" d="m30.42,93.16c-.18.77-.15,1.58.08,2.33.08.28.2.56.44.73.52.38,1.24.01,1.71-.43,2.69-2.52,2.6-6.91,4.86-9.81.51.09.75.67.88,1.17.63,2.48.67,5.1.12,7.6-.33.03-.49-.38-.53-.71-.58-4.21-.3-8.54.8-12.64.2.01.37.23.33.43"/><path class="cls-3" d="m21.74,90.77c-.48,2.41-.52,4.33-.02,6.73.21,1,.68,2.05,1.16,2.94.81,1.51,2.16,2.7,3.59,3.6,1.84,1.16,4.11,1.45,6.22,1.17,1.53-.21,2.48-.37,3.95-1.26,1.59-.96,2.65-2.04,3.75-3.47.6-.78,1.18-1.51,1.61-2.38.6-1.22,1.12-2.5,1.59-3.78s.83-2.55,1.35-3.79l-.91,2.15c.34-.77.73-1.49,1.24-2.16l-10.16,4.14.18.06-2.15-.91.16.09-1.82-1.41.13.13-1.41-1.82c.13.17.21.32.29.51l-.91-2.15c.25.73.37,1.5.48,2.26l-.32-2.39c.18,1.46.18,2.91,0,4.37l.32-2.39c-.06.45-.14.9-.24,1.35l8.68-6.61-.15-.02,4.54,1.23-.12-.08,1.82,1.41-.1-.12,1.41,1.82-.07-.15.91,2.15c-.04-.11-.07-.22-.08-.34l.32,2.39c-.38-2.85-.38-5.72-.02-8.57l-.32,2.39c.19-1.38.46-2.73.81-4.08l-11.07,6.29.18.07-3.97-2.31.12.16-2.64-6.36.02.2c-.05,1.24.21,2.39.78,3.47.36,1.12.98,2.08,1.86,2.9,1.56,1.56,4.12,2.74,6.36,2.64s4.74-.87,6.36-2.64c1.51-1.64,2.9-4.04,2.64-6.36-.1-.87-.21-1.73-.34-2.59-.43-1.52-1.2-2.85-2.31-3.97-1.37-1.41-2.48-1.85-4.28-2.54-1.2-.38-2.39-.43-3.59-.16-1.2.05-2.31.41-3.35,1.07-1.96,1.26-3.53,3.07-4.14,5.38-.87,3.3-1.35,6.78-1.41,10.2-.02,1.34.04,2.68.19,4.01.23,2.09.35,3.84,1.42,5.7.83,1.45,1.96,2.65,3.4,3.5,1.77,1.05,2.82,1.08,4.81,1.33l2.39-.32c1.17-.28,2.19-.82,3.06-1.61,1.47-1.14,2.83-2.8,3.23-4.68.54-2.55.88-5.23.6-7.84-.17-1.51-.32-3.24-.77-4.74-1.06-3.52-3.56-6.17-7.11-7.27l-2.39-.32c-1.24-.05-2.39.21-3.47.78-.76.21-1.42.6-1.99,1.16-.98.63-1.75,1.48-2.32,2.53-1.2,1.58-1.9,3.55-2.57,5.39-.44,1.22-.81,2.48-1.31,3.68l.91-2.15c-.33.76-.71,1.47-1.21,2.13l1.41-1.82c-.26.33-.54.63-.86.9l1.82-1.41c-.19.14-.36.24-.57.34l2.15-.91c-.13.05-.27.09-.41.1l2.39-.32h-.2c.8.1,1.6.21,2.39.32l-.19-.05,2.15.91-.18-.1,1.82,1.41-.15-.15,1.41,1.82c-.09-.11-.16-.24-.21-.38l.91,2.15c-.11-.32-.18-.64-.23-.97l.32,2.39c-.03-.35-.03-.69,0-1.04l-.32,2.39c.02-.17.05-.35.09-.52.48-2.4.36-4.77-.91-6.94-1.09-1.87-3.23-3.65-5.38-4.14-2.3-.52-4.89-.41-6.94.91-1.89,1.22-3.68,3.1-4.14,5.38h0Z"/><path class="cls-3" d="m29.02,107.13c.9.43,1.67,1.08,2.43,1.73,1.61,1.37,3.26,2.8,4.12,4.73.71,1.6.81,3.39.89,5.13"/><path class="cls-3" d="m24.48,114.9c.54.27,1.03.6,1.5.97l-1.82-1.41c1.41,1.12,2.82,2.31,3.95,3.72l-1.41-1.82c.47.61.87,1.26,1.17,1.97l-.91-2.15c.31.78.49,1.59.61,2.42l-.32-2.39c.11.84.16,1.68.2,2.52.12,2.38.92,4.65,2.64,6.36.82.88,1.78,1.5,2.9,1.86,1.07.56,2.23.82,3.47.78,2.33-.1,4.74-.87,6.36-2.64s2.76-3.97,2.64-6.36c-.1-2.05-.26-4.15-.75-6.14-.33-1.35-.91-2.65-1.54-3.88-.44-.86-1.05-1.59-1.63-2.34-.98-1.27-2.01-2.38-3.22-3.42-.47-.41-.95-.81-1.43-1.2-1.05-.83-2.11-1.77-3.33-2.37-1.03-.66-2.15-1.01-3.35-1.07-1.2-.27-2.39-.21-3.59.16-1.17.28-2.19.82-3.06,1.61-.98.63-1.75,1.48-2.32,2.53-1.1,2.09-1.66,4.62-.91,6.94.69,2.15,2.05,4.34,4.14,5.38h0Z"/><path class="cls-3" d="m34.2,130.72c3.29-1,7.19,1.02,8.28,4.28.36,1.09.44,2.25.55,3.39.3,3.04.88,6.05,1.73,8.98"/><path class="cls-3" d="m36.59,139.4c.29-.08.57-.14.87-.19l-2.39.32c.59-.07,1.17-.07,1.77,0l-2.39-.32c.59.09,1.16.24,1.72.46l-2.15-.91c.62.26,1.2.59,1.74,1l-1.82-1.41c.47.37.88.79,1.25,1.26l-1.41-1.82c.31.42.57.86.78,1.34l-.91-2.15c.29.73.44,1.48.55,2.25l-.32-2.39c.53,4.37,1,8.69,2.21,12.93.62,2.19,2.16,4.23,4.14,5.38s4.77,1.61,6.94.91,4.28-2.05,5.38-4.14,1.58-4.56.91-6.94-1.17-4.7-1.5-7.1l.32,2.39c-.33-2.48-.31-5.12-1.05-7.52-.79-2.54-2.19-5.07-4.2-6.85-4.15-3.67-9.74-5.4-15.19-3.86-2.19.62-4.23,2.17-5.38,4.14s-1.61,4.77-.91,6.94,2.05,4.28,4.14,5.38,4.56,1.58,6.94.91h0Z"/><path class="cls-3" d="m40.75,149.68c4.71,0,9.22-4.14,9-9s-3.95-9-9-9c-4.71,0-9.22,4.14-9,9s3.95,9,9,9h0Z"/><path class="cls-3" d="m53.2,163.93c4.71,0,9.22-4.14,9-9s-3.95-9-9-9c-4.71,0-9.22,4.14-9,9s3.95,9,9,9h0Z"/><path class="cls-3" d="m152.82,161.97c4.71,0,9.22-4.14,9-9s-3.95-9-9-9c-4.71,0-9.22,4.14-9,9s3.95,9,9,9h0Z"/><path class="cls-3" d="m165.92,146.73c4.71,0,9.22-4.14,9-9s-3.95-9-9-9c-4.71,0-9.22,4.14-9,9s3.95,9,9,9h0Z"/><path class="cls-3" d="m174.94,126.58c4.71,0,9.22-4.14,9-9s-3.95-9-9-9c-4.71,0-9.22,4.14-9,9s3.95,9,9,9h0Z"/><path class="cls-3" d="m185.09,99.7c4.71,0,9.22-4.14,9-9s-3.95-9-9-9c-4.71,0-9.22,4.14-9,9s3.95,9,9,9h0Z"/><path class="cls-3" d="m181.76,91.36c-3.08-.94-6.14-1.92-9.19-2.94-2.78-.93-5.56-1.9-8.15-3.26-2.44-1.28-4.69-2.89-6.93-4.5-2.57-1.85-5.15-3.7-7.72-5.55-.51-.37-1.25-.72-1.7-.28-.4.4-.16,1.08.1,1.58,1.72,3.25,3.59,6.42,5.6,9.49,1.58,2.41,3.28,4.81,5.56,6.57,2.12,1.63,4.65,2.64,7.14,3.63,4.58,1.81,9.16,3.63,13.73,5.44.37.15.75.3,1.01.59.28.31.39.74.47,1.15.31,1.65.22,3.37-.25,4.98-.23.77-.59,1.57-1.29,1.97-.46.27-1.02.32-1.55.37-5.34.45-10.73.42-16.07-.09-.89-.09-1.81-.2-2.55-.69s-1.22-1.49-.85-2.3c.7-.3,1.42.35,1.89.94,5.03,6.22,9.09,13.23,11.98,20.69.8,2.07,1.49,4.5.4,6.43-.77,1.35-2.23,2.12-3.61,2.84-2.51,1.31-4.98,2.69-7.4,4.14-1.05.63-2.12,1.29-2.84,2.28s-1,2.39-.37,3.44"/><path class="cls-3" d="m184.16,82.68c-4.98-1.52-10.03-3-14.84-5.02l2.15.91c-4.5-1.95-8.37-4.92-12.33-7.77-2.35-1.69-4.73-3.86-7.54-4.71-3.18-.95-6.39-.34-8.98,1.66-3.24,2.51-4.51,6.8-3.27,10.72.89,2.84,2.71,5.56,4.24,8.1,1.23,2.04,2.49,4.08,3.88,6.01,2.18,3.02,4.34,5.44,7.32,7.65,2.29,1.69,4.9,2.74,7.52,3.82,5.26,2.17,10.62,4.11,15.87,6.31l-2.15-.91.35.19-1.82-1.41.3.25-1.41-1.82c.14.16.24.34.31.54l-.91-2.15c.11.36.17.69.23,1.07l-.32-2.39c.11.92.12,1.82.04,2.74l.32-2.39c-.12.84-.29,1.66-.6,2.45l.91-2.15c-.16.33-.31.59-.53.88l1.41-1.82-.24.24,1.82-1.41c-.19.16-.4.28-.64.36l2.15-.91c-.26.08-.52.14-.79.17l2.39-.32c-5.68.55-11.57.58-17.23-.14l2.39.32c-.39-.07-.74-.15-1.11-.27l2.15.91c-.24-.09-.46-.2-.67-.34l1.82,1.41c-.19-.13-.35-.28-.5-.45l1.41,1.82c-.14-.18-.26-.37-.35-.58l.91,2.15-.1-.31.32,2.39c-.05-.21-.05-.43-.01-.64l-.32,2.39.1-.31-6.29,6.29.35-.08h-4.79l.35.05-2.15-.91c.24.09.46.22.65.39l-1.82-1.41c.62.59,1.13,1.29,1.65,1.97l-1.41-1.82c4.06,5.3,7.43,11.08,10.04,17.23l-.91-2.15c.72,1.73,1.47,3.46,1.74,5.33l-.32-2.39c.05.55.06,1.08,0,1.63l.32-2.39c-.08.41-.18.77-.33,1.16l.91-2.15c-.19.37-.37.67-.62,1l1.41-1.82c-.26.29-.53.54-.83.79l1.82-1.41c-1.42,1.06-3.08,1.79-4.63,2.63-1.72.94-3.43,1.91-5.12,2.92-2.47,1.48-4.79,3.29-6.27,5.82-2.26,3.86-2.14,8.29-.17,12.22,2.11,4.22,8.41,5.75,12.31,3.23,4.31-2.78,5.49-7.8,3.23-12.31l-.16-.32.91,2.15c-.09-.22-.15-.45-.17-.69l.32,2.39c-.02-.24-.02-.48.01-.72l-.32,2.39c.07-.38.17-.7.32-1.06l-.91,2.15c.1-.22.23-.44.37-.64l-1.41,1.82c.34-.43.71-.8,1.13-1.15l-1.82,1.41c2.99-2.25,6.53-3.84,9.8-5.63,2.51-1.38,4.63-3.25,6.14-5.7,2.03-3.28,2.06-7.29,1.28-10.93-.49-2.28-1.6-4.52-2.51-6.65-.76-1.77-1.56-3.52-2.44-5.24-1.69-3.3-3.61-6.47-5.75-9.5-1.38-1.95-2.78-3.93-4.36-5.72-4.22-4.8-12.58-5.01-16.03.89-2.45,4.19-1.38,9.66,1.99,13,2.81,2.77,6.41,3.3,10.15,3.62,4.05.35,8.12.41,12.18.2,3.06-.16,6.29-.21,9.01-1.8,3.14-1.84,5.09-5.18,5.73-8.69.68-3.76.75-8.06-1.25-11.48-2.14-3.67-6.09-4.79-9.78-6.25-4.17-1.65-8.36-3.25-12.49-4.96l2.15.91c-1.82-.77-3.58-1.64-5.17-2.83l1.82,1.41c-1.25-.99-2.32-2.13-3.32-3.38l1.41,1.82c-3.06-3.96-5.85-8.49-7.99-13.01l.91,2.15c-.1-.22-.15-.44-.17-.68v4.79l.05-.31-.91,2.15.17-.27-3.23,3.23.25-.16-2.15.91.28-.05h-4.79c.21,0,.41.06.6.15l-2.15-.91c1.3.68,2.47,1.7,3.66,2.55,1.29.92,2.57,1.85,3.86,2.77,2.49,1.79,4.97,3.63,7.7,5.06,6.09,3.2,12.94,5.1,19.49,7.11,4.5,1.38,10.01-1.64,11.07-6.29s-1.47-9.59-6.29-11.07h0Z"/><path class="cls-3" d="m67.36,248.55c4.71,0,9.22-4.14,9-9s-3.95-9-9-9c-4.71,0-9.22,4.14-9,9s3.95,9,9,9h0Z"/><path class="cls-3" d="m68.04,242.25c4.71,0,9.22-4.14,9-9s-3.95-9-9-9c-4.71,0-9.22,4.14-9,9s3.95,9,9,9h0Z"/><path class="cls-3" d="m126.43,216.06c0,3.38-.35,6.77-1.02,10.09-.16.78-.44,1.68-1.2,1.94.15-2.33.42-4.66.82-6.96.05-.31.12-.63.34-.85.41-.41,1.09-.25,1.62-.04,4.23,1.68,7.83,4.92,9.94,8.95"/><path class="cls-3" d="m117.43,216.06c-.01,2.29-.17,4.57-.47,6.83l.32-2.39c-.19,1.4-.31,2.95-.85,4.26l.91-2.15c-.08.16-.15.3-.25.44l1.41-1.82c-.07.09-.14.17-.22.24l1.82-1.41c-.08.07-.17.13-.27.18l2.15-.91-.15.06,11.39,8.68c.1-1.5.24-3,.44-4.49l-.32,2.39c.13-.99.19-2.07.52-3.02l-.91,2.15.08-.16-1.41,1.82c.06-.1.14-.18.24-.25l-1.82,1.41.14-.07-2.15.91c.1-.04.21-.06.32-.07l-2.39.32c.12,0,.23,0,.35.02l-2.39-.32c.37.07.71.21,1.06.35l-2.15-.91c1.5.65,2.91,1.47,4.21,2.46l-1.82-1.41c1.35,1.05,2.55,2.25,3.59,3.59l-1.41-1.82c.66.87,1.24,1.78,1.75,2.74,1.03,1.95,3.29,3.56,5.38,4.14,1.2.38,2.39.43,3.59.16,1.2-.05,2.31-.41,3.35-1.07,1.92-1.24,3.61-3.08,4.14-5.38.55-2.42.26-4.72-.91-6.94-1.27-2.4-2.99-4.65-4.91-6.55s-4.17-3.63-6.58-4.87c-2.21-1.14-4.38-2.05-6.9-2.19-4.56-.24-8.87,3.09-9.92,7.5-.45,1.88-.6,3.9-.83,5.8-.15,1.24-.26,2.49-.35,3.74,0,1.62.41,3.14,1.23,4.54.57,1.05,1.34,1.89,2.32,2.53.87.8,1.89,1.33,3.06,1.61,1.6.43,3.19.43,4.79,0,.87-.36,1.79-.63,2.57-1.15,1.56-1.04,2.44-1.87,3.45-3.47.6-.95,1.03-2.02,1.34-3.09s.46-2.26.62-3.39c.46-3.2.83-6.37.85-9.6.01-2.3-1.01-4.74-2.64-6.36s-4.12-2.74-6.36-2.64-4.74.87-6.36,2.64-2.62,3.92-2.64,6.36h0Z"/><path class="cls-3" d="m139.87,249.06c4.71,0,9.22-4.14,9-9s-3.95-9-9-9c-4.71,0-9.22,4.14-9,9s3.95,9,9,9h0Z"/><path class="cls-3" d="m141.4,231.03c.5-.76.47-1.74.46-2.65-.03-3.98.74-7.96,2.26-11.63,1.86-4.5,4.82-8.56,6-13.28.18-.71.31-1.49.03-2.17-.31-.75-1.05-1.22-1.75-1.64-2.44-1.44-4.92-2.81-7.43-4.11-.4-.21-.83-.42-1.28-.37-.57.06-1.01.51-1.36.96-2.64,3.46-2.51,8.26-4.22,12.27-.26.6-.7,1.27-1.35,1.24-.71-.04-1.06-.87-1.22-1.56-.53-2.32-.8-4.71-.78-7.1,0-.42.02-.86.24-1.21.39-.62,1.22-.74,1.95-.79,3.02-.22,6.04-.34,9.06-.37,1.93-.02,4.12-.11,5.38-1.57.91-1.06,1.07-2.54,1.19-3.93.2-2.35.4-4.69.6-7.04"/><path class="cls-3" d="m149.17,235.58c1.22-2.27,1.69-4.64,1.69-7.2,0-1.38.08-2.75.25-4.12l-.32,2.39c.38-2.73,1.1-5.37,2.17-7.91l-.91,2.15c1.92-4.4,4.48-8.45,6.11-12.99,1.39-3.87,1.7-8.11-.61-11.73-1.83-2.87-4.81-4.44-7.69-6.05s-6.25-3.82-9.74-3.92c-4.68-.12-8.43,2.88-10.51,6.87-1.19,2.28-1.99,4.69-2.57,7.18-.45,1.95-.86,3.9-1.62,5.75l.91-2.15c-.09.21-.19.41-.32.59l1.41-1.82c-.12.18-.27.34-.45.47l1.82-1.41-.27.13,4.54-1.23-.31.04,2.39.32-.28-.06,2.15.91-.24-.14,1.82,1.41-.2-.21,1.41,1.82c-.13-.17-.23-.35-.3-.54l.91,2.15c-.38-1.09-.54-2.28-.7-3.42l.32,2.39c-.19-1.56-.31-3.13-.25-4.7l-.32,2.39.07-.41-.91,2.15.16-.38-1.41,1.82.19-.24-1.82,1.41c.15-.14.32-.24.51-.32l-2.15.91c.32-.1.6-.16.93-.21l-2.39.32c2.64-.23,5.3-.32,7.95-.38,3.54-.07,7.07-.2,10.25-1.96,1.98-1.1,3.58-2.79,4.76-4.7,1.32-2.16,1.61-4.46,1.89-6.9.31-2.65.47-5.33.69-7.99.18-2.18-1.14-4.86-2.64-6.36s-4.12-2.74-6.36-2.64-4.74.87-6.36,2.64-2.42,3.87-2.64,6.36c-.23,2.73-.38,5.47-.72,8.19l.32-2.39c-.1.64-.24,1.24-.48,1.84l.91-2.15c-.1.23-.22.45-.36.65l1.41-1.82c-.23.3-.45.54-.74.78l1.82-1.41c-.3.21-.58.37-.9.52l2.15-.91c-.57.22-1.14.35-1.74.44l2.39-.32c-4.65.53-9.35.04-13.99.84-4.99.86-8.23,5.34-8.47,10.23-.13,2.67.28,5.42.71,8.04.6,3.61,2.21,6.79,5.44,8.75,4.88,2.96,11.47.51,13.95-4.4,1.94-3.84,2.17-8.12,3.78-12.05l-.91,2.15c.37-.84.81-1.62,1.35-2.36l-1.41,1.82c.23-.28.45-.5.74-.73l-1.82,1.41.3-.15-2.15.91.33-.08-2.39.32.44.03-2.39-.32.43.14-2.15-.91c2.94,1.42,6.08,2.98,8.73,4.89l-1.82-1.41c.18.14.35.3.51.47l-1.41-1.82c.15.17.27.37.36.58l-.91-2.15.12.42-.32-2.39c.05.29.05.58.02.87l.32-2.39c-.22,1.42-.72,2.78-1.26,4.11l.91-2.15c-1.88,4.44-4.44,8.51-6.15,13.05-.76,2.01-1.28,4.09-1.6,6.21-.26,1.7-.5,3.41-.6,5.13-.06,1.14.03,2.28-.11,3.41l.32-2.39c-.04.26-.11.5-.21.74l.91-2.15-.18.34c-2.23,4.14-1.17,9.99,3.23,12.31s9.93,1.2,12.31-3.23h0Z"/><path class="cls-3" d="m157.4,182.16c4.71,0,9.22-4.14,9-9s-3.95-9-9-9c-4.71,0-9.22,4.14-9,9s3.95,9,9,9h0Z"/><path class="cls-3" d="m157.63,178.25c.6,1.72.63,3.58.66,5.4.09,6.09.05,12.61-3.37,17.65"/><path class="cls-3" d="m148.95,180.64c.22.67.37,1.34.47,2.04l-.32-2.39c.48,3.96.36,8.25-.13,12.2l.32-2.39c-.27,2-.71,3.95-1.46,5.83l.91-2.15c-.44,1.04-.96,2.03-1.59,2.98-1.25,1.88-1.49,4.81-.91,6.94s2.19,4.35,4.14,5.38c4.51,2.38,9.54.97,12.31-3.23,3-4.53,4.07-9.93,4.47-15.26.16-2.05.16-4.11.13-6.17-.03-2.85-.11-5.82-.99-8.55-.71-2.22-2.1-4.19-4.14-5.38-1.93-1.13-4.77-1.61-6.94-.91-4.48,1.45-7.83,6.27-6.29,11.07h0Z"/><path class="cls-3" d="m103.68,21.06c4.71,0,9.22-4.14,9-9s-3.95-9-9-9c-4.71,0-9.22,4.14-9,9s3.95,9,9,9h0Z"/><path class="cls-3" d="m106.53,12.39c5.45.27,10.87,1.01,16.19,2.22"/><path class="cls-3" d="m106.53,21.39c2.62.13,5.23.37,7.83.72l-2.39-.32c2.81.38,5.6.88,8.36,1.5,2.35.53,4.82.33,6.94-.91,1.87-1.09,3.65-3.23,4.14-5.38.52-2.3.41-4.89-.91-6.94-1.24-1.92-3.08-3.62-5.38-4.14-6.1-1.37-12.35-2.22-18.59-2.54-2.23-.11-4.81,1.09-6.36,2.64s-2.74,4.12-2.64,6.36.87,4.74,2.64,6.36,3.89,2.51,6.36,2.64h0Z"/><path class="cls-3" d="m97.72,21.57c4.71,0,9.22-4.14,9-9s-3.95-9-9-9c-4.71,0-9.22,4.14-9,9s3.95,9,9,9h0Z"/><path class="cls-3" d="m189.87,101.55c4.71,0,9.22-4.14,9-9s-3.95-9-9-9c-4.71,0-9.22,4.14-9,9s3.95,9,9,9h0Z"/><ellipse class="cls-4" cx="155.41" cy="38.44" rx="4.51" ry="8.9" transform="translate(18.34 121.15) rotate(-45)"/><ellipse class="cls-1" cx="157.2" cy="36.65" rx="7.04" ry="13.89" transform="translate(20.13 121.89) rotate(-45)"/><ellipse class="cls-1" cx="157.2" cy="36.65" rx="12.07" ry="23.82" transform="translate(20.13 121.89) rotate(-45)"/><ellipse class="cls-1" cx="157.2" cy="36.65" rx="16.66" ry="32.88" transform="translate(20.13 121.89) rotate(-45)"/><ellipse class="cls-1" cx="154.95" cy="38.9" rx="19.83" ry="39.14" transform="translate(17.88 120.96) rotate(-45)"/><path class="cls-1" d="m120.48,36.65s3.84,9.66,1.48,15.42c0,0,3.14-1.84,4.76,0s13.54,8.88,7.22,16.82"/><path class="cls-1" d="m111.03,12.65l.74,19.79s10.71,17.5,3.84,24.36"/><path class="cls-1" d="m103.25,3h31.96s28.01,9.98,33.77,21.87"/><path class="cls-1" d="m103.25,68.9s12.98,2.17,17.23-7.22"/><path class="cls-4" d="m120.48,69.68s2.69-9.61,7.65-9,4.76,2.97,4.76,3.37-2.45,5.62-4.76,5.62h-7.65Z"/><path class="cls-1" d="m119.5,12.65s-3.51,51.52,56.88,71.43c0,0,12.8,4.1,12.8-3.65s-5.76-14.74-5.76-14.74"/><path class="cls-1" d="m103.25,72.31s50.77-2.34,67.33,34.72"/><path class="cls-1" d="m103.25,87.79s50.05-4.86,61.75,43.72c0,0,4.9-2.93,3.98-8.28-8.64-50.05-65.73-45.97-65.73-45.97"/><path class="cls-1" d="m158.76,157.55c-.25,0,14.15-14.38,14.15-14.38,0,0,7.78,9.27,18.15,1.26,0,0,3.93,54.15-17.6,54.15,0,0,.79-41.02-14.7-41.02Z"/><path class="cls-1" d="m173.65,140.36c-.47-.74,9.16-19.7,9.16-19.7,0,0,9.24,2.62,12.08-1.85h6.31s-8.77,17.39-8.08,19.01-1.23,4.54-1.23,4.54c0,0-11.16,9.24-18.24-2Z"/><path class="cls-1" d="m135.77,64.19s29.64,18.71,49.23,42.85"/><path class="cls-1" d="m119.5,12.65s-.25-9.65,8.62-9.65"/><path class="cls-1" d="m201.21,114.53c-6.93,6.35-18.55,4.73-18.55,4.73,0,0,1.34-5.22,1.76-5.22s1.34-23.72,1.34-23.72c0,0,.78-3.18,5.79-3.39l.38-4.09,7.24-7.55,4.66,11.72s-.28,13.62-3.11,15.88l.48,11.65Z"/><path class="cls-1" d="m105.78,87.66c0,1.05,0,32.52,0,32.52,0,0,15.74,14.25,25.29-4.17,0,0,4.87-19.83,4.18-22.36"/><path class="cls-1" d="m130.68,116.74c.52.62-2.93,18.12,17.74,13.06l9.65-15.73"/><path class="cls-1" d="m150.84,125.85s-.94,7.91,5.51,9.39,7.7-7.27,7.7-7.27"/><path class="cls-1" d="m124.77,140.28v-7.91c-6.01-9.95-20.89-3.51-20.89-3.51v6.54"/><path class="cls-1" d="m141.89,149.98v-13.27c-8.87-8.87-14.68-2.34-14.68-2.34v6.77"/><path class="cls-1" d="m102.92,160.33s12.45-.4,25.71-5.74c0,0,14.24-1.81,16.79,1.17s23.14-20.69,19.58-24.25c0,0-15.16,27.63-24.33,17.74s-37.74-13.76-37.74-13.76"/><path class="cls-1" d="m145.82,191.07c7.13-1.55,12.09-5.99,12.24-6.92s4.08-4.44,6.87-15.19-12.25-10.49-12.25-10.49c0,0-7.14-1.7-13.86-1.7-5.05,0-12.68,1.34-14.06,1.38,0,0-20.89,3.26-18.98,14.83s13.69,18.08,13.69,18.08c0,0,5.89,2.07,6.72,9.51,0,0-.12,23.98-6.04,26.19s-5.75-4.58-5.85-4.97-6.15-9.06-10.14-10.81"/><path class="cls-1" d="m107.08,177.49s-.74-3.05-3.53-5.32v42.26s16.81,18.66,17.53,33.03"/><path class="cls-1" d="m145.74,246.46s18.46-11.27,23.33-24.28c4.17-11.12,2.85-36.75-4.27-58.41,1.55,5.06,2.04,26.95,2.04,26.95,0,0-19.38,28.57-19.44,33.95s-2.93,5.48-2.93,5.48c3.1,3.82,2.38,3.82,2.89,9.71.19,2.12-.36,4.06-1.14,5.69-1.39,2.89-3.51,4.75-3.51,4.75-.1,2.58-2.27,4.44-2.27,4.44,0,0-5.17,5.68-21.08,5.68s-15.2-8.99-15.2-8.99v-36.21"/><path class="cls-1" d="m112.74,162.14s-6.64,7.49,13.31,23.51c0,0,8.72,7.86,6.91,17.16"/><path class="cls-4" d="m117.03,240.18l.56,9.34s-.78,1.83-4.28.61-4.03-18.52-4.03-18.52c1.6-2.64,4.98,0,4.98,0,0,0,2.22,4.96,2.78,8.57Z"/><path class="cls-1" d="m137.18,208.63c0-.23,11.48-7.58,14.13-8.42s5.43-7.01,5.43-7.01"/><path class="cls-1" d="m143.49,151.13c.15.04,0-7.71,0-7.71,0,0,1.28-9.37,11.18-3.92v6.33"/><path class="cls-1" d="m115.68,231.51s4.22-2.79,5.12-.29c.33.91,5.75-1.4,6.28-1.57s18.55,0,18.55,0"/><polyline class="cls-1" points="121.42 232.06 143.37 232.06 143.37 247.18 120.65 247.18"/><ellipse class="cls-4" cx="127.14" cy="251.78" rx="2.27" ry="1.59"/><ellipse class="cls-4" cx="132.97" cy="251.78" rx="2.27" ry="1.59"/><ellipse class="cls-4" cx="138.12" cy="251.18" rx="1.59" ry="2.27"/><path class="cls-1" d="m127.14,226.48c.12-.29,9.18-29.03,26.42-35.85,0,0,9.69-2.36,12.49-17.25"/><path class="cls-1" d="m189.18,82.14c-.93-.35-.43,2.7,2.67,1.54"/><ellipse class="cls-4" cx="51.43" cy="38.44" rx="8.9" ry="4.51" transform="translate(-12.12 47.63) rotate(-45)"/><ellipse class="cls-1" cx="49.64" cy="36.65" rx="13.89" ry="7.04" transform="translate(-11.38 45.84) rotate(-45)"/><ellipse class="cls-1" cx="49.64" cy="36.65" rx="23.82" ry="12.07" transform="translate(-11.38 45.84) rotate(-45)"/><ellipse class="cls-1" cx="49.64" cy="36.65" rx="32.88" ry="16.66" transform="translate(-11.38 45.84) rotate(-45)"/><ellipse class="cls-1" cx="51.89" cy="38.9" rx="39.14" ry="19.83" transform="translate(-12.31 48.08) rotate(-45)"/><path class="cls-1" d="m86.36,36.65s-3.84,9.66-1.48,15.42c0,0-3.14-1.84-4.76,0s-13.54,8.88-7.22,16.82"/><path class="cls-1" d="m95.81,12.65l-.74,19.79s-10.71,17.5-3.84,24.36"/><path class="cls-1" d="m103.59,3h-31.96s-28.01,9.98-33.77,21.87"/><path class="cls-1" d="m103.59,68.9s-12.98,2.17-17.23-7.22"/><path class="cls-4" d="m86.36,69.68s-2.69-9.61-7.65-9-4.76,2.97-4.76,3.37,2.45,5.62,4.76,5.62h7.65Z"/><path class="cls-1" d="m87.34,12.65s3.51,51.52-56.88,71.43c0,0-12.8,4.1-12.8-3.65s5.76-14.74,5.76-14.74"/><path class="cls-1" d="m103.59,72.31s-50.77-2.34-67.33,34.72"/><path class="cls-1" d="m103.59,87.79s-50.05-4.86-61.75,43.72c0,0-4.9-2.93-3.98-8.28,8.64-50.05,65.73-45.97,65.73-45.97"/><path class="cls-1" d="m48.08,157.55c.25,0-14.15-14.38-14.15-14.38,0,0-7.78,9.27-18.15,1.26,0,0-3.93,54.15,17.6,54.15,0,0-.79-41.02,14.7-41.02Z"/><path class="cls-1" d="m33.19,140.36c.47-.74-9.16-19.7-9.16-19.7,0,0-9.24,2.62-12.08-1.85h-6.31s8.77,17.39,8.08,19.01,1.23,4.54,1.23,4.54c0,0,11.16,9.24,18.24-2Z"/><path class="cls-1" d="m71.07,64.19s-29.64,18.71-49.23,42.85"/><path class="cls-1" d="m87.34,12.65s.25-9.65-8.62-9.65"/><path class="cls-1" d="m5.63,114.53c6.93,6.35,18.55,4.73,18.55,4.73,0,0-1.34-5.22-1.76-5.22s-1.34-23.72-1.34-23.72c0,0-.78-3.18-5.79-3.39l-.38-4.09-7.24-7.55-4.66,11.72s.28,13.62,3.11,15.88l-.48,11.65Z"/><path class="cls-1" d="m101.06,87.66c0,1.05,0,32.52,0,32.52,0,0-15.74,14.25-25.29-4.17,0,0-4.87-19.83-4.18-22.36"/><path class="cls-1" d="m76.16,116.74c-.52.62,2.93,18.12-17.74,13.06l-9.65-15.73"/><path class="cls-1" d="m56,125.85s.94,7.91-5.51,9.39-7.7-7.27-7.7-7.27"/><path class="cls-1" d="m82.07,140.28v-7.91c6.01-9.95,20.89-3.51,20.89-3.51v6.54"/><path class="cls-1" d="m64.95,149.98v-13.27c8.87-8.87,14.68-2.34,14.68-2.34v6.77"/><path class="cls-1" d="m103.92,160.33s-12.45-.4-25.71-5.74c0,0-14.24-1.81-16.79,1.17s-23.14-20.69-19.58-24.25c0,0,15.16,27.63,24.33,17.74s37.74-13.76,37.74-13.76"/><path class="cls-1" d="m61.02,191.07c-7.13-1.55-12.09-5.99-12.24-6.92s-4.08-4.44-6.87-15.19,12.25-10.49,12.25-10.49c0,0,7.14-1.7,13.86-1.7,5.05,0,12.68,1.34,14.06,1.38,0,0,20.89,3.26,18.98,14.83s-13.69,18.08-13.69,18.08c0,0-5.89,2.07-6.72,9.51,0,0,.12,23.98,6.04,26.19s5.75-4.58,5.85-4.97,6.15-9.06,10.14-10.81"/><path class="cls-1" d="m99.76,177.49s.74-3.05,3.53-5.32v42.26s-16.81,18.66-17.53,33.03"/><path class="cls-1" d="m61.1,246.46s-18.46-11.27-23.33-24.28c-4.17-11.12-2.85-36.75,4.27-58.41-1.55,5.06-2.04,26.95-2.04,26.95,0,0,19.38,28.57,19.44,33.95s2.93,5.48,2.93,5.48c-3.1,3.82-2.38,3.82-2.89,9.71-.19,2.12.36,4.06,1.14,5.69,1.39,2.89,3.51,4.75,3.51,4.75.1,2.58,2.27,4.44,2.27,4.44,0,0,5.17,5.68,21.08,5.68s15.2-8.99,15.2-8.99v-36.21"/><path class="cls-1" d="m94.1,162.14s6.64,7.49-13.31,23.51c0,0-8.72,7.86-6.91,17.16"/><path class="cls-4" d="m89.81,240.18l-.56,9.34s.78,1.83,4.28.61,4.03-18.52,4.03-18.52c-1.6-2.64-4.98,0-4.98,0,0,0-2.22,4.96-2.78,8.57Z"/><path class="cls-1" d="m69.66,208.63c0-.23-11.48-7.58-14.13-8.42s-5.43-7.01-5.43-7.01"/><path class="cls-1" d="m63.35,151.13c-.15.04,0-7.71,0-7.71,0,0-1.28-9.37-11.18-3.92v6.33"/><path class="cls-1" d="m91.16,231.51s-4.22-2.79-5.12-.29c-.33.91-5.75-1.4-6.28-1.57s-18.55,0-18.55,0"/><polyline class="cls-1" points="85.42 232.06 63.47 232.06 63.47 247.18 86.19 247.18"/><ellipse class="cls-4" cx="79.7" cy="251.78" rx="2.27" ry="1.59"/><ellipse class="cls-4" cx="73.87" cy="251.78" rx="2.27" ry="1.59"/><ellipse class="cls-4" cx="68.72" cy="251.18" rx="1.59" ry="2.27"/><path class="cls-1" d="m79.7,226.48c-.12-.29-9.18-29.03-26.42-35.85,0,0-9.69-2.36-12.49-17.25"/><path class="cls-1" d="m17.66,82.14c.93-.35.43,2.7-2.67,1.54"/></g></svg>