<?xml version="1.0" encoding="UTF-8"?><svg id="Layer_2" xmlns="http://www.w3.org/2000/svg" viewBox="0 0 489 489"><defs><style>.cls-1{fill:#fef6b7;font-family:LoRes12OT-Bold, 'LoRes 12 OT';font-size:41.83px;font-weight:700;}.cls-2{fill:#7b3905;opacity:.8;stroke:#fcdd34;stroke-miterlimit:10;stroke-width:6px;}</style></defs><g id="Layer_1-2"><path class="cls-2" d="m244.5,3C111.12,3,3,111.12,3,244.5s108.12,241.5,241.5,241.5,241.5-108.12,241.5-241.5S377.88,3,244.5,3Zm0,406c-90.85,0-164.5-73.65-164.5-164.5S153.65,80,244.5,80s164.5,73.65,164.5,164.5-73.65,164.5-164.5,164.5Z"/><text class="cls-1" transform="translate(71.77 161.95) rotate(-61.37)"><tspan x="0" y="0">T</tspan></text><text class="cls-1" transform="translate(81.53 144.19) rotate(-55.85)"><tspan x="0" y="0">r</tspan></text><text class="cls-1" transform="translate(90.61 130.19) rotate(-49.26)"><tspan x="0" y="0">a</tspan></text><text class="cls-1" transform="translate(108.59 109.83) rotate(-43.16)"><tspan x="0" y="0">i</tspan></text><text class="cls-1" transform="translate(118.36 100.63) rotate(-39.12)"><tspan x="0" y="0">l</tspan></text><text class="cls-1" transform="translate(128.39 91.95) rotate(-33.05)"><tspan x="0" y="0">e</tspan></text><text class="cls-1" transform="translate(151.24 77.39) rotate(-26.51)"><tspan x="0" y="0">r</tspan></text><text class="cls-1" transform="translate(417.23 327.05) rotate(118.63)"><tspan x="0" y="0">T</tspan></text><text class="cls-1" transform="translate(407.47 344.81) rotate(124.15)"><tspan x="0" y="0">r</tspan></text><text class="cls-1" transform="translate(398.39 358.81) rotate(130.74)"><tspan x="0" y="0">a</tspan></text><text class="cls-1" transform="translate(380.41 379.17) rotate(136.84)"><tspan x="0" y="0">i</tspan></text><text class="cls-1" transform="translate(370.63 388.37) rotate(140.88)"><tspan x="0" y="0">l</tspan></text><text class="cls-1" transform="translate(360.61 397.04) rotate(146.95)"><tspan x="0" y="0">e</tspan></text><text class="cls-1" transform="translate(337.76 411.61) rotate(153.49)"><tspan x="0" y="0">r</tspan></text></g></svg>