<?xml version="1.0" encoding="UTF-8"?><svg id="Layer_2" xmlns="http://www.w3.org/2000/svg" viewBox="0 0 100 100"><defs><style>.cls-1{fill:#d82619;}.cls-2{fill:#fbd16d;}.cls-3{fill:#ccf193;}.cls-4{fill:#3a7102;}</style></defs><g id="Layer_1-2"><circle class="cls-4" cx="50" cy="50" r="50"/><circle class="cls-2" cx="50" cy="50" r="47.12"/><circle class="cls-3" cx="50" cy="50" r="47.12"/><circle class="cls-1" cx="50" cy="50" r="41.68"/><path d="m51.97,70.3c-.35,1.18-1.58,1.86-2.76,1.51s-1.86-1.58-1.51-2.76,3.46-3.91,3.46-3.91c0,0,1.15,3.98.81,5.16Z"/><path d="m61.5,61.98c1.08-.59,2.43-.19,3.02.88s.19,2.43-.88,3.02-5.22.32-5.22.32c0,0,2-3.63,3.08-4.22Z"/><path d="m54.2,32.34c.44-1.15,1.73-1.72,2.88-1.27s1.72,1.73,1.27,2.88-3.78,3.61-3.78,3.61c0,0-.81-4.07-.37-5.21Z"/><path d="m30.13,40.23c-.72-.99-.5-2.39.49-3.11s2.39-.5,3.11.49.98,5.13.98,5.13c0,0-3.86-1.52-4.58-2.51Z"/><path d="m44.16,31.41c-.37-1.17.28-2.42,1.45-2.79s2.42.28,2.79,1.45-.69,5.18-.69,5.18c0,0-3.18-2.66-3.55-3.83Z"/><path d="m41.14,47.79c-.75-.98-.56-2.37.42-3.12s2.37-.56,3.12.42,1.1,5.11,1.1,5.11c0,0-3.89-1.43-4.64-2.41Z"/><path d="m69.07,54.43c-1.21-.2-2.03-1.35-1.83-2.56s1.35-2.03,2.56-1.83,4.3,2.97,4.3,2.97c0,0-3.82,1.62-5.03,1.42Z"/><path d="m39.51,57.54c.07,1.23-.86,2.28-2.09,2.35s-2.28-.86-2.35-2.09,1.94-4.85,1.94-4.85c0,0,2.43,3.36,2.5,4.59Z"/><path d="m64.28,33.09c1.18-.35,2.42.32,2.77,1.49s-.32,2.42-1.49,2.77-5.17-.77-5.17-.77c0,0,2.71-3.14,3.89-3.49Z"/><path d="m26.87,50.89c-1.23.1-2.3-.82-2.39-2.04s.82-2.3,2.04-2.39,4.89,1.85,4.89,1.85c0,0-3.31,2.49-4.54,2.59Z"/><path d="m40.5,65.09c1.18-.35,2.42.32,2.77,1.49s-.32,2.42-1.49,2.77-5.17-.77-5.17-.77c0,0,2.71-3.14,3.89-3.49Z"/><path d="m70.5,42.09c1.18-.35,2.42.32,2.77,1.49s-.32,2.42-1.49,2.77-5.17-.77-5.17-.77c0,0,2.71-3.14,3.89-3.49Z"/><path d="m55.5,43.09c1.18-.35,2.42.32,2.77,1.49s-.32,2.42-1.49,2.77-5.17-.77-5.17-.77c0,0,2.71-3.14,3.89-3.49Z"/><path d="m74.5,56.09c1.18-.35,2.42.32,2.77,1.49s-.32,2.42-1.49,2.77-5.17-.77-5.17-.77c0,0,2.71-3.14,3.89-3.49Z"/><path d="m41.49,31.6c.59,1.08.2,2.43-.87,3.02s-2.43.2-3.02-.87-.34-5.22-.34-5.22c0,0,3.64,1.99,4.23,3.06Z"/><path d="m58.06,57.94c.59,1.08.2,2.43-.87,3.02s-2.43.2-3.02-.87-.34-5.22-.34-5.22c0,0,3.64,1.99,4.23,3.06Z"/><path d="m57.36,18.33c-.35,1.18-1.58,1.86-2.76,1.51s-1.86-1.58-1.51-2.76,3.46-3.91,3.46-3.91c0,0,1.15,3.98.81,5.16Z"/><path d="m21.36,65.33c-.35,1.18-1.58,1.86-2.76,1.51s-1.86-1.58-1.51-2.76,3.46-3.91,3.46-3.91c0,0,1.15,3.98.81,5.16Z"/><path d="m68.76,74.19c1.07.61,1.44,1.97.83,3.04s-1.97,1.44-3.04.83-3-4.28-3-4.28c0,0,4.14-.2,5.21.41Z"/><path d="m79.4,32.66c.33,1.18-.36,2.41-1.54,2.74s-2.41-.36-2.74-1.54.87-5.15.87-5.15c0,0,3.09,2.77,3.42,3.95Z"/><path d="m33.37,22.11c.33,1.18-.36,2.41-1.54,2.74s-2.41-.36-2.74-1.54.87-5.15.87-5.15c0,0,3.09,2.77,3.42,3.95Z"/><path d="m41.43,77.18c1.18-.35,2.42.32,2.77,1.49s-.32,2.42-1.49,2.77-5.17-.77-5.17-.77c0,0,2.71-3.14,3.89-3.49Z"/></g></svg>